<?xml version="1.0" standalone="no"?>
<!DOCTYPE svg PUBLIC "-//W3C//DTD SVG 20010904//EN"
 "http://www.w3.org/TR/2001/REC-SVG-20010904/DTD/svg10.dtd">
<svg version="1.0" xmlns="http://www.w3.org/2000/svg"
 width="300.000000pt" height="300.000000pt" viewBox="0 0 300.000000 300.000000"
 preserveAspectRatio="xMidYMid meet">

<g transform="translate(0.000000,300.000000) scale(0.100000,-0.100000)"
fill="#000000" stroke="none">
<path d="M904 2991 c3 -5 -24 -11 -60 -13 -36 -2 -68 -9 -72 -15 -4 -6 -33
-14 -64 -18 -32 -4 -63 -13 -69 -21 -6 -8 -29 -14 -50 -14 -20 0 -44 -7 -53
-15 -8 -8 -18 -15 -22 -15 -13 0 -84 -85 -90 -107 -3 -13 -3 -33 0 -45 7 -26
78 -108 93 -108 6 0 13 -7 17 -15 7 -20 121 -21 133 -1 10 16 122 26 214 19
l65 -6 -60 -62 c-78 -80 -160 -173 -165 -188 -2 -7 -10 -16 -17 -20 -8 -4 -14
-12 -14 -17 0 -11 -36 -50 -46 -50 -13 0 -101 -74 -195 -163 l-66 -63 -6 65
c-7 92 3 204 19 214 20 12 19 126 -1 133 -8 4 -15 11 -15 17 0 15 -82 86 -107
93 -13 3 -33 3 -45 0 -23 -6 -108 -77 -108 -90 0 -4 -7 -14 -15 -22 -8 -9 -15
-33 -15 -53 0 -21 -6 -44 -14 -50 -8 -6 -17 -37 -21 -69 -4 -31 -12 -60 -18
-64 -6 -4 -13 -36 -15 -72 -2 -36 -8 -63 -13 -60 -5 3 -9 -88 -9 -210 0 -137
4 -216 10 -216 6 0 10 -16 10 -35 0 -19 10 -53 21 -75 18 -33 21 -52 16 -97
-3 -31 -11 -59 -18 -63 -6 -5 -14 -31 -17 -59 -2 -28 -8 -48 -13 -45 -5 3 -9
-90 -9 -210 0 -137 4 -216 10 -216 6 0 10 -21 10 -47 0 -27 7 -61 15 -77 8
-16 18 -53 21 -82 4 -30 13 -59 20 -65 8 -6 14 -29 14 -51 0 -25 5 -41 15 -44
8 -4 15 -11 15 -18 0 -6 21 -30 47 -53 38 -35 55 -43 85 -43 33 0 46 8 98 60
l60 60 0 60 c0 42 -4 62 -14 66 -17 6 -27 144 -16 229 4 33 8 52 9 43 0 -10 5
-18 10 -18 4 0 43 -34 86 -76 43 -41 91 -82 107 -90 15 -8 28 -19 28 -24 0 -6
5 -10 11 -10 7 0 34 -22 60 -50 26 -27 50 -50 53 -50 14 0 116 -102 116 -115
0 -3 20 -25 43 -49 l44 -43 -66 -6 c-92 -7 -204 3 -214 19 -12 20 -126 19
-133 -1 -4 -8 -11 -15 -17 -15 -15 0 -86 -82 -93 -107 -3 -13 -3 -33 0 -45 6
-23 77 -108 90 -108 4 0 14 -7 22 -15 9 -8 30 -15 47 -15 18 0 41 -6 52 -14
11 -7 45 -17 75 -21 30 -4 58 -12 62 -18 4 -6 36 -13 72 -15 36 -2 63 -8 60
-13 -3 -5 88 -9 210 -9 137 0 216 4 216 10 0 6 17 10 38 10 21 0 49 8 62 18
32 22 156 25 169 3 5 -7 32 -16 60 -19 28 -2 48 -8 45 -13 -3 -5 90 -9 210 -9
137 0 216 4 216 10 0 6 21 10 48 10 26 0 60 7 76 15 16 8 53 18 82 21 30 4 59
13 65 20 6 8 29 14 51 14 25 0 41 5 44 15 4 8 12 15 19 15 8 0 32 21 54 48 32
36 41 55 41 84 0 32 -8 45 -60 98 l-61 60 -60 0 c-41 0 -61 -4 -65 -14 -6 -17
-144 -27 -229 -16 -33 4 -52 8 -42 9 9 0 17 5 17 10 0 4 34 43 76 86 41 43 82
91 90 107 8 15 19 28 24 28 6 0 10 7 10 15 0 9 8 19 17 22 9 4 24 14 33 22 10
9 32 27 49 40 18 13 66 57 108 98 42 40 80 73 84 73 5 0 10 8 10 18 1 9 5 -10
9 -43 11 -85 1 -223 -16 -229 -10 -4 -14 -24 -14 -65 l0 -60 60 -61 c53 -52
66 -60 98 -60 29 0 48 9 85 41 26 22 47 46 47 54 0 7 7 15 15 19 10 3 15 19
15 44 0 22 6 45 14 51 7 6 16 35 20 65 3 29 13 66 21 82 8 16 15 50 15 77 0
26 5 47 10 47 6 0 10 79 10 216 0 120 -4 213 -9 210 -5 -3 -11 17 -13 45 -3
28 -12 55 -19 60 -22 13 -19 137 4 169 9 13 17 41 17 62 0 21 5 38 10 38 6 0
10 79 10 216 0 122 -4 213 -9 210 -5 -3 -11 24 -13 60 -2 36 -9 68 -15 72 -6
4 -14 32 -18 62 -4 30 -14 64 -21 75 -8 11 -14 34 -14 52 0 17 -7 38 -15 47
-8 8 -15 18 -15 22 0 13 -85 84 -107 90 -13 3 -33 3 -45 0 -26 -7 -108 -78
-108 -93 0 -6 -7 -13 -15 -17 -20 -7 -21 -121 -1 -133 16 -10 26 -122 19 -215
l-6 -66 -28 29 c-16 16 -31 29 -35 29 -8 0 -144 136 -144 144 0 3 -15 21 -32
40 -18 19 -41 45 -51 58 -48 62 -88 107 -149 171 -38 38 -68 73 -68 78 0 5 -8
10 -17 10 -10 1 9 5 42 9 85 11 223 1 229 -16 4 -10 24 -14 66 -14 l60 0 60
60 c52 52 60 65 60 98 0 30 -8 47 -42 85 -24 26 -48 47 -54 47 -7 0 -14 7 -18
15 -3 10 -19 15 -44 15 -22 0 -45 6 -51 14 -6 7 -35 16 -65 20 -29 3 -66 13
-82 21 -16 8 -50 15 -76 15 -27 0 -48 5 -48 10 0 6 -79 10 -216 10 -120 0
-213 -4 -210 -9 3 -5 -17 -11 -45 -13 -28 -3 -54 -11 -59 -17 -4 -7 -32 -15
-63 -18 -45 -5 -64 -2 -97 16 -22 11 -56 21 -75 21 -19 0 -35 5 -35 10 0 6
-79 10 -216 10 -122 0 -213 -4 -210 -9z m356 -211 c0 -6 12 -15 26 -21 15 -5
44 -23 64 -39 24 -19 50 -30 69 -30 19 0 34 -6 37 -15 4 -10 20 -15 44 -15 24
0 40 5 44 15 3 9 18 15 37 15 19 0 45 11 69 30 20 16 49 34 64 39 14 6 26 15
26 21 0 6 24 10 58 9 49 -1 52 -2 22 -8 -44 -9 -80 -32 -108 -70 -25 -35 -29
-69 -7 -77 8 -4 15 -11 15 -17 0 -18 84 -87 113 -94 15 -3 27 -12 27 -19 0 -8
4 -14 9 -14 6 0 23 -12 38 -26 15 -15 42 -33 59 -40 34 -14 64 -44 45 -44 -6
0 -15 -8 -18 -17 -4 -10 -14 -23 -22 -30 -14 -10 -14 -13 2 -30 9 -11 17 -22
17 -26 0 -10 47 -57 58 -57 5 0 12 -7 16 -15 3 -8 17 -15 31 -15 14 0 28 -7
31 -15 4 -8 13 -15 21 -15 29 0 73 -34 73 -56 0 -11 9 -31 20 -44 11 -13 20
-32 20 -42 0 -10 7 -21 15 -24 8 -4 15 -10 15 -15 0 -12 46 -59 58 -59 5 0 12
-7 16 -15 3 -9 19 -15 41 -15 24 0 35 4 35 15 0 8 2 15 5 15 12 0 73 -71 78
-91 8 -29 71 -99 105 -116 22 -12 28 -10 66 20 22 17 53 45 68 60 l28 28 0
-40 c0 -24 -5 -41 -14 -44 -7 -3 -17 -26 -20 -51 -4 -25 -12 -46 -17 -46 -5 0
-13 -8 -16 -17 -4 -10 -13 -24 -20 -31 -9 -9 -13 -43 -13 -106 0 -88 2 -95 30
-135 17 -23 35 -53 40 -67 5 -13 14 -24 20 -24 6 0 10 -24 9 -57 -1 -53 -2
-55 -8 -21 -8 38 -17 53 -61 100 -28 30 -48 35 -56 14 -3 -8 -17 -16 -32 -19
-33 -7 -100 -72 -109 -105 -3 -13 -21 -40 -40 -59 -33 -33 -36 -33 -54 -17
-17 15 -19 15 -25 0 -3 -9 -13 -16 -20 -16 -8 0 -17 -7 -20 -15 -3 -8 -14 -17
-25 -20 -10 -4 -19 -10 -19 -15 0 -5 -13 -24 -30 -42 -16 -18 -30 -38 -30 -45
0 -7 -9 -21 -20 -30 -11 -10 -20 -21 -20 -26 0 -12 -63 -72 -83 -80 -10 -4
-17 -11 -17 -17 0 -5 -8 -10 -18 -10 -11 0 -29 -9 -42 -20 -13 -11 -32 -20
-42 -20 -10 0 -21 -7 -24 -15 -4 -8 -10 -15 -15 -15 -11 0 -59 -45 -59 -55 0
-5 -7 -16 -15 -25 -13 -14 -11 -20 15 -48 28 -31 29 -33 12 -52 -9 -11 -23
-20 -30 -20 -19 0 -111 -72 -112 -87 0 -7 -4 -13 -10 -13 -5 0 -16 -14 -25
-30 -18 -35 -10 -59 36 -102 16 -15 29 -31 29 -37 0 -5 8 -15 18 -20 14 -8 10
-10 -19 -11 -20 0 -42 6 -48 14 -6 7 -29 16 -51 20 -22 3 -40 11 -40 16 0 6
-7 13 -16 17 -9 3 -30 19 -47 34 -29 27 -32 27 -49 12 -16 -14 -18 -14 -24 1
-9 22 -79 22 -88 0 -6 -15 -8 -15 -24 -1 -17 15 -20 15 -49 -12 -17 -15 -38
-31 -47 -34 -9 -4 -16 -11 -16 -17 0 -5 -18 -13 -40 -16 -22 -4 -45 -13 -51
-20 -6 -8 -28 -14 -48 -14 -29 1 -33 3 -18 11 9 5 17 14 17 19 0 5 15 26 34
46 55 58 54 56 33 91 -10 18 -23 33 -28 33 -5 0 -9 6 -9 13 -1 15 -93 87 -112
87 -7 0 -21 9 -30 20 -17 19 -16 21 12 52 26 28 28 34 15 48 -8 9 -15 20 -15
25 0 10 -48 55 -59 55 -5 0 -11 7 -15 15 -3 8 -14 15 -24 15 -10 0 -29 9 -42
20 -13 11 -31 20 -42 20 -10 0 -18 5 -18 10 0 6 -7 13 -17 17 -20 8 -83 68
-83 80 0 5 -9 16 -20 26 -11 9 -20 25 -20 36 0 10 -7 21 -15 25 -8 3 -15 12
-15 21 0 8 -7 15 -15 15 -9 0 -18 7 -21 15 -8 20 -40 19 -48 -1 -5 -12 -22 0
-74 53 -38 37 -72 79 -75 94 -9 34 -75 99 -109 106 -15 3 -29 11 -32 19 -8 21
-28 16 -56 -14 -44 -47 -53 -62 -61 -100 -6 -34 -7 -32 -8 21 -1 33 3 57 9 57
6 0 15 11 20 24 5 14 23 44 40 67 28 40 30 47 30 135 0 63 -4 97 -13 106 -7 7
-16 21 -20 31 -3 9 -11 17 -16 17 -5 0 -13 21 -17 46 -3 25 -13 48 -20 51 -9
3 -14 20 -14 44 l0 40 28 -28 c15 -15 46 -43 68 -60 38 -30 44 -32 66 -20 34
17 97 87 105 116 7 29 68 91 90 91 9 0 25 -8 36 -17 18 -17 19 -17 32 0 6 9
16 17 20 17 10 0 55 49 55 59 0 5 7 11 15 15 8 3 15 14 15 24 0 10 9 29 20 42
11 13 20 33 20 44 0 22 44 56 73 56 8 0 17 7 21 15 3 8 17 15 31 15 14 0 28 7
31 15 4 8 11 15 16 15 11 0 58 47 58 57 0 4 8 15 17 26 16 17 16 20 2 30 -8 7
-18 20 -22 30 -3 9 -12 17 -18 17 -19 0 11 30 45 44 17 7 44 25 59 40 15 14
32 26 38 26 5 0 9 4 9 10 0 5 15 16 33 24 36 16 107 77 107 93 0 6 7 13 15 17
22 8 18 42 -7 77 -28 38 -64 61 -108 70 -30 6 -27 7 23 8 33 1 57 -3 57 -9z"/>
<path d="M1344 2095 c-11 -8 -41 -14 -73 -15 -35 0 -69 -8 -98 -22 l-45 -22
-17 23 c-23 30 -53 24 -99 -19 -18 -16 -35 -30 -37 -30 -10 0 -55 -48 -55 -59
0 -6 -4 -11 -8 -11 -5 0 -19 -14 -32 -32 -21 -28 -21 -32 -6 -43 24 -18 23
-180 -1 -208 -26 -27 -26 -285 -1 -314 11 -12 17 -42 20 -92 2 -46 8 -76 16
-79 19 -6 15 -18 -18 -53 l-29 -32 32 -41 c104 -135 231 -221 251 -171 8 21
98 20 139 -2 47 -26 387 -26 434 0 41 22 131 23 139 2 15 -39 86 -4 179 90 94
93 129 164 90 179 -21 8 -20 98 2 139 15 27 18 61 18 217 0 156 -3 190 -18
217 -21 40 -23 99 -2 107 25 9 18 59 -15 94 -16 18 -30 36 -30 39 0 6 -48 53
-55 53 -2 0 -19 14 -37 30 -46 43 -76 49 -99 19 l-17 -23 -45 22 c-29 14 -63
22 -98 22 -32 1 -62 7 -73 15 -15 12 -52 15 -156 15 -104 0 -141 -3 -156 -15z
m296 -220 c8 -7 44 -16 79 -19 36 -4 74 -14 85 -22 11 -8 26 -14 33 -14 32 0
53 -39 53 -98 0 -38 6 -66 17 -82 24 -34 24 -261 -1 -285 -11 -12 -16 -34 -16
-80 0 -47 -4 -64 -15 -69 -8 -3 -15 -14 -15 -24 0 -23 -19 -42 -42 -42 -10 0
-21 -7 -24 -15 -5 -11 -22 -15 -69 -15 -46 0 -68 -5 -80 -16 -24 -25 -251 -25
-285 -1 -16 11 -44 17 -82 17 -59 0 -98 21 -98 53 0 7 -6 22 -14 33 -8 11 -18
49 -22 85 -3 35 -13 72 -21 81 -21 24 -21 252 0 276 8 9 18 47 22 85 5 56 11
72 36 96 24 25 40 31 96 36 38 4 75 13 83 21 28 24 250 23 280 -1z"/>
</g>
</svg>
