<svg id="svg" version="1.1" xmlns="http://www.w3.org/2000/svg" xmlns:xlink="http://www.w3.org/1999/xlink" width="400" height="400" viewBox="0, 0, 400,400"><g id="svgg"><path id="path0" d="M117.200 7.193 C 116.870 7.410,116.095 7.591,115.478 7.594 C 114.861 7.597,113.511 7.994,112.478 8.476 C 110.645 9.332,108.851 10.045,105.200 11.370 C 104.210 11.730,102.680 12.373,101.800 12.800 C 100.920 13.227,99.390 13.867,98.400 14.223 C 97.410 14.578,95.880 15.128,95.000 15.445 C 94.120 15.762,93.040 16.194,92.600 16.405 C 90.467 17.427,85.635 19.306,84.286 19.638 C 83.454 19.843,82.464 20.164,82.086 20.351 C 79.910 21.432,76.727 22.800,76.389 22.800 C 76.173 22.800,75.063 23.250,73.923 23.800 C 72.783 24.350,71.565 24.800,71.217 24.800 C 70.129 24.800,64.511 28.320,63.635 29.551 C 61.902 31.985,62.567 41.622,64.765 45.931 C 65.224 46.832,65.600 47.831,65.600 48.151 C 65.600 48.472,66.050 49.630,66.600 50.725 C 67.150 51.820,67.600 52.921,67.600 53.171 C 67.600 53.422,68.050 54.515,68.600 55.600 C 69.150 56.685,69.600 57.771,69.600 58.012 C 69.600 58.899,71.531 62.624,72.393 63.400 C 73.673 64.553,83.018 64.806,86.124 63.772 C 90.655 62.264,93.819 61.076,94.180 60.746 C 94.389 60.556,94.804 60.400,95.102 60.400 C 95.400 60.400,96.399 60.058,97.322 59.640 C 98.245 59.221,100.530 58.298,102.400 57.588 C 104.270 56.878,106.750 55.871,107.912 55.349 C 109.073 54.827,110.216 54.400,110.451 54.400 C 110.687 54.400,111.446 54.151,112.140 53.847 C 112.833 53.543,114.030 53.066,114.800 52.787 C 116.783 52.069,118.196 51.486,121.432 50.054 C 122.989 49.364,124.429 48.802,124.632 48.805 C 125.066 48.811,128.000 53.133,128.000 53.766 C 128.000 54.171,62.514 119.738,56.105 125.750 L 53.210 128.466 52.151 127.633 C 51.569 127.175,50.891 126.794,50.646 126.787 C 49.211 126.744,48.112 124.936,48.766 123.695 C 49.210 122.854,50.099 120.701,50.787 118.800 C 51.239 117.552,51.639 116.551,52.788 113.800 C 52.972 113.360,53.614 111.740,54.214 110.200 C 54.815 108.660,55.583 106.770,55.922 106.000 C 56.583 104.497,57.685 101.617,58.622 98.944 C 58.941 98.033,59.470 96.773,59.799 96.144 C 60.127 95.515,60.396 94.780,60.398 94.512 C 60.399 94.243,60.850 93.040,61.400 91.837 C 61.950 90.635,62.400 89.555,62.400 89.437 C 62.400 89.320,62.850 88.240,63.400 87.037 C 64.521 84.587,64.897 75.313,63.950 73.474 C 63.149 71.919,61.883 70.800,60.925 70.800 C 60.410 70.800,59.677 70.629,59.295 70.419 C 58.069 69.748,55.860 68.875,53.600 68.169 C 52.390 67.791,50.680 67.132,49.800 66.705 C 48.920 66.277,47.390 65.658,46.400 65.329 C 45.410 65.000,43.666 64.296,42.525 63.765 C 39.127 62.185,30.984 62.312,29.090 63.975 C 27.743 65.157,26.304 67.576,25.623 69.800 C 25.421 70.460,24.703 72.324,24.028 73.941 C 23.353 75.559,22.800 77.130,22.800 77.433 C 22.800 77.735,22.363 78.931,21.830 80.091 C 20.396 83.207,19.753 84.781,19.038 86.920 C 18.685 87.976,18.037 89.544,17.598 90.404 C 17.159 91.264,16.800 92.325,16.800 92.760 C 16.800 93.196,16.647 93.648,16.459 93.763 C 16.272 93.879,15.805 94.835,15.422 95.887 C 15.039 96.939,14.293 98.750,13.763 99.911 C 13.233 101.072,12.800 102.251,12.800 102.531 C 12.800 102.811,12.650 103.211,12.466 103.420 C 12.282 103.629,11.816 104.700,11.429 105.800 C 11.042 106.900,10.293 108.750,9.763 109.911 C 9.233 111.072,8.800 112.341,8.800 112.731 C 8.800 113.121,8.623 113.617,8.406 113.834 C 7.032 115.208,7.000 117.180,7.000 200.000 C 7.000 282.820,7.032 284.792,8.406 286.166 C 8.623 286.383,8.800 286.895,8.800 287.305 C 8.800 287.714,9.229 288.983,9.754 290.125 C 10.279 291.266,11.026 293.061,11.414 294.113 C 11.801 295.165,12.272 296.121,12.459 296.237 C 12.647 296.352,12.800 296.803,12.800 297.237 C 12.800 297.671,13.250 298.915,13.800 300.000 C 14.350 301.085,14.806 302.204,14.813 302.487 C 14.819 302.769,15.268 303.900,15.809 305.000 C 16.350 306.100,16.794 307.231,16.796 307.513 C 16.798 307.796,17.250 308.915,17.800 310.000 C 18.350 311.085,18.806 312.204,18.813 312.487 C 18.819 312.769,19.268 313.900,19.809 315.000 C 20.350 316.100,20.794 317.232,20.796 317.516 C 20.798 317.800,21.184 318.785,21.654 319.706 C 22.124 320.626,22.830 322.464,23.225 323.790 C 26.693 335.455,28.335 337.166,36.076 337.187 C 38.868 337.194,41.252 337.040,41.373 336.844 C 41.494 336.649,42.077 336.367,42.669 336.218 C 43.262 336.070,44.467 335.600,45.348 335.174 C 46.229 334.748,47.114 334.400,47.315 334.400 C 47.682 334.400,50.007 333.446,51.295 332.766 C 51.677 332.565,52.189 332.400,52.434 332.400 C 52.679 332.400,53.446 332.147,54.140 331.838 C 54.833 331.528,56.300 330.959,57.400 330.572 C 58.500 330.185,59.571 329.718,59.780 329.534 C 59.989 329.350,60.630 329.200,61.205 329.200 C 64.257 329.200,65.878 317.898,63.489 313.277 C 62.955 312.245,62.399 310.905,62.252 310.300 C 62.105 309.695,61.808 309.200,61.592 309.200 C 61.377 309.200,61.200 308.829,61.200 308.375 C 61.200 307.922,60.766 306.617,60.235 305.475 C 59.704 304.334,58.980 302.500,58.626 301.400 C 58.272 300.300,57.824 299.040,57.631 298.600 C 57.438 298.160,57.056 297.170,56.780 296.400 C 56.505 295.630,56.019 294.370,55.699 293.600 C 55.380 292.830,54.938 291.750,54.717 291.200 C 54.496 290.650,54.084 289.660,53.801 289.000 C 53.517 288.340,53.059 287.170,52.783 286.400 C 52.506 285.630,52.019 284.370,51.699 283.600 C 51.380 282.830,50.938 281.750,50.717 281.200 C 50.496 280.650,50.084 279.660,49.801 279.000 C 48.230 275.341,48.191 274.000,49.657 274.000 C 49.854 274.000,50.729 273.550,51.600 273.000 C 52.471 272.450,53.379 272.000,53.618 272.000 C 54.112 272.000,115.953 333.513,123.283 341.296 L 128.083 346.392 126.568 348.696 C 124.568 351.736,124.732 351.689,121.599 350.145 C 120.097 349.405,118.671 348.800,118.429 348.800 C 118.187 348.800,117.677 348.629,117.295 348.419 C 116.913 348.210,115.925 347.760,115.100 347.419 C 114.275 347.079,112.988 346.530,112.240 346.200 C 111.491 345.870,110.508 345.600,110.054 345.600 C 109.600 345.600,108.422 345.150,107.437 344.600 C 106.452 344.050,105.363 343.600,105.018 343.600 C 104.672 343.600,104.077 343.440,103.695 343.244 C 102.958 342.867,100.987 342.006,99.000 341.193 C 98.340 340.923,97.322 340.454,96.738 340.151 C 96.154 339.848,95.387 339.600,95.033 339.600 C 94.679 339.600,94.032 339.420,93.595 339.200 C 93.158 338.980,92.442 338.620,92.005 338.400 C 90.731 337.758,87.856 336.812,87.161 336.806 C 86.810 336.803,85.954 336.516,85.258 336.169 C 83.374 335.229,73.624 335.489,72.499 336.510 C 71.638 337.290,70.339 339.717,69.453 342.200 C 68.638 344.483,67.254 347.923,66.364 349.878 C 65.944 350.801,65.600 351.753,65.600 351.994 C 65.600 352.235,65.245 353.128,64.811 353.979 C 62.539 358.431,61.856 367.951,63.630 370.442 C 64.561 371.750,70.170 375.182,71.394 375.193 C 71.831 375.197,73.091 375.632,74.194 376.160 C 76.884 377.448,78.439 378.091,82.000 379.388 C 83.650 379.989,85.313 380.643,85.695 380.841 C 86.077 381.038,86.741 381.200,87.171 381.200 C 87.601 381.200,88.048 381.353,88.163 381.541 C 88.279 381.728,89.235 382.193,90.287 382.574 C 92.087 383.226,94.112 384.082,95.695 384.859 C 96.077 385.046,96.741 385.200,97.171 385.200 C 97.601 385.200,98.048 385.353,98.163 385.541 C 98.279 385.728,99.235 386.193,100.287 386.574 C 102.087 387.226,104.112 388.082,105.695 388.859 C 106.077 389.046,106.601 389.200,106.860 389.200 C 107.120 389.200,108.697 389.851,110.366 390.646 C 112.035 391.442,114.120 392.176,115.000 392.277 C 115.880 392.378,116.960 392.633,117.400 392.844 C 117.886 393.076,122.674 393.138,129.600 393.002 C 140.209 392.793,246.367 392.692,271.700 392.867 C 283.381 392.948,285.877 392.716,288.423 391.314 C 289.181 390.897,291.600 389.874,293.800 389.040 C 296.000 388.207,298.520 387.205,299.400 386.814 C 300.280 386.424,302.530 385.524,304.400 384.816 C 306.270 384.107,308.340 383.284,309.000 382.987 C 311.516 381.854,315.208 380.462,316.375 380.205 C 317.044 380.059,317.694 379.772,317.819 379.569 C 317.945 379.366,318.349 379.200,318.718 379.200 C 319.087 379.200,320.291 378.771,321.394 378.246 C 322.497 377.721,324.660 376.808,326.200 376.217 C 330.666 374.504,334.496 372.541,335.900 371.245 L 337.200 370.045 337.200 364.598 C 337.200 359.262,336.488 355.200,335.554 355.200 C 335.359 355.200,335.200 354.829,335.200 354.375 C 335.200 353.922,334.764 352.617,334.230 351.475 C 333.697 350.334,332.956 348.455,332.584 347.300 C 332.212 346.145,331.749 345.200,331.554 345.200 C 331.359 345.200,331.200 344.937,331.200 344.616 C 331.200 342.657,329.668 339.333,327.936 337.535 L 326.072 335.600 320.904 335.600 C 316.432 335.600,315.337 335.736,312.768 336.608 C 308.145 338.179,308.003 338.233,304.400 339.789 C 302.530 340.596,300.280 341.499,299.400 341.794 C 298.520 342.090,296.450 342.908,294.800 343.613 C 293.150 344.318,291.080 345.135,290.200 345.428 C 287.098 346.464,285.076 347.241,283.472 348.016 C 282.580 348.447,281.609 348.800,281.315 348.800 C 281.021 348.800,279.548 349.420,278.042 350.179 L 275.304 351.558 273.906 349.479 C 273.137 348.335,272.372 347.157,272.206 346.860 C 271.996 346.485,276.544 341.658,287.093 331.060 C 295.446 322.667,308.023 310.033,315.041 302.984 C 328.077 289.890,344.850 273.393,346.090 272.446 C 346.673 272.001,347.052 272.051,348.537 272.770 C 351.972 274.432,352.116 275.469,349.598 280.404 C 349.159 281.264,348.798 282.200,348.796 282.484 C 348.794 282.768,348.350 283.900,347.809 285.000 C 347.268 286.100,346.819 287.231,346.813 287.513 C 346.806 287.796,346.350 288.915,345.800 290.000 C 345.250 291.085,344.800 292.223,344.800 292.527 C 344.800 292.832,344.379 293.873,343.865 294.840 C 343.351 295.808,342.826 297.050,342.698 297.600 C 342.422 298.786,341.359 301.716,340.593 303.400 C 339.749 305.254,338.016 309.603,337.325 311.600 C 336.983 312.590,336.454 313.755,336.151 314.189 C 334.217 316.958,335.915 328.502,338.336 329.039 C 338.921 329.169,339.967 329.528,340.660 329.838 C 341.354 330.147,342.121 330.400,342.366 330.400 C 342.611 330.400,343.123 330.559,343.505 330.753 C 344.903 331.464,346.245 331.996,348.200 332.613 C 349.997 333.181,351.671 333.865,353.695 334.859 C 354.077 335.046,354.617 335.202,354.895 335.204 C 355.173 335.206,356.300 335.650,357.400 336.191 C 359.209 337.081,359.898 337.176,364.622 337.187 L 369.843 337.200 371.058 335.900 C 373.422 333.371,373.718 332.759,376.427 324.800 C 376.914 323.370,377.737 321.366,378.256 320.346 C 378.775 319.326,379.202 318.246,379.204 317.946 C 379.206 317.646,379.650 316.500,380.191 315.400 C 380.732 314.300,381.181 313.119,381.187 312.775 C 381.194 312.431,381.650 311.217,382.200 310.077 C 382.750 308.937,383.200 307.857,383.200 307.677 C 383.200 307.497,383.650 306.417,384.200 305.277 C 384.750 304.137,385.200 302.951,385.200 302.643 C 385.200 302.334,385.648 301.298,386.195 300.341 C 386.743 299.383,387.193 298.206,387.195 297.724 C 387.198 297.242,387.353 296.752,387.541 296.637 C 387.728 296.521,388.195 295.565,388.578 294.513 C 388.961 293.461,389.707 291.650,390.237 290.489 C 390.767 289.328,391.200 288.059,391.200 287.669 C 391.200 287.279,391.378 286.782,391.596 286.564 C 392.937 285.223,392.969 283.211,392.963 200.200 C 392.957 117.835,392.909 114.749,391.614 113.454 C 391.386 113.226,391.200 112.795,391.200 112.495 C 391.200 112.196,390.775 111.017,390.255 109.875 C 389.735 108.734,389.078 107.170,388.795 106.400 C 388.512 105.630,388.016 104.370,387.693 103.600 C 387.369 102.830,386.844 101.570,386.525 100.800 C 386.207 100.030,385.796 99.040,385.613 98.600 C 385.430 98.160,385.056 97.170,384.780 96.400 C 384.505 95.630,384.016 94.370,383.693 93.600 C 383.369 92.830,382.844 91.570,382.525 90.800 C 382.207 90.030,381.796 89.040,381.613 88.600 C 381.430 88.160,381.056 87.170,380.780 86.400 C 380.505 85.630,380.019 84.370,379.699 83.600 C 379.380 82.830,378.969 81.840,378.786 81.400 C 378.604 80.960,378.193 79.970,377.873 79.200 C 377.554 78.430,376.985 76.765,376.609 75.500 C 376.233 74.235,375.762 73.200,375.563 73.200 C 375.363 73.200,375.200 72.815,375.200 72.345 C 375.200 70.940,372.061 64.922,370.754 63.822 C 368.940 62.297,361.561 62.303,357.400 63.833 C 355.860 64.400,353.880 65.122,353.000 65.437 C 352.120 65.753,350.937 66.270,350.370 66.587 C 349.804 66.903,347.980 67.606,346.317 68.149 C 344.654 68.692,342.519 69.510,341.572 69.968 C 340.625 70.426,339.446 70.800,338.953 70.800 C 335.690 70.800,334.078 81.704,336.600 86.725 C 337.150 87.820,337.600 88.921,337.600 89.171 C 337.600 89.422,338.050 90.515,338.600 91.600 C 339.150 92.685,339.601 93.804,339.602 94.087 C 339.604 94.369,339.873 95.115,340.201 95.744 C 340.530 96.373,341.060 97.633,341.379 98.544 C 342.967 103.068,344.062 105.822,344.412 106.172 C 344.625 106.385,344.800 106.890,344.800 107.293 C 344.800 107.697,345.250 108.915,345.800 110.000 C 346.350 111.085,346.806 112.204,346.813 112.487 C 346.819 112.769,347.268 113.900,347.809 115.000 C 348.350 116.100,348.794 117.232,348.796 117.516 C 348.798 117.800,349.155 118.728,349.589 119.579 C 350.377 121.122,351.583 124.327,351.594 124.905 C 351.602 125.298,347.388 128.000,346.767 128.000 C 345.599 128.000,271.966 54.937,272.022 53.832 C 272.185 50.562,276.134 48.371,278.927 50.002 C 279.627 50.411,281.190 51.123,282.400 51.584 C 284.728 52.471,285.584 52.819,287.200 53.537 C 287.750 53.782,289.100 54.266,290.200 54.613 C 291.997 55.181,293.671 55.865,295.695 56.859 C 296.077 57.046,296.617 57.202,296.895 57.204 C 297.173 57.206,298.300 57.650,299.400 58.191 C 300.500 58.732,301.670 59.186,302.000 59.200 C 302.330 59.214,302.949 59.490,303.376 59.813 C 303.804 60.136,304.494 60.400,304.911 60.400 C 305.327 60.400,306.947 61.030,308.510 61.800 C 310.073 62.570,311.903 63.206,312.576 63.213 C 313.249 63.220,314.149 63.490,314.576 63.813 C 315.482 64.498,324.856 64.663,326.539 64.023 C 327.612 63.615,329.721 60.812,330.167 59.200 C 330.591 57.670,332.345 53.238,333.429 50.960 C 333.963 49.838,334.400 48.711,334.400 48.456 C 334.400 48.200,334.749 47.228,335.175 46.296 C 337.123 42.031,337.200 41.638,337.200 36.006 L 337.200 30.509 335.217 28.655 C 334.127 27.635,332.979 26.800,332.666 26.800 C 332.354 26.800,331.898 26.560,331.655 26.266 C 331.411 25.972,330.444 25.498,329.506 25.213 C 328.568 24.928,326.900 24.286,325.800 23.787 C 324.700 23.288,323.080 22.583,322.200 22.220 C 321.320 21.858,320.330 21.427,320.000 21.262 C 319.670 21.097,318.320 20.631,317.000 20.225 C 314.195 19.364,312.997 18.908,311.538 18.151 C 310.954 17.848,310.196 17.600,309.852 17.600 C 309.509 17.600,308.422 17.150,307.437 16.600 C 306.452 16.050,305.363 15.600,305.018 15.600 C 304.386 15.600,304.062 15.467,301.738 14.257 C 301.044 13.896,300.195 13.600,299.850 13.600 C 299.506 13.600,298.565 13.230,297.760 12.778 C 296.955 12.325,295.464 11.685,294.448 11.355 C 293.432 11.025,292.060 10.514,291.400 10.220 C 290.740 9.925,289.660 9.460,289.000 9.186 C 288.340 8.912,287.260 8.457,286.600 8.175 C 283.719 6.945,281.019 6.747,270.400 6.986 C 257.270 7.282,143.843 7.302,128.800 7.011 C 121.866 6.877,117.578 6.944,117.200 7.193 M200.000 13.708 C 235.750 13.717,267.610 13.591,270.800 13.426 L 276.600 13.128 280.200 14.397 C 282.180 15.095,284.160 15.759,284.600 15.872 C 285.040 15.985,286.350 16.511,287.511 17.039 C 288.672 17.568,289.785 18.000,289.985 18.000 C 290.373 18.000,294.057 19.493,297.511 21.049 C 298.672 21.572,299.785 22.000,299.985 22.000 C 300.335 22.000,303.651 23.327,307.053 24.830 C 308.646 25.533,310.254 26.145,315.400 28.004 C 331.415 33.789,331.548 33.923,328.633 41.285 C 327.388 44.428,325.824 48.440,325.157 50.200 C 321.760 59.161,322.442 58.847,313.831 55.420 C 311.868 54.639,310.057 54.000,309.806 54.000 C 309.555 54.000,308.417 53.550,307.277 53.000 C 306.137 52.450,305.068 52.001,304.902 52.001 C 304.547 52.003,300.299 50.299,297.289 48.948 C 296.128 48.426,294.997 48.000,294.776 48.000 C 294.554 48.000,293.485 47.550,292.400 47.000 C 291.315 46.450,290.184 46.000,289.888 46.000 C 289.592 46.000,288.417 45.550,287.277 45.000 C 286.137 44.450,285.066 44.000,284.897 44.000 C 284.728 44.000,282.452 43.107,279.839 42.016 C 272.968 39.147,272.071 39.076,270.336 41.263 C 267.704 44.579,262.400 54.035,262.400 55.411 C 262.400 56.130,294.685 88.716,324.687 118.278 L 344.774 138.071 346.130 137.623 C 347.897 137.040,355.561 132.535,358.500 130.351 C 361.781 127.914,361.832 128.313,356.680 116.000 C 354.257 110.212,352.326 105.340,349.781 98.600 C 348.531 95.288,347.494 92.656,346.788 91.000 C 346.506 90.340,345.966 88.990,345.587 88.000 C 345.208 87.010,344.497 85.210,344.006 84.000 C 341.890 78.784,342.048 77.597,344.941 76.974 C 345.634 76.826,346.712 76.442,347.338 76.122 C 347.964 75.802,349.854 75.034,351.538 74.415 C 353.222 73.797,355.860 72.805,357.400 72.212 C 363.919 69.701,364.392 69.568,365.212 70.007 C 365.967 70.410,368.000 73.907,368.000 74.801 C 368.000 75.139,374.109 90.818,375.559 94.200 C 375.748 94.640,377.027 97.880,378.402 101.400 C 379.777 104.920,381.329 108.750,381.851 109.912 C 382.373 111.073,382.800 112.126,382.800 112.251 C 382.800 112.377,383.053 113.046,383.361 113.740 C 384.801 116.973,385.994 120.878,386.434 123.800 C 387.320 129.686,387.134 274.744,386.236 277.800 C 385.848 279.120,385.390 280.740,385.217 281.400 C 385.045 282.060,384.678 283.140,384.402 283.800 C 384.126 284.460,383.755 285.360,383.577 285.800 C 383.399 286.240,382.237 289.030,380.994 292.000 C 379.751 294.970,378.371 298.390,377.928 299.600 C 377.484 300.810,375.987 304.680,374.600 308.200 C 371.107 317.065,368.176 324.648,367.378 326.880 C 365.893 331.038,364.572 331.062,355.603 327.099 C 354.615 326.662,352.813 325.988,351.600 325.600 C 350.387 325.212,348.585 324.528,347.597 324.080 C 346.609 323.631,345.350 323.139,344.800 322.985 C 341.830 322.155,341.786 321.228,344.421 315.000 C 344.607 314.560,345.505 312.310,346.417 310.000 C 347.329 307.690,348.301 305.260,348.579 304.600 C 348.856 303.940,349.480 302.320,349.966 301.000 C 352.273 294.730,356.759 283.419,358.691 279.000 C 361.141 273.399,361.260 273.023,360.887 272.049 C 360.149 270.115,347.758 262.446,345.317 262.412 C 343.891 262.392,262.400 343.106,262.400 344.538 C 262.400 345.423,264.191 348.956,267.248 354.101 C 270.862 360.184,271.829 361.072,274.061 360.356 C 276.209 359.666,283.364 356.709,283.780 356.338 C 283.989 356.152,284.416 356.000,284.730 356.000 C 285.043 356.000,286.402 355.530,287.750 354.955 C 289.097 354.381,290.560 353.763,291.000 353.582 C 291.440 353.402,292.430 352.986,293.200 352.659 C 293.970 352.331,295.050 351.936,295.600 351.780 C 296.150 351.623,297.320 351.180,298.200 350.794 C 299.080 350.408,300.970 349.633,302.400 349.073 C 311.179 345.632,313.485 344.724,314.200 344.428 C 319.157 342.371,320.935 342.036,321.961 342.964 C 322.809 343.732,324.058 346.526,326.180 352.400 C 326.776 354.050,327.408 355.760,327.584 356.200 C 327.760 356.640,328.215 357.810,328.595 358.800 C 328.974 359.790,329.667 361.478,330.135 362.550 L 330.984 364.501 329.725 365.550 C 328.261 366.771,325.053 368.418,322.200 369.414 C 321.100 369.798,320.020 370.243,319.800 370.403 C 319.580 370.563,318.410 371.008,317.200 371.392 C 315.990 371.776,314.010 372.498,312.800 372.998 C 311.590 373.497,309.340 374.392,307.800 374.985 C 306.260 375.579,304.010 376.482,302.800 376.992 C 301.590 377.503,299.430 378.371,298.000 378.922 C 296.570 379.473,293.150 380.836,290.400 381.951 C 287.650 383.067,283.420 384.632,281.000 385.430 L 276.600 386.880 270.200 386.566 C 261.910 386.159,138.191 386.171,129.800 386.579 L 123.400 386.891 118.590 385.284 C 115.945 384.401,112.975 383.317,111.990 382.876 C 111.006 382.435,108.940 381.595,107.400 381.009 C 105.860 380.423,103.651 379.506,102.491 378.972 C 101.331 378.437,100.150 378.000,99.866 378.000 C 99.582 378.000,98.417 377.550,97.277 377.000 C 96.137 376.450,95.017 376.000,94.789 376.000 C 94.560 376.000,93.485 375.550,92.400 375.000 C 91.315 374.450,90.184 374.000,89.888 374.000 C 89.592 374.000,88.576 373.626,87.630 373.169 C 86.685 372.712,84.871 372.006,83.600 371.600 C 82.329 371.194,80.515 370.488,79.570 370.031 C 78.624 369.574,77.634 369.200,77.371 369.200 C 76.563 369.200,70.587 366.069,69.858 365.264 C 69.203 364.540,69.284 364.224,71.585 358.501 C 72.913 355.199,74.000 352.216,74.000 351.872 C 74.000 351.529,74.160 351.148,74.356 351.027 C 74.551 350.906,74.835 350.314,74.987 349.710 C 75.528 347.554,77.928 342.867,78.703 342.452 C 79.298 342.134,79.973 342.211,81.446 342.767 C 82.521 343.172,84.930 344.078,86.800 344.780 C 92.232 346.820,95.249 348.021,97.511 349.045 C 98.672 349.570,99.785 350.000,99.985 350.000 C 100.373 350.000,104.057 351.493,107.511 353.049 C 108.672 353.572,109.785 354.000,109.985 354.000 C 110.296 354.000,113.597 355.294,116.200 356.437 C 124.478 360.071,127.405 360.946,128.620 360.150 C 130.213 359.106,137.600 346.289,137.600 344.569 C 137.600 343.830,58.020 264.018,55.897 262.627 C 54.856 261.944,54.786 261.960,51.919 263.495 C 46.262 266.524,42.984 268.525,41.499 269.855 C 40.673 270.595,39.818 271.200,39.599 271.200 C 38.488 271.200,39.436 275.138,41.718 280.000 C 43.089 282.921,45.888 289.832,48.198 296.000 C 50.767 302.859,51.941 305.834,53.052 308.311 C 53.574 309.472,54.000 310.599,54.000 310.816 C 54.000 311.033,54.176 311.523,54.392 311.905 C 55.353 313.608,57.600 319.857,57.600 320.829 C 57.600 322.152,57.225 322.446,54.200 323.498 C 50.614 324.744,45.584 326.626,44.000 327.314 C 34.892 331.266,33.702 330.979,31.757 324.357 C 31.184 322.404,29.552 318.116,28.195 315.000 C 27.908 314.340,27.094 312.270,26.387 310.400 C 25.680 308.530,24.612 305.920,24.015 304.600 C 23.417 303.280,22.796 301.666,22.635 301.014 C 22.377 299.971,21.575 297.968,20.386 295.400 C 19.676 293.866,15.504 283.382,14.655 281.000 L 13.800 278.600 13.800 200.400 C 13.800 134.523,13.888 121.885,14.361 120.200 C 14.896 118.293,18.926 108.036,20.806 103.800 C 21.294 102.700,22.188 100.450,22.793 98.800 C 23.399 97.150,25.516 91.750,27.498 86.800 C 29.481 81.850,31.331 77.080,31.609 76.200 C 33.524 70.154,34.968 68.999,38.600 70.606 C 40.623 71.501,46.364 73.686,54.168 76.532 C 58.300 78.039,58.373 78.505,55.557 85.400 C 54.659 87.600,53.778 89.760,53.600 90.200 C 53.422 90.640,52.531 92.818,51.620 95.039 C 50.709 97.260,49.626 100.140,49.213 101.439 C 48.531 103.586,43.343 116.526,41.210 121.400 C 38.853 126.785,38.674 128.369,40.300 129.417 C 40.905 129.807,41.940 130.561,42.600 131.093 C 45.068 133.083,54.071 138.000,55.247 138.000 C 55.628 138.000,120.564 73.280,132.751 60.753 C 138.466 54.879,138.287 55.701,135.084 50.000 C 133.909 47.910,132.450 45.300,131.841 44.200 C 131.231 43.100,130.047 41.537,129.210 40.726 L 127.687 39.252 125.943 39.796 C 124.985 40.094,121.500 41.454,118.200 42.818 C 114.900 44.181,111.120 45.711,109.800 46.218 C 108.480 46.725,106.500 47.486,105.400 47.909 C 101.889 49.258,95.048 52.025,93.600 52.682 C 92.830 53.031,90.490 53.934,88.400 54.688 C 86.310 55.442,83.700 56.400,82.600 56.817 C 80.085 57.769,78.695 57.794,77.907 56.900 C 77.297 56.207,74.000 48.617,74.000 47.904 C 74.000 47.700,73.010 45.059,71.800 42.035 C 70.590 39.011,69.600 36.251,69.600 35.904 C 69.600 34.183,76.418 30.624,84.000 28.388 C 84.990 28.096,86.458 27.534,87.263 27.139 C 88.067 26.745,89.417 26.172,90.263 25.867 C 91.108 25.562,95.490 23.820,100.000 21.996 C 113.092 16.701,118.832 14.558,122.000 13.783 C 123.567 13.399,125.755 13.309,129.600 13.468 C 132.570 13.591,164.250 13.699,200.000 13.708 M158.603 37.595 C 158.109 38.394,167.782 56.657,169.418 58.015 C 169.738 58.281,170.000 58.879,170.000 59.344 C 170.000 60.713,60.519 170.000,59.148 170.000 C 58.533 170.000,57.283 169.346,56.106 168.408 C 52.470 165.514,40.442 159.080,39.040 159.280 L 38.200 159.400 38.200 200.000 L 38.200 240.600 39.109 240.729 C 40.348 240.905,50.953 235.348,55.067 232.367 C 56.865 231.065,58.755 229.997,59.267 229.992 C 60.257 229.984,170.000 339.394,170.000 340.388 C 170.000 340.653,169.088 342.249,167.974 343.935 C 165.644 347.460,158.292 361.901,158.585 362.376 C 159.222 363.406,241.600 363.269,241.600 362.237 C 241.600 361.828,236.367 351.299,233.990 346.926 C 233.489 346.006,232.377 344.324,231.518 343.190 C 230.028 341.221,229.985 341.082,230.582 340.172 C 233.145 336.259,338.727 230.611,340.505 230.179 C 341.407 229.960,341.995 230.207,343.705 231.521 C 348.062 234.869,359.427 240.938,360.938 240.723 C 362.864 240.448,363.026 159.642,361.102 159.275 C 359.717 159.011,347.167 165.691,343.946 168.407 C 340.547 171.273,346.045 176.236,285.105 115.291 C 246.838 77.022,230.400 60.327,230.400 59.734 C 230.400 59.268,231.345 57.372,232.500 55.521 C 234.931 51.624,241.152 39.380,241.300 38.200 C 241.414 37.291,159.163 36.690,158.603 37.595 M229.600 43.325 C 229.600 43.667,225.974 50.450,224.867 52.178 L 223.600 54.157 223.600 59.763 L 223.600 65.369 279.123 120.913 L 334.647 176.457 341.059 176.329 L 347.471 176.200 349.962 174.159 C 351.332 173.036,353.161 171.719,354.027 171.233 L 355.600 170.349 355.600 199.974 C 355.600 216.268,355.512 229.600,355.404 229.600 C 355.125 229.600,350.097 226.232,348.241 224.801 L 346.681 223.600 340.642 223.600 L 334.603 223.600 279.102 279.102 L 223.600 334.603 223.600 340.273 C 223.600 344.627,223.731 346.074,224.166 346.509 C 224.642 346.985,229.600 356.248,229.600 356.662 C 229.600 356.738,216.280 356.800,200.000 356.800 C 183.720 356.800,170.400 356.721,170.400 356.625 C 170.400 356.346,174.158 349.453,175.539 347.200 C 176.307 345.946,176.397 345.221,176.399 340.267 L 176.400 334.735 121.010 279.377 C 88.664 247.051,65.220 223.920,64.659 223.779 C 64.130 223.646,61.187 223.597,58.118 223.669 L 52.537 223.800 50.512 225.600 C 49.398 226.590,47.567 227.905,46.443 228.523 L 44.400 229.646 44.400 200.023 C 44.400 183.730,44.480 170.400,44.577 170.400 C 45.006 170.400,50.000 173.722,50.000 174.007 C 50.000 175.594,53.646 176.456,59.819 176.328 L 66.000 176.200 98.827 143.400 C 116.882 125.360,141.722 100.404,154.027 87.943 L 176.400 65.285 176.400 59.671 C 176.400 55.733,176.251 53.897,175.900 53.520 C 175.625 53.224,174.702 51.636,173.850 49.991 C 172.997 48.346,172.087 46.730,171.827 46.400 C 171.376 45.827,170.400 43.762,170.400 43.381 C 170.400 43.282,183.720 43.200,200.000 43.200 C 216.280 43.200,229.600 43.256,229.600 43.325 M137.631 113.500 C 136.184 114.985,134.640 116.730,134.200 117.378 C 133.249 118.779,128.511 124.185,124.600 128.331 C 121.938 131.153,116.794 135.735,113.651 138.084 C 110.640 140.333,110.800 139.785,110.800 147.834 L 110.800 155.128 112.351 157.064 C 113.204 158.129,114.554 159.620,115.351 160.378 C 116.901 161.853,117.210 163.296,116.326 164.926 C 115.730 166.025,115.186 168.696,114.925 171.800 C 114.814 173.120,114.521 174.446,114.273 174.748 C 112.678 176.687,112.607 222.392,114.196 224.800 C 114.414 225.130,114.716 226.570,114.868 228.000 C 115.242 231.523,115.757 234.024,116.326 235.074 C 117.210 236.704,116.901 238.147,115.351 239.622 C 114.554 240.380,113.204 241.871,112.351 242.936 L 110.800 244.872 110.800 252.166 C 110.800 260.469,110.351 259.349,115.200 263.134 C 120.525 267.291,129.293 276.209,134.000 282.257 C 139.335 289.111,139.666 289.283,147.080 289.071 C 155.843 288.819,158.400 288.169,158.400 286.193 C 158.400 284.647,160.291 283.894,162.876 284.410 C 164.264 284.688,166.390 284.997,167.600 285.097 C 168.810 285.197,170.047 285.482,170.349 285.730 C 171.004 286.266,174.518 286.790,179.200 287.049 C 181.070 287.153,183.167 287.499,183.860 287.819 C 185.721 288.677,214.279 288.677,216.140 287.819 C 216.833 287.499,218.930 287.153,220.800 287.049 C 225.634 286.782,229.888 286.190,230.487 285.701 C 230.769 285.471,231.900 285.192,233.000 285.081 C 234.100 284.970,235.900 284.666,237.000 284.406 C 240.027 283.689,240.077 283.699,241.034 285.200 C 242.754 287.898,243.433 288.400,245.362 288.400 C 246.347 288.400,247.264 288.580,247.400 288.800 C 247.547 289.038,250.082 289.200,253.658 289.200 L 259.669 289.200 262.290 286.700 C 263.731 285.325,265.227 283.689,265.613 283.064 C 268.568 278.283,284.674 262.212,287.602 261.123 C 288.992 260.605,289.200 259.427,289.200 252.062 L 289.200 244.872 287.649 242.936 C 286.796 241.871,285.446 240.380,284.649 239.622 C 283.185 238.228,282.752 236.608,283.614 235.746 C 284.114 235.246,284.805 231.872,285.077 228.600 C 285.187 227.280,285.481 225.951,285.731 225.647 C 287.375 223.648,287.370 176.742,285.725 174.748 C 285.477 174.446,285.184 173.030,285.075 171.600 C 284.829 168.370,284.294 165.670,283.674 164.526 C 282.753 162.827,283.132 161.960,286.200 158.749 L 289.200 155.609 289.200 148.074 C 289.200 139.480,289.676 140.665,284.663 136.769 C 280.484 133.522,270.298 123.382,268.400 120.580 C 267.450 119.177,263.173 114.389,261.200 112.519 L 259.400 110.814 253.828 110.807 C 250.764 110.803,247.704 110.975,247.028 111.188 C 246.353 111.402,245.124 111.680,244.299 111.806 C 243.063 111.996,242.660 112.306,242.022 113.557 C 241.018 115.525,239.477 116.576,238.422 116.012 C 237.999 115.785,237.021 115.600,236.250 115.600 C 235.478 115.600,234.736 115.420,234.600 115.200 C 234.464 114.980,233.632 114.800,232.750 114.800 C 231.869 114.800,230.760 114.593,230.287 114.339 C 229.220 113.769,225.283 113.191,220.800 112.947 C 218.930 112.846,216.833 112.501,216.140 112.181 C 214.279 111.323,185.721 111.323,183.860 112.181 C 183.167 112.501,181.070 112.846,179.200 112.947 C 174.988 113.176,170.690 113.773,169.955 114.231 C 169.650 114.421,168.500 114.706,167.400 114.865 C 166.300 115.024,164.323 115.353,163.007 115.597 C 159.793 116.192,159.132 115.955,158.102 113.835 C 157.353 112.293,157.019 112.007,155.715 111.790 C 154.882 111.652,153.678 111.372,153.040 111.169 C 152.402 110.966,149.266 110.800,146.071 110.800 L 140.262 110.800 137.631 113.500 M147.681 117.572 C 148.187 117.777,149.140 118.059,149.800 118.199 C 150.588 118.365,152.050 119.541,154.061 121.626 C 157.498 125.191,157.445 125.175,161.907 123.953 C 163.608 123.487,165.630 122.934,166.400 122.723 C 167.170 122.512,168.520 122.191,169.400 122.009 C 170.280 121.828,172.440 121.369,174.200 120.991 C 178.780 120.006,180.876 119.672,185.400 119.208 C 187.600 118.983,190.604 118.619,192.077 118.399 C 195.988 117.816,205.079 117.912,209.746 118.585 C 211.975 118.907,215.600 119.381,217.800 119.639 C 220.000 119.896,222.970 120.358,224.400 120.666 C 225.830 120.974,229.021 121.657,231.491 122.184 C 233.961 122.711,236.164 123.254,236.386 123.392 C 236.998 123.770,241.130 124.800,242.034 124.800 C 242.770 124.800,246.229 121.630,248.270 119.085 C 248.868 118.338,249.515 118.000,250.344 118.000 C 251.006 118.000,252.020 117.821,252.596 117.601 C 254.554 116.857,255.756 117.885,262.200 125.817 C 266.481 131.086,271.934 136.745,275.600 139.722 C 280.861 143.995,283.019 146.255,282.469 146.917 C 282.205 147.234,282.022 148.352,282.062 149.400 C 282.137 151.391,280.171 153.773,275.602 157.225 L 274.246 158.250 274.963 160.625 C 275.357 161.931,275.830 163.720,276.014 164.600 C 276.198 165.480,276.703 167.550,277.135 169.200 C 281.060 184.174,281.962 206.491,279.245 221.400 C 278.262 226.792,275.140 239.526,274.578 240.436 C 274.064 241.268,274.806 242.622,276.181 243.362 C 281.366 246.153,284.131 253.002,281.098 255.542 C 280.404 256.124,279.378 257.028,278.818 257.551 C 278.258 258.075,276.630 259.449,275.200 260.605 C 271.795 263.358,266.196 269.212,262.200 274.199 C 256.688 281.079,254.675 282.945,253.116 282.625 C 252.392 282.476,251.127 282.256,250.303 282.136 C 249.104 281.960,248.534 281.548,247.434 280.058 C 244.759 276.436,243.033 275.066,241.532 275.369 C 240.799 275.517,239.570 275.741,238.800 275.866 C 238.030 275.992,237.220 276.227,237.000 276.388 C 236.633 276.658,234.714 277.143,228.200 278.613 C 221.663 280.088,217.092 280.793,213.923 280.814 C 212.755 280.822,210.720 281.089,209.400 281.408 C 206.576 282.090,193.398 282.230,191.206 281.602 C 190.442 281.383,188.374 281.106,186.609 280.987 C 184.844 280.869,182.500 280.608,181.400 280.408 C 180.300 280.208,178.050 279.838,176.400 279.586 C 174.750 279.334,172.674 278.874,171.787 278.564 C 170.899 278.254,169.650 278.000,169.010 278.000 C 168.371 278.000,166.307 277.531,164.424 276.958 C 158.097 275.032,158.240 275.055,156.890 275.753 C 156.210 276.105,154.615 277.655,153.347 279.197 C 151.940 280.907,150.739 282.000,150.267 282.000 C 149.841 282.000,148.812 282.204,147.980 282.453 C 145.997 283.047,144.401 282.101,141.614 278.677 C 136.307 272.156,134.619 270.269,129.580 265.226 C 126.600 262.242,122.693 258.566,120.899 257.057 L 117.638 254.314 117.867 251.657 C 118.110 248.839,121.329 244.633,124.541 242.939 C 125.889 242.228,125.914 242.523,123.828 234.600 C 118.626 214.835,117.859 191.462,121.832 173.784 C 122.902 169.025,123.071 168.338,124.431 163.226 L 125.755 158.252 124.182 157.026 C 119.269 153.197,118.093 151.617,117.865 148.545 L 117.654 145.691 120.599 143.145 C 122.219 141.745,124.832 139.520,126.405 138.200 C 129.251 135.812,132.641 132.168,137.600 126.162 C 140.917 122.145,145.724 117.200,146.310 117.200 C 146.559 117.200,147.176 117.368,147.681 117.572 M190.879 144.412 C 190.373 144.620,188.213 144.973,186.079 145.198 C 181.902 145.639,180.255 145.922,175.600 147.000 C 173.950 147.382,171.880 147.833,171.000 148.003 C 166.536 148.862,153.773 152.966,152.737 153.875 C 151.907 154.604,150.486 157.866,150.025 160.104 C 149.832 161.037,149.377 162.790,149.013 164.000 C 146.989 170.731,145.876 175.817,145.220 181.330 C 145.016 183.051,144.671 184.673,144.455 184.934 C 144.239 185.194,143.969 187.026,143.855 189.004 C 143.741 190.982,143.426 194.567,143.155 196.971 C 142.760 200.466,142.763 202.031,143.168 204.771 C 143.446 206.657,143.812 209.730,143.980 211.600 C 144.306 215.211,145.007 219.401,145.625 221.428 C 145.831 222.104,145.996 223.004,145.991 223.428 C 145.980 224.302,147.662 231.396,149.019 236.200 C 152.123 247.194,151.257 246.274,161.400 249.361 C 176.956 254.095,186.082 255.685,199.000 255.915 C 204.060 256.005,208.195 255.894,209.400 255.636 C 210.500 255.400,212.930 255.013,214.800 254.775 C 221.169 253.966,226.659 252.870,231.600 251.421 C 232.590 251.131,234.210 250.672,235.200 250.400 C 246.411 247.325,247.914 246.491,249.171 242.643 C 250.593 238.292,253.464 227.591,254.064 224.400 C 255.146 218.649,255.644 215.501,256.015 212.051 C 256.236 209.990,256.589 207.560,256.799 206.651 C 257.309 204.442,257.303 195.720,256.789 193.320 C 256.564 192.264,256.213 189.870,256.011 188.000 C 255.247 180.943,253.053 170.333,250.839 163.000 C 250.375 161.460,249.707 159.210,249.355 158.000 C 248.227 154.123,247.538 153.552,241.732 151.692 C 233.010 148.898,229.977 148.000,229.275 148.004 C 228.904 148.007,226.710 147.562,224.400 147.016 C 222.090 146.469,218.940 145.847,217.400 145.632 C 215.860 145.418,213.250 145.019,211.600 144.747 C 207.944 144.143,192.159 143.888,190.879 144.412 M206.795 151.043 C 208.882 151.162,210.842 151.469,211.151 151.725 C 211.460 151.982,212.812 152.321,214.156 152.480 C 218.097 152.946,219.769 153.270,220.263 153.666 C 220.722 154.034,223.526 154.656,226.600 155.073 C 227.480 155.192,228.387 155.440,228.616 155.624 C 229.123 156.031,232.050 156.808,234.124 157.085 C 234.962 157.197,236.456 157.719,237.445 158.244 C 238.433 158.770,239.593 159.200,240.021 159.200 C 241.553 159.200,243.600 162.976,243.600 165.801 C 243.600 166.174,243.842 167.046,244.139 167.740 C 245.017 169.796,245.600 171.796,245.600 172.755 C 245.600 173.249,245.813 174.046,246.074 174.526 C 246.568 175.438,247.003 177.404,247.576 181.308 C 247.762 182.577,248.097 183.837,248.320 184.108 C 248.719 184.591,248.880 185.906,249.494 193.681 C 249.665 195.854,250.020 197.782,250.300 198.061 C 250.941 198.701,250.947 200.893,250.310 201.530 C 250.037 201.803,249.677 203.837,249.499 206.110 C 248.869 214.178,248.721 215.407,248.320 215.892 C 248.097 216.163,247.761 217.423,247.573 218.692 C 246.973 222.740,246.746 223.771,246.166 225.060 C 245.855 225.754,245.600 226.731,245.600 227.232 C 245.600 228.202,245.021 230.196,244.139 232.260 C 243.842 232.954,243.600 233.826,243.600 234.199 C 243.600 235.463,242.355 239.167,241.676 239.924 C 240.996 240.682,233.584 243.270,230.600 243.792 C 229.720 243.946,228.820 244.211,228.600 244.382 C 228.380 244.552,227.480 244.802,226.600 244.936 C 223.642 245.388,221.089 245.995,220.643 246.351 C 220.163 246.735,218.622 247.023,214.077 247.581 C 212.470 247.778,210.940 248.115,210.677 248.330 C 209.176 249.557,191.258 249.438,188.540 248.182 C 187.846 247.862,186.282 247.600,185.063 247.600 C 183.844 247.600,182.736 247.420,182.600 247.200 C 182.464 246.980,181.983 246.800,181.530 246.800 C 181.078 246.800,179.783 246.511,178.654 246.157 C 174.855 244.968,174.148 244.800,172.952 244.800 C 172.296 244.800,171.589 244.644,171.380 244.453 C 171.171 244.262,169.560 243.789,167.800 243.402 C 166.040 243.015,163.811 242.334,162.847 241.888 C 161.883 241.442,160.538 240.964,159.859 240.825 C 158.313 240.508,156.400 236.753,156.400 234.032 C 156.400 233.531,156.153 232.554,155.852 231.860 C 155.550 231.167,155.089 229.790,154.827 228.800 C 154.565 227.810,154.161 226.460,153.929 225.800 C 153.483 224.530,152.996 222.090,152.429 218.292 C 152.240 217.023,151.903 215.763,151.681 215.492 C 151.268 214.990,151.061 213.344,150.499 206.110 C 150.322 203.834,149.963 201.803,149.690 201.530 C 149.060 200.900,149.058 199.102,149.686 198.474 C 149.954 198.206,150.319 196.235,150.498 194.094 C 150.677 191.952,150.925 189.030,151.049 187.600 C 151.173 186.170,151.456 184.778,151.680 184.508 C 151.903 184.237,152.253 182.887,152.458 181.508 C 153.143 176.898,153.301 176.204,153.852 175.411 C 154.153 174.977,154.400 174.090,154.400 173.439 C 154.400 172.239,154.998 169.990,155.665 168.680 C 155.867 168.284,156.213 167.114,156.435 166.080 C 156.657 165.046,156.990 163.506,157.174 162.657 C 157.701 160.225,160.901 158.200,165.600 157.326 C 166.150 157.223,166.960 156.995,167.400 156.819 C 168.208 156.494,171.506 155.741,173.904 155.333 C 174.621 155.211,175.306 154.951,175.427 154.756 C 175.548 154.560,176.194 154.400,176.863 154.400 C 177.532 154.400,178.646 154.144,179.340 153.831 C 180.582 153.270,181.121 153.167,186.538 152.448 C 188.044 152.248,189.475 151.885,189.718 151.642 C 189.973 151.387,191.637 151.200,193.656 151.200 C 195.730 151.200,197.262 151.024,197.420 150.768 C 197.594 150.487,198.617 150.421,200.344 150.581 C 201.805 150.716,204.708 150.924,206.795 151.043 " stroke="none" fill="#640404" fill-rule="evenodd"></path><path id="path1" d="M122.000 13.783 C 118.832 14.558,113.092 16.701,100.000 21.996 C 95.490 23.820,91.108 25.562,90.263 25.867 C 89.417 26.172,88.067 26.745,87.263 27.139 C 86.458 27.534,84.990 28.096,84.000 28.388 C 76.418 30.624,69.600 34.183,69.600 35.904 C 69.600 36.251,70.590 39.011,71.800 42.035 C 73.010 45.059,74.000 47.700,74.000 47.904 C 74.000 48.617,77.297 56.207,77.907 56.900 C 78.695 57.794,80.085 57.769,82.600 56.817 C 83.700 56.400,86.310 55.442,88.400 54.688 C 90.490 53.934,92.830 53.031,93.600 52.682 C 95.048 52.025,101.889 49.258,105.400 47.909 C 106.500 47.486,108.480 46.725,109.800 46.218 C 111.120 45.711,114.900 44.181,118.200 42.818 C 121.500 41.454,124.985 40.094,125.943 39.796 L 127.687 39.252 129.210 40.726 C 130.047 41.537,131.231 43.100,131.841 44.200 C 132.450 45.300,133.909 47.910,135.084 50.000 C 138.287 55.701,138.466 54.879,132.751 60.753 C 120.564 73.280,55.628 138.000,55.247 138.000 C 54.071 138.000,45.068 133.083,42.600 131.093 C 41.940 130.561,40.905 129.807,40.300 129.417 C 38.674 128.369,38.853 126.785,41.210 121.400 C 43.343 116.526,48.531 103.586,49.213 101.439 C 49.626 100.140,50.709 97.260,51.620 95.039 C 52.531 92.818,53.422 90.640,53.600 90.200 C 53.778 89.760,54.659 87.600,55.557 85.400 C 58.373 78.505,58.300 78.039,54.168 76.532 C 46.364 73.686,40.623 71.501,38.600 70.606 C 34.968 68.999,33.524 70.154,31.609 76.200 C 31.331 77.080,29.481 81.850,27.498 86.800 C 25.516 91.750,23.399 97.150,22.793 98.800 C 22.188 100.450,21.294 102.700,20.806 103.800 C 18.926 108.036,14.896 118.293,14.361 120.200 C 13.888 121.885,13.800 134.523,13.800 200.400 L 13.800 278.600 14.655 281.000 C 15.504 283.382,19.676 293.866,20.386 295.400 C 21.575 297.968,22.377 299.971,22.635 301.014 C 22.796 301.666,23.417 303.280,24.015 304.600 C 24.612 305.920,25.680 308.530,26.387 310.400 C 27.094 312.270,27.908 314.340,28.195 315.000 C 29.552 318.116,31.184 322.404,31.757 324.357 C 33.702 330.979,34.892 331.266,44.000 327.314 C 45.584 326.626,50.614 324.744,54.200 323.498 C 57.225 322.446,57.600 322.152,57.600 320.829 C 57.600 319.857,55.353 313.608,54.392 311.905 C 54.176 311.523,54.000 311.033,54.000 310.816 C 54.000 310.599,53.574 309.472,53.052 308.311 C 51.941 305.834,50.767 302.859,48.198 296.000 C 45.888 289.832,43.089 282.921,41.718 280.000 C 39.436 275.138,38.488 271.200,39.599 271.200 C 39.818 271.200,40.673 270.595,41.499 269.855 C 42.984 268.525,46.262 266.524,51.919 263.495 C 54.786 261.960,54.856 261.944,55.897 262.627 C 58.020 264.018,137.600 343.830,137.600 344.569 C 137.600 346.289,130.213 359.106,128.620 360.150 C 127.405 360.946,124.478 360.071,116.200 356.437 C 113.597 355.294,110.296 354.000,109.985 354.000 C 109.785 354.000,108.672 353.572,107.511 353.049 C 104.057 351.493,100.373 350.000,99.985 350.000 C 99.785 350.000,98.672 349.570,97.511 349.045 C 95.249 348.021,92.232 346.820,86.800 344.780 C 84.930 344.078,82.521 343.172,81.446 342.767 C 79.973 342.211,79.298 342.134,78.703 342.452 C 77.928 342.867,75.528 347.554,74.987 349.710 C 74.835 350.314,74.551 350.906,74.356 351.027 C 74.160 351.148,74.000 351.529,74.000 351.872 C 74.000 352.216,72.913 355.199,71.585 358.501 C 69.284 364.224,69.203 364.540,69.858 365.264 C 70.587 366.069,76.563 369.200,77.371 369.200 C 77.634 369.200,78.624 369.574,79.570 370.031 C 80.515 370.488,82.329 371.194,83.600 371.600 C 84.871 372.006,86.685 372.712,87.630 373.169 C 88.576 373.626,89.592 374.000,89.888 374.000 C 90.184 374.000,91.315 374.450,92.400 375.000 C 93.485 375.550,94.560 376.000,94.789 376.000 C 95.017 376.000,96.137 376.450,97.277 377.000 C 98.417 377.550,99.582 378.000,99.866 378.000 C 100.150 378.000,101.331 378.437,102.491 378.972 C 103.651 379.506,105.860 380.423,107.400 381.009 C 108.940 381.595,111.006 382.435,111.990 382.876 C 112.975 383.317,115.945 384.401,118.590 385.284 L 123.400 386.891 129.800 386.579 C 138.191 386.171,261.910 386.159,270.200 386.566 L 276.600 386.880 281.000 385.430 C 283.420 384.632,287.650 383.067,290.400 381.951 C 293.150 380.836,296.570 379.473,298.000 378.922 C 299.430 378.371,301.590 377.503,302.800 376.992 C 304.010 376.482,306.260 375.579,307.800 374.985 C 309.340 374.392,311.590 373.497,312.800 372.998 C 314.010 372.498,315.990 371.776,317.200 371.392 C 318.410 371.008,319.580 370.563,319.800 370.403 C 320.020 370.243,321.100 369.798,322.200 369.414 C 325.053 368.418,328.261 366.771,329.725 365.550 L 330.984 364.501 330.135 362.550 C 329.667 361.478,328.974 359.790,328.595 358.800 C 328.215 357.810,327.760 356.640,327.584 356.200 C 327.408 355.760,326.776 354.050,326.180 352.400 C 324.058 346.526,322.809 343.732,321.961 342.964 C 320.935 342.036,319.157 342.371,314.200 344.428 C 313.485 344.724,311.179 345.632,302.400 349.073 C 300.970 349.633,299.080 350.408,298.200 350.794 C 297.320 351.180,296.150 351.623,295.600 351.780 C 295.050 351.936,293.970 352.331,293.200 352.659 C 292.430 352.986,291.440 353.402,291.000 353.582 C 290.560 353.763,289.097 354.381,287.750 354.955 C 286.402 355.530,285.043 356.000,284.730 356.000 C 284.416 356.000,283.989 356.152,283.780 356.338 C 283.364 356.709,276.209 359.666,274.061 360.356 C 271.829 361.072,270.862 360.184,267.248 354.101 C 264.191 348.956,262.400 345.423,262.400 344.538 C 262.400 343.106,343.891 262.392,345.317 262.412 C 347.758 262.446,360.149 270.115,360.887 272.049 C 361.260 273.023,361.141 273.399,358.691 279.000 C 356.759 283.419,352.273 294.730,349.966 301.000 C 349.480 302.320,348.856 303.940,348.579 304.600 C 348.301 305.260,347.329 307.690,346.417 310.000 C 345.505 312.310,344.607 314.560,344.421 315.000 C 341.786 321.228,341.830 322.155,344.800 322.985 C 345.350 323.139,346.609 323.631,347.597 324.080 C 348.585 324.528,350.387 325.212,351.600 325.600 C 352.813 325.988,354.615 326.662,355.603 327.099 C 364.572 331.062,365.893 331.038,367.378 326.880 C 368.176 324.648,371.107 317.065,374.600 308.200 C 375.987 304.680,377.484 300.810,377.928 299.600 C 378.371 298.390,379.751 294.970,380.994 292.000 C 382.237 289.030,383.399 286.240,383.577 285.800 C 383.755 285.360,384.126 284.460,384.402 283.800 C 384.678 283.140,385.045 282.060,385.217 281.400 C 385.390 280.740,385.848 279.120,386.236 277.800 C 387.134 274.744,387.320 129.686,386.434 123.800 C 385.994 120.878,384.801 116.973,383.361 113.740 C 383.053 113.046,382.800 112.377,382.800 112.251 C 382.800 112.126,382.373 111.073,381.851 109.912 C 381.329 108.750,379.777 104.920,378.402 101.400 C 377.027 97.880,375.748 94.640,375.559 94.200 C 374.109 90.818,368.000 75.139,368.000 74.801 C 368.000 73.907,365.967 70.410,365.212 70.007 C 364.392 69.568,363.919 69.701,357.400 72.212 C 355.860 72.805,353.222 73.797,351.538 74.415 C 349.854 75.034,347.964 75.802,347.338 76.122 C 346.712 76.442,345.634 76.826,344.941 76.974 C 342.048 77.597,341.890 78.784,344.006 84.000 C 344.497 85.210,345.208 87.010,345.587 88.000 C 345.966 88.990,346.506 90.340,346.788 91.000 C 347.494 92.656,348.531 95.288,349.781 98.600 C 352.326 105.340,354.257 110.212,356.680 116.000 C 361.832 128.313,361.781 127.914,358.500 130.351 C 355.561 132.535,347.897 137.040,346.130 137.623 L 344.774 138.071 324.687 118.278 C 294.685 88.716,262.400 56.130,262.400 55.411 C 262.400 54.035,267.704 44.579,270.336 41.263 C 272.071 39.076,272.968 39.147,279.839 42.016 C 282.452 43.107,284.728 44.000,284.897 44.000 C 285.066 44.000,286.137 44.450,287.277 45.000 C 288.417 45.550,289.592 46.000,289.888 46.000 C 290.184 46.000,291.315 46.450,292.400 47.000 C 293.485 47.550,294.554 48.000,294.776 48.000 C 294.997 48.000,296.128 48.426,297.289 48.948 C 300.299 50.299,304.547 52.003,304.902 52.001 C 305.068 52.001,306.137 52.450,307.277 53.000 C 308.417 53.550,309.555 54.000,309.806 54.000 C 310.057 54.000,311.868 54.639,313.831 55.420 C 322.442 58.847,321.760 59.161,325.157 50.200 C 325.824 48.440,327.388 44.428,328.633 41.285 C 331.548 33.923,331.415 33.789,315.400 28.004 C 310.254 26.145,308.646 25.533,307.053 24.830 C 303.651 23.327,300.335 22.000,299.985 22.000 C 299.785 22.000,298.672 21.572,297.511 21.049 C 294.057 19.493,290.373 18.000,289.985 18.000 C 289.785 18.000,288.672 17.568,287.511 17.039 C 286.350 16.511,285.040 15.985,284.600 15.872 C 284.160 15.759,282.180 15.095,280.200 14.397 L 276.600 13.128 270.800 13.426 C 264.150 13.769,137.770 13.806,129.600 13.468 C 125.755 13.309,123.567 13.399,122.000 13.783 M241.300 38.200 C 241.152 39.380,234.931 51.624,232.500 55.521 C 231.345 57.372,230.400 59.268,230.400 59.734 C 230.400 60.327,246.838 77.022,285.105 115.291 C 346.045 176.236,340.547 171.273,343.946 168.407 C 347.167 165.691,359.717 159.011,361.102 159.275 C 362.132 159.472,362.310 165.136,362.301 197.400 C 362.291 234.254,362.093 240.558,360.938 240.723 C 359.427 240.938,348.062 234.869,343.705 231.521 C 341.995 230.207,341.407 229.960,340.505 230.179 C 338.727 230.611,233.145 336.259,230.582 340.172 C 229.985 341.082,230.028 341.221,231.518 343.190 C 232.377 344.324,233.489 346.006,233.990 346.926 C 236.367 351.299,241.600 361.828,241.600 362.237 C 241.600 363.269,159.222 363.406,158.585 362.376 C 158.292 361.901,165.644 347.460,167.974 343.935 C 169.088 342.249,170.000 340.653,170.000 340.388 C 170.000 339.394,60.257 229.984,59.267 229.992 C 58.755 229.997,56.865 231.065,55.067 232.367 C 50.953 235.348,40.348 240.905,39.109 240.729 L 38.200 240.600 38.200 200.000 L 38.200 159.400 39.040 159.280 C 40.442 159.080,52.470 165.514,56.106 168.408 C 57.283 169.346,58.533 170.000,59.148 170.000 C 60.519 170.000,170.000 60.713,170.000 59.344 C 170.000 58.879,169.738 58.281,169.418 58.015 C 167.782 56.657,158.109 38.394,158.603 37.595 C 159.163 36.690,241.414 37.291,241.300 38.200 M143.029 120.107 C 141.473 121.706,139.030 124.431,137.600 126.162 C 132.641 132.168,129.251 135.812,126.405 138.200 C 124.832 139.520,122.219 141.745,120.599 143.145 L 117.654 145.691 117.865 148.545 C 118.093 151.617,119.269 153.197,124.182 157.026 L 125.755 158.252 124.431 163.226 C 123.071 168.338,122.902 169.025,121.832 173.784 C 117.859 191.462,118.626 214.835,123.828 234.600 C 125.914 242.523,125.889 242.228,124.541 242.939 C 121.329 244.633,118.110 248.839,117.867 251.657 L 117.638 254.314 120.899 257.057 C 122.693 258.566,126.600 262.242,129.580 265.226 C 134.619 270.269,136.307 272.156,141.614 278.677 C 144.401 282.101,145.997 283.047,147.980 282.453 C 148.812 282.204,149.841 282.000,150.267 282.000 C 150.739 282.000,151.940 280.907,153.347 279.197 C 154.615 277.655,156.210 276.105,156.890 275.753 C 158.240 275.055,158.097 275.032,164.424 276.958 C 166.307 277.531,168.371 278.000,169.010 278.000 C 169.650 278.000,170.899 278.254,171.787 278.564 C 172.674 278.874,174.750 279.334,176.400 279.586 C 178.050 279.838,180.300 280.208,181.400 280.408 C 182.500 280.608,184.844 280.869,186.609 280.987 C 188.374 281.106,190.442 281.383,191.206 281.602 C 193.398 282.230,206.576 282.090,209.400 281.408 C 210.720 281.089,212.755 280.822,213.923 280.814 C 217.092 280.793,221.663 280.088,228.200 278.613 C 234.714 277.143,236.633 276.658,237.000 276.388 C 237.220 276.227,238.030 275.992,238.800 275.866 C 239.570 275.741,240.799 275.517,241.532 275.369 C 243.033 275.066,244.759 276.436,247.434 280.058 C 248.534 281.548,249.104 281.960,250.303 282.136 C 251.127 282.256,252.392 282.476,253.116 282.625 C 254.675 282.945,256.688 281.079,262.200 274.199 C 266.196 269.212,271.795 263.358,275.200 260.605 C 276.630 259.449,278.258 258.075,278.818 257.551 C 279.378 257.028,280.404 256.124,281.098 255.542 C 284.131 253.002,281.366 246.153,276.181 243.362 C 274.806 242.622,274.064 241.268,274.578 240.436 C 274.874 239.956,277.433 230.166,278.246 226.400 C 282.042 208.820,281.603 186.247,277.135 169.200 C 276.703 167.550,276.198 165.480,276.014 164.600 C 275.830 163.720,275.357 161.931,274.963 160.625 L 274.246 158.250 275.602 157.225 C 280.171 153.773,282.137 151.391,282.062 149.400 C 282.022 148.352,282.205 147.234,282.469 146.917 C 283.019 146.255,280.861 143.995,275.600 139.722 C 271.934 136.745,266.481 131.086,262.200 125.817 C 255.756 117.885,254.554 116.857,252.596 117.601 C 252.020 117.821,251.006 118.000,250.344 118.000 C 249.515 118.000,248.868 118.338,248.270 119.085 C 246.229 121.630,242.770 124.800,242.034 124.800 C 241.130 124.800,236.998 123.770,236.386 123.392 C 236.164 123.254,233.961 122.711,231.491 122.184 C 229.021 121.657,225.830 120.974,224.400 120.666 C 222.970 120.358,220.000 119.896,217.800 119.639 C 215.600 119.381,211.975 118.907,209.746 118.585 C 205.079 117.912,195.988 117.816,192.077 118.399 C 190.604 118.619,187.600 118.983,185.400 119.208 C 180.876 119.672,178.780 120.006,174.200 120.991 C 172.440 121.369,170.280 121.828,169.400 122.009 C 168.520 122.191,167.170 122.512,166.400 122.723 C 165.630 122.934,163.608 123.487,161.907 123.953 C 157.445 125.175,157.498 125.191,154.061 121.626 C 152.050 119.541,150.588 118.365,149.800 118.199 C 149.140 118.059,148.187 117.777,147.681 117.572 C 146.182 116.965,145.980 117.074,143.029 120.107 M211.600 144.747 C 213.250 145.019,215.860 145.418,217.400 145.632 C 218.940 145.847,222.090 146.469,224.400 147.016 C 226.710 147.562,228.904 148.007,229.275 148.004 C 229.977 148.000,233.010 148.898,241.732 151.692 C 247.538 153.552,248.227 154.123,249.355 158.000 C 249.707 159.210,250.375 161.460,250.839 163.000 C 253.053 170.333,255.247 180.943,256.011 188.000 C 256.213 189.870,256.564 192.264,256.789 193.320 C 257.303 195.720,257.309 204.442,256.799 206.651 C 256.589 207.560,256.236 209.990,256.015 212.051 C 255.644 215.501,255.146 218.649,254.064 224.400 C 253.464 227.591,250.593 238.292,249.171 242.643 C 247.914 246.491,246.411 247.325,235.200 250.400 C 234.210 250.672,232.590 251.131,231.600 251.421 C 226.659 252.870,221.169 253.966,214.800 254.775 C 212.930 255.013,210.500 255.400,209.400 255.636 C 208.195 255.894,204.060 256.005,199.000 255.915 C 186.082 255.685,176.956 254.095,161.400 249.361 C 152.378 246.615,151.870 246.260,150.604 241.800 C 148.504 234.407,148.020 232.608,147.048 228.600 C 146.462 226.180,145.986 223.853,145.991 223.428 C 145.996 223.004,145.831 222.104,145.625 221.428 C 145.007 219.401,144.306 215.211,143.980 211.600 C 143.812 209.730,143.446 206.657,143.168 204.771 C 142.763 202.031,142.760 200.466,143.155 196.971 C 143.426 194.567,143.741 190.982,143.855 189.004 C 143.969 187.026,144.239 185.194,144.455 184.934 C 144.671 184.673,145.016 183.051,145.220 181.330 C 145.876 175.817,146.989 170.731,149.013 164.000 C 149.377 162.790,149.832 161.037,150.025 160.104 C 150.486 157.866,151.907 154.604,152.737 153.875 C 153.773 152.966,166.536 148.862,171.000 148.003 C 171.880 147.833,173.950 147.382,175.600 147.000 C 180.255 145.922,181.902 145.639,186.079 145.198 C 188.213 144.973,190.373 144.620,190.879 144.412 C 192.159 143.888,207.944 144.143,211.600 144.747 " stroke="none" fill="#848383" fill-rule="evenodd"></path></g></svg>
