<?xml version="1.0" standalone="no"?>
<!DOCTYPE svg PUBLIC "-//W3C//DTD SVG 20010904//EN"
 "http://www.w3.org/TR/2001/REC-SVG-20010904/DTD/svg10.dtd">
<svg version="1.0" xmlns="http://www.w3.org/2000/svg"
 width="124.000000pt" height="124.000000pt" viewBox="0 0 124.000000 124.000000"
 preserveAspectRatio="xMidYMid meet">

<g transform="translate(0.000000,124.000000) scale(0.100000,-0.100000)"
fill="#000000" stroke="none">
<path d="M360 1166 c-82 -22 -127 -43 -134 -62 -3 -8 6 -25 20 -39 20 -20 31
-24 52 -18 32 9 110 9 118 0 9 -8 -95 -122 -179 -195 -21 -19 -41 -31 -44 -28
-9 8 -9 86 0 118 6 21 2 32 -18 52 -37 37 -49 28 -84 -56 -23 -57 -33 -133
-26 -202 9 -87 9 -152 0 -234 -7 -62 5 -158 27 -212 30 -74 48 -84 84 -49 24
24 25 29 14 68 -11 41 -6 101 9 101 3 0 20 -12 37 -28 17 -15 50 -43 74 -62
24 -19 48 -41 54 -48 6 -7 22 -24 35 -38 13 -14 20 -28 16 -32 -4 -4 -41 -6
-82 -5 -67 2 -78 0 -95 -19 -22 -25 -22 -21 0 -44 35 -39 172 -69 268 -59 90
9 142 9 235 0 50 -5 96 -3 130 4 124 28 169 62 135 100 -16 18 -29 21 -92 18
-40 -1 -75 1 -80 5 -6 6 20 41 76 101 44 47 121 109 128 103 4 -4 6 -40 5 -80
-3 -63 0 -76 18 -92 30 -27 48 -13 77 56 25 59 34 134 27 209 -9 93 -9 145 0
235 10 96 -20 233 -59 269 -23 21 -19 21 -44 -1 -19 -17 -21 -28 -19 -95 1
-41 -2 -79 -6 -84 -8 -7 -42 26 -162 161 -22 25 -41 49 -43 55 -5 16 54 23 99
11 39 -11 44 -10 68 14 35 36 25 54 -49 84 -54 22 -150 34 -212 27 -75 -8
-134 -9 -248 -2 -54 4 -102 1 -130 -7z m188 -75 c48 -33 69 -35 122 -7 60 31
71 33 42 6 -12 -12 -22 -25 -22 -30 0 -10 91 -85 112 -93 10 -3 10 -7 1 -17
-18 -19 1 -46 47 -70 24 -12 42 -30 46 -44 7 -31 47 -68 67 -64 8 2 30 -14 49
-35 l33 -39 27 22 c34 26 37 11 8 -45 -25 -49 -25 -72 0 -110 25 -38 27 -65 2
-35 -15 19 -22 21 -39 11 -12 -6 -31 -24 -43 -41 -12 -16 -27 -30 -35 -30 -7
0 -35 -25 -61 -56 -26 -30 -64 -64 -85 -74 -40 -21 -55 -46 -39 -65 8 -10 2
-18 -25 -34 -43 -25 -53 -46 -31 -70 9 -10 16 -21 16 -24 0 -12 -53 4 -73 21
-23 21 -81 20 -104 0 -10 -9 -31 -20 -48 -24 -29 -7 -30 -7 -12 13 25 28 21
48 -15 79 -21 17 -32 34 -30 46 4 25 -14 46 -53 62 -17 7 -43 29 -58 47 -15
19 -32 40 -38 47 -5 7 -14 10 -19 7 -5 -3 -27 17 -50 44 -52 62 -69 69 -92 39
-24 -31 -23 -11 2 30 25 41 25 72 0 122 -27 54 -25 65 9 41 32 -23 44 -18 75
32 12 20 23 27 37 24 20 -5 62 36 74 73 3 11 13 20 21 20 7 0 28 13 46 29 26
23 30 32 21 43 -10 11 -6 19 20 39 18 14 42 31 54 37 34 18 40 52 13 74 -29
24 -6 23 28 -1z"/>
<path d="M525 840 c-22 -5 -48 -7 -57 -4 -9 3 -32 -8 -52 -26 -29 -26 -34 -36
-29 -60 3 -16 0 -50 -6 -77 -9 -37 -8 -62 3 -113 8 -42 10 -69 4 -77 -12 -15
4 -39 50 -78 26 -22 35 -25 47 -15 11 9 22 9 46 1 41 -14 141 -14 172 0 18 8
30 8 46 0 18 -10 26 -6 66 33 40 41 44 48 34 69 -8 18 -8 30 0 45 14 26 14
132 1 168 -7 18 -7 30 0 39 9 10 2 23 -25 54 -28 31 -43 39 -68 39 -18 0 -68
2 -112 5 -44 3 -98 2 -120 -3z m205 -90 c37 -16 53 -104 35 -190 -7 -33 -15
-64 -18 -67 -3 -3 -34 -11 -67 -18 -48 -10 -75 -10 -121 -2 -51 10 -60 15 -71
42 -7 16 -13 69 -13 116 0 126 17 141 160 134 39 -2 81 -8 95 -15z"/>
</g>
</svg>
