<svg id="svg" version="1.1" xmlns="http://www.w3.org/2000/svg" xmlns:xlink="http://www.w3.org/1999/xlink" width="400" height="400" viewBox="0, 0, 400,400"><g id="svgg"><path id="path0" d="M214.609 3.487 C 211.314 3.562,208.443 3.797,208.229 4.011 C 208.015 4.225,206.436 4.400,204.720 4.400 C 203.004 4.400,201.600 4.553,201.600 4.740 C 201.600 4.928,199.035 5.207,195.900 5.362 C 192.765 5.517,190.029 5.814,189.820 6.022 C 189.611 6.230,188.756 6.400,187.920 6.400 C 187.084 6.400,186.400 6.559,186.400 6.753 C 186.400 6.948,185.230 7.232,183.800 7.385 C 182.370 7.538,181.200 7.829,181.200 8.032 C 181.200 8.234,180.570 8.400,179.800 8.400 C 179.030 8.400,178.400 8.567,178.400 8.771 C 178.400 8.975,177.408 9.266,176.195 9.418 C 174.982 9.570,173.891 9.852,173.771 10.047 C 173.651 10.241,173.113 10.400,172.576 10.400 C 172.039 10.400,171.600 10.563,171.600 10.762 C 171.600 10.962,170.700 11.249,169.600 11.400 C 168.500 11.551,167.600 11.838,167.600 12.038 C 167.600 12.237,167.150 12.400,166.600 12.400 C 166.050 12.400,165.600 12.563,165.600 12.762 C 165.600 12.962,164.700 13.249,163.600 13.400 C 162.500 13.551,161.600 13.838,161.600 14.038 C 161.600 14.237,161.150 14.400,160.600 14.400 C 160.050 14.400,159.600 14.563,159.600 14.762 C 159.600 14.962,158.700 15.249,157.600 15.400 C 156.500 15.551,155.600 15.838,155.600 16.038 C 155.600 16.237,155.150 16.400,154.600 16.400 C 154.050 16.400,153.600 16.564,153.600 16.765 C 153.600 16.966,152.880 17.251,152.000 17.400 C 151.120 17.549,150.400 17.834,150.400 18.035 C 150.400 18.236,149.950 18.400,149.400 18.400 C 148.850 18.400,148.400 18.572,148.400 18.782 C 148.400 18.992,147.770 19.282,147.000 19.426 C 146.230 19.571,145.600 19.849,145.600 20.045 C 145.600 20.240,145.330 20.400,145.000 20.400 C 144.670 20.400,144.400 20.568,144.400 20.773 C 144.400 20.978,143.995 21.274,143.500 21.430 C 143.005 21.587,142.330 22.023,142.000 22.400 C 141.670 22.777,141.040 23.200,140.600 23.340 C 140.160 23.481,139.277 24.046,138.638 24.598 C 137.999 25.149,137.234 25.600,136.938 25.600 C 136.642 25.600,136.400 25.752,136.400 25.937 C 136.400 26.122,135.770 26.613,135.000 27.028 C 134.230 27.443,133.600 27.921,133.600 28.091 C 133.600 28.261,133.330 28.400,133.000 28.400 C 132.670 28.400,132.400 28.568,132.400 28.773 C 132.400 28.978,132.009 29.270,131.531 29.422 C 131.053 29.574,130.291 30.043,129.839 30.464 C 129.386 30.886,128.607 31.334,128.108 31.459 C 127.609 31.584,127.200 31.847,127.200 32.043 C 127.200 32.240,126.840 32.400,126.400 32.400 C 125.960 32.400,125.600 32.566,125.600 32.768 C 125.600 32.971,125.060 33.255,124.400 33.400 C 123.575 33.581,123.200 33.903,123.200 34.432 C 123.200 34.854,123.020 35.200,122.800 35.200 C 122.580 35.200,122.400 35.635,122.400 36.167 C 122.400 36.698,122.175 37.208,121.900 37.300 C 121.522 37.426,121.400 39.432,121.400 45.513 C 121.400 51.417,121.533 53.693,121.900 54.060 C 122.175 54.335,122.400 54.974,122.400 55.480 C 122.400 55.986,122.580 56.400,122.800 56.400 C 123.020 56.400,123.200 56.670,123.200 57.000 C 123.200 57.330,123.470 57.600,123.800 57.600 C 124.130 57.600,124.400 57.768,124.400 57.973 C 124.400 58.178,124.774 58.465,125.232 58.610 C 125.690 58.755,126.952 59.758,128.037 60.837 C 129.123 61.917,130.266 62.800,130.578 62.800 C 130.891 62.800,131.260 63.160,131.400 63.600 C 131.540 64.040,131.783 64.400,131.940 64.400 C 132.698 64.400,138.400 69.631,138.400 70.327 C 138.400 70.550,138.625 70.824,138.900 70.935 C 139.175 71.046,138.095 71.151,136.500 71.168 C 134.812 71.187,133.600 71.033,133.600 70.800 C 133.600 70.565,132.211 70.400,130.233 70.400 C 127.992 70.400,126.814 70.241,126.708 69.925 C 126.474 69.221,103.935 69.196,103.700 69.900 C 103.608 70.175,103.098 70.400,102.567 70.400 C 102.035 70.400,101.600 70.563,101.600 70.762 C 101.600 70.962,100.700 71.249,99.600 71.400 C 98.500 71.551,97.600 71.838,97.600 72.038 C 97.600 72.237,97.150 72.400,96.600 72.400 C 96.050 72.400,95.600 72.560,95.600 72.757 C 95.600 72.953,95.162 73.223,94.627 73.358 C 94.091 73.492,93.539 73.961,93.400 74.401 C 93.115 75.296,80.800 75.686,80.800 74.800 C 80.800 74.580,80.181 74.400,79.424 74.400 C 78.667 74.400,77.936 74.580,77.800 74.800 C 77.664 75.020,76.438 75.199,75.076 75.197 C 72.304 75.193,71.600 74.489,71.600 71.720 C 71.600 70.994,71.440 70.400,71.243 70.400 C 71.047 70.400,70.774 69.950,70.636 69.400 C 70.452 68.669,70.117 68.400,69.392 68.400 C 68.847 68.400,68.400 68.231,68.400 68.025 C 68.400 67.818,67.590 67.528,66.600 67.379 C 65.610 67.231,64.800 66.950,64.800 66.755 C 64.800 66.560,64.350 66.400,63.800 66.400 C 63.250 66.400,62.800 66.243,62.800 66.051 C 62.800 65.859,62.080 65.587,61.200 65.446 C 60.320 65.306,59.600 65.013,59.600 64.795 C 59.600 64.578,59.150 64.400,58.600 64.400 C 58.050 64.400,57.600 64.237,57.600 64.038 C 57.600 63.838,56.700 63.551,55.600 63.400 C 54.500 63.249,53.600 63.006,53.600 62.860 C 53.600 62.464,51.453 61.591,49.830 61.327 C 49.043 61.200,48.400 60.939,48.400 60.748 C 48.400 60.556,47.950 60.400,47.400 60.400 C 46.850 60.400,46.400 60.231,46.400 60.025 C 46.400 59.818,45.590 59.528,44.600 59.379 C 43.610 59.231,42.800 58.950,42.800 58.755 C 42.800 58.560,42.350 58.400,41.800 58.400 C 41.250 58.400,40.800 58.237,40.800 58.038 C 40.800 57.838,39.900 57.551,38.800 57.400 C 37.700 57.249,36.800 56.962,36.800 56.762 C 36.800 56.563,36.350 56.400,35.800 56.400 C 35.250 56.400,34.800 56.233,34.800 56.029 C 34.800 55.825,33.810 55.534,32.600 55.383 C 31.390 55.232,30.400 54.949,30.400 54.754 C 30.400 54.559,29.086 54.400,27.480 54.400 C 25.709 54.400,24.367 54.207,24.070 53.910 C 23.683 53.523,23.415 53.523,22.795 53.910 C 22.364 54.180,20.748 54.400,19.205 54.400 C 17.602 54.400,16.400 54.571,16.400 54.800 C 16.400 55.020,15.794 55.200,15.052 55.200 C 13.531 55.200,13.213 56.077,13.204 60.300 C 13.202 61.455,13.020 62.400,12.800 62.400 C 12.580 62.400,12.400 63.390,12.400 64.600 C 12.400 65.810,12.555 66.800,12.745 66.800 C 12.936 66.800,13.182 68.547,13.294 70.683 C 13.417 73.042,13.674 74.625,13.949 74.716 C 14.197 74.799,14.400 75.192,14.400 75.591 C 14.400 75.989,14.670 76.418,15.000 76.545 C 15.330 76.671,15.600 77.128,15.600 77.560 C 15.600 77.995,15.958 78.460,16.400 78.600 C 16.842 78.740,17.200 79.205,17.200 79.640 C 17.200 80.072,17.470 80.529,17.800 80.655 C 18.130 80.782,18.400 81.226,18.400 81.643 C 18.400 82.059,18.584 82.400,18.810 82.400 C 19.035 82.400,19.393 82.855,19.604 83.410 C 19.815 83.966,20.261 84.525,20.594 84.653 C 20.927 84.781,21.200 85.128,21.200 85.425 C 21.200 85.721,21.628 86.392,22.152 86.916 C 22.676 87.439,23.215 88.213,23.350 88.634 C 23.485 89.055,24.046 89.923,24.598 90.562 C 25.149 91.201,25.600 91.900,25.600 92.115 C 25.600 92.330,25.934 92.797,26.343 93.153 C 26.751 93.509,27.213 94.205,27.370 94.700 C 27.526 95.195,27.822 95.600,28.027 95.600 C 28.232 95.600,28.400 95.870,28.400 96.200 C 28.400 96.530,28.568 96.800,28.773 96.800 C 28.978 96.800,29.274 97.205,29.430 97.700 C 29.587 98.195,30.023 98.870,30.400 99.200 C 30.777 99.530,31.213 100.205,31.370 100.700 C 31.526 101.195,31.822 101.600,32.027 101.600 C 32.232 101.600,32.400 101.870,32.400 102.200 C 32.400 102.530,32.577 102.800,32.792 102.800 C 33.008 102.800,33.298 103.250,33.436 103.800 C 33.574 104.350,33.847 104.800,34.043 104.800 C 34.240 104.800,34.400 105.160,34.400 105.600 C 34.400 106.040,34.566 106.400,34.768 106.400 C 34.971 106.400,35.255 106.940,35.400 107.600 C 35.545 108.260,35.829 108.800,36.032 108.800 C 36.234 108.800,36.400 109.068,36.400 109.395 C 36.400 110.227,37.651 111.600,38.409 111.600 C 38.756 111.600,39.242 111.802,39.488 112.048 C 39.735 112.295,41.571 112.590,43.568 112.704 C 45.566 112.818,47.200 113.066,47.200 113.255 C 47.200 113.714,50.135 113.700,50.620 113.239 C 50.829 113.041,52.399 112.812,54.110 112.731 L 57.220 112.583 57.461 114.092 C 57.594 114.921,57.859 115.600,58.051 115.600 C 58.243 115.600,58.400 116.050,58.400 116.600 C 58.400 117.150,58.557 117.600,58.749 117.600 C 58.941 117.600,59.213 118.320,59.354 119.200 C 59.573 120.569,59.753 120.800,60.605 120.800 C 61.152 120.800,61.600 120.980,61.600 121.200 C 61.600 121.420,62.050 121.600,62.600 121.600 C 63.150 121.600,63.600 121.763,63.600 121.962 C 63.600 122.162,64.500 122.449,65.600 122.600 C 66.700 122.751,67.600 123.038,67.600 123.238 C 67.600 123.437,68.035 123.600,68.567 123.600 C 69.098 123.600,69.593 123.778,69.667 123.996 C 69.745 124.229,73.224 124.503,78.100 124.660 C 82.665 124.807,86.400 125.078,86.400 125.263 C 86.400 125.449,87.300 125.600,88.400 125.600 C 89.911 125.600,90.400 125.747,90.400 126.200 C 90.400 126.530,90.580 126.800,90.800 126.800 C 91.020 126.800,91.200 127.120,91.200 127.511 C 91.200 128.414,92.565 129.600,93.605 129.600 C 94.042 129.600,94.400 129.763,94.400 129.962 C 94.400 130.162,95.300 130.449,96.400 130.600 C 97.500 130.751,98.400 131.038,98.400 131.238 C 98.400 131.437,98.850 131.600,99.400 131.600 C 99.950 131.600,100.400 131.771,100.400 131.980 C 100.400 132.189,101.480 132.482,102.800 132.632 C 104.120 132.781,105.200 133.060,105.200 133.252 C 105.200 133.443,106.325 133.606,107.700 133.613 C 111.033 133.630,111.600 134.103,111.600 136.864 C 111.600 138.061,111.813 139.253,112.073 139.513 C 112.334 139.774,112.399 140.125,112.219 140.293 C 112.038 140.462,111.812 140.381,111.716 140.113 C 111.620 139.845,110.925 139.510,110.171 139.368 C 109.261 139.197,108.800 138.887,108.800 138.444 C 108.800 137.748,107.478 136.400,106.795 136.400 C 106.578 136.400,106.400 136.240,106.400 136.045 C 106.400 135.849,105.770 135.571,105.000 135.426 C 104.230 135.282,103.600 134.992,103.600 134.782 C 103.600 134.572,103.330 134.400,103.000 134.400 C 102.670 134.400,102.400 134.237,102.400 134.038 C 102.400 133.838,101.500 133.551,100.400 133.400 C 99.300 133.249,98.400 132.962,98.400 132.762 C 98.400 132.563,97.896 132.400,97.280 132.400 C 96.664 132.400,95.974 132.214,95.748 131.988 C 95.195 131.435,82.403 131.437,81.850 131.990 C 81.625 132.215,80.036 132.400,78.320 132.400 C 76.604 132.400,75.200 132.559,75.200 132.753 C 75.200 132.947,73.670 133.233,71.800 133.389 C 69.930 133.544,68.400 133.836,68.400 134.036 C 68.400 134.236,67.770 134.400,67.000 134.400 C 66.230 134.400,65.600 134.560,65.600 134.756 C 65.600 134.952,64.970 135.186,64.200 135.276 L 62.800 135.439 62.797 133.220 C 62.791 128.448,62.323 125.505,61.537 125.299 C 61.132 125.193,60.800 124.948,60.800 124.753 C 60.800 124.559,60.080 124.400,59.200 124.400 C 58.320 124.400,57.600 124.238,57.600 124.041 C 57.600 123.843,54.176 123.550,49.992 123.389 C 45.807 123.229,42.287 122.940,42.168 122.749 C 42.050 122.557,40.073 122.400,37.776 122.400 C 35.259 122.400,33.600 122.241,33.600 122.000 C 33.600 121.751,31.267 121.600,27.400 121.600 C 23.533 121.600,21.200 121.751,21.200 122.000 C 21.200 122.220,20.390 122.400,19.400 122.400 C 18.410 122.400,17.600 122.560,17.600 122.757 C 17.600 122.953,17.171 123.221,16.646 123.353 C 15.876 123.546,15.640 123.940,15.421 125.396 C 15.273 126.388,14.982 127.200,14.775 127.200 C 14.569 127.200,14.400 127.650,14.400 128.200 C 14.400 128.750,14.222 129.200,14.005 129.200 C 13.787 129.200,13.494 129.920,13.354 130.800 C 13.213 131.680,12.941 132.400,12.749 132.400 C 12.557 132.400,12.400 132.850,12.400 133.400 C 12.400 133.950,12.237 134.400,12.038 134.400 C 11.838 134.400,11.551 135.300,11.400 136.400 C 11.249 137.500,10.962 138.400,10.762 138.400 C 10.563 138.400,10.400 138.835,10.400 139.367 C 10.400 139.898,10.175 140.408,9.900 140.500 C 9.170 140.743,9.177 158.059,9.907 158.302 C 10.186 158.395,10.668 158.725,10.979 159.036 C 11.289 159.346,12.186 159.600,12.971 159.600 C 13.757 159.600,14.400 159.780,14.400 160.000 C 14.400 160.220,14.625 160.401,14.900 160.402 C 15.276 160.404,15.414 161.919,15.456 166.488 C 15.493 170.547,15.659 172.620,15.956 172.719 C 16.200 172.800,16.400 173.302,16.400 173.833 C 16.400 174.365,16.563 174.800,16.762 174.800 C 16.962 174.800,17.249 175.700,17.400 176.800 C 17.551 177.900,17.838 178.800,18.038 178.800 C 18.237 178.800,18.400 179.250,18.400 179.800 C 18.400 180.350,18.563 180.800,18.762 180.800 C 18.962 180.800,19.249 181.700,19.400 182.800 C 19.551 183.900,19.838 184.800,20.038 184.800 C 20.237 184.800,20.400 185.250,20.400 185.800 C 20.400 186.350,20.563 186.800,20.762 186.800 C 20.962 186.800,21.249 187.700,21.400 188.800 C 21.551 189.900,21.838 190.800,22.038 190.800 C 22.237 190.800,22.400 191.250,22.400 191.800 C 22.400 192.350,22.560 192.800,22.755 192.800 C 22.951 192.800,23.223 193.398,23.360 194.130 C 23.498 194.861,23.968 195.844,24.405 196.313 C 24.842 196.783,25.200 197.422,25.200 197.734 C 25.200 198.047,25.470 198.526,25.800 198.800 C 26.130 199.074,26.400 199.546,26.400 199.849 C 26.400 200.152,26.560 200.400,26.757 200.400 C 26.953 200.400,27.226 200.850,27.364 201.400 C 27.502 201.950,27.792 202.400,28.008 202.400 C 28.223 202.400,28.400 202.670,28.400 203.000 C 28.400 203.330,28.568 203.600,28.773 203.600 C 28.978 203.600,29.274 204.005,29.430 204.500 C 29.587 204.995,30.023 205.670,30.400 206.000 C 30.777 206.330,31.213 207.005,31.370 207.500 C 31.526 207.995,31.822 208.400,32.027 208.400 C 32.232 208.400,32.400 208.670,32.400 209.000 C 32.400 209.330,32.572 209.600,32.782 209.600 C 32.992 209.600,33.282 210.230,33.426 211.000 C 33.571 211.770,33.849 212.400,34.045 212.400 C 34.240 212.400,34.400 212.670,34.400 213.000 C 34.400 213.330,34.572 213.600,34.782 213.600 C 34.992 213.600,35.282 214.230,35.426 215.000 C 35.571 215.770,35.849 216.400,36.045 216.400 C 36.240 216.400,36.400 216.604,36.400 216.854 C 36.400 217.104,36.850 217.725,37.400 218.235 C 37.950 218.745,38.400 219.437,38.400 219.773 C 38.400 220.110,38.850 220.498,39.400 220.636 C 40.026 220.793,40.400 221.170,40.400 221.643 C 40.400 222.060,40.560 222.400,40.757 222.400 C 40.953 222.400,41.223 222.838,41.358 223.373 C 41.492 223.909,41.961 224.461,42.401 224.600 C 44.048 225.123,42.997 227.021,40.818 227.456 C 39.968 227.626,39.516 227.994,39.351 228.651 C 39.220 229.173,38.858 229.600,38.547 229.600 C 38.235 229.600,37.809 230.050,37.600 230.600 C 37.391 231.150,37.035 231.600,36.810 231.600 C 36.584 231.600,36.400 231.870,36.400 232.200 C 36.400 232.967,34.979 234.400,34.218 234.400 C 33.871 234.400,33.531 234.959,33.376 235.786 C 33.218 236.628,32.826 237.265,32.379 237.407 C 31.973 237.536,31.530 237.992,31.394 238.420 C 31.257 238.849,30.978 239.200,30.773 239.200 C 30.568 239.200,30.400 239.470,30.400 239.800 C 30.400 240.130,30.228 240.400,30.018 240.400 C 29.808 240.400,29.518 241.030,29.374 241.800 C 29.229 242.570,28.951 243.200,28.755 243.200 C 28.560 243.200,28.400 243.470,28.400 243.800 C 28.400 244.130,28.240 244.400,28.043 244.400 C 27.847 244.400,27.574 244.850,27.436 245.400 C 27.298 245.950,27.008 246.400,26.792 246.400 C 26.577 246.400,26.400 246.670,26.400 247.000 C 26.400 247.330,26.223 247.600,26.008 247.600 C 25.792 247.600,25.502 248.050,25.364 248.600 C 25.226 249.150,24.981 249.600,24.820 249.600 C 24.658 249.600,24.187 250.230,23.772 251.000 C 23.357 251.770,22.879 252.400,22.709 252.400 C 22.539 252.400,22.400 252.670,22.400 253.000 C 22.400 253.330,22.223 253.600,22.008 253.600 C 21.792 253.600,21.502 254.050,21.364 254.600 C 21.226 255.150,20.981 255.600,20.820 255.600 C 20.658 255.600,20.187 256.230,19.772 257.000 C 19.357 257.770,18.879 258.400,18.709 258.400 C 18.539 258.400,18.400 258.670,18.400 259.000 C 18.400 259.330,18.220 259.600,18.000 259.600 C 17.780 259.600,17.600 259.966,17.600 260.413 C 17.600 260.859,17.330 261.329,17.000 261.455 C 16.670 261.582,16.400 262.026,16.400 262.443 C 16.400 262.859,16.222 263.200,16.005 263.200 C 15.787 263.200,15.494 263.920,15.354 264.800 C 15.213 265.680,14.941 266.400,14.749 266.400 C 14.557 266.400,14.400 266.670,14.400 267.000 C 14.400 267.330,14.237 267.600,14.038 267.600 C 13.838 267.600,13.551 268.500,13.400 269.600 C 13.249 270.700,12.962 271.600,12.762 271.600 C 12.563 271.600,12.400 271.949,12.400 272.376 C 12.400 272.803,12.244 273.249,12.053 273.368 C 11.861 273.486,11.588 274.314,11.445 275.209 C 11.302 276.103,11.008 277.187,10.792 277.617 C 10.577 278.048,10.242 278.722,10.049 279.115 C 9.857 279.509,9.571 280.589,9.414 281.515 C 9.258 282.442,8.966 283.200,8.765 283.200 C 8.564 283.200,8.400 283.740,8.400 284.400 C 8.400 285.060,8.226 285.600,8.014 285.600 C 7.801 285.600,7.508 286.500,7.362 287.600 C 7.216 288.700,6.940 289.600,6.748 289.600 C 6.557 289.600,6.400 290.050,6.400 290.600 C 6.400 291.150,6.229 291.600,6.020 291.600 C 5.811 291.600,5.518 292.680,5.368 294.000 C 5.219 295.320,4.940 296.400,4.748 296.400 C 4.557 296.400,4.400 296.929,4.400 297.576 C 4.400 298.223,4.234 298.855,4.031 298.981 C 3.829 299.106,3.538 300.377,3.385 301.804 C 3.232 303.232,2.948 304.400,2.753 304.400 C 2.559 304.400,2.400 305.120,2.400 306.000 C 2.400 306.880,2.240 307.600,2.045 307.600 C 1.850 307.600,1.559 310.345,1.398 313.700 C 1.230 317.196,0.926 319.913,0.685 320.065 C -0.101 320.562,0.067 340.123,0.864 340.921 C 1.230 341.287,1.605 341.814,1.698 342.093 C 1.941 342.822,18.457 342.829,18.700 342.100 C 18.792 341.825,19.210 341.600,19.630 341.600 C 20.730 341.600,22.319 340.079,22.612 338.745 C 22.750 338.115,23.029 337.600,23.232 337.600 C 23.434 337.600,23.600 337.407,23.600 337.171 C 23.600 336.466,24.686 335.600,25.571 335.600 C 26.027 335.600,26.400 335.444,26.400 335.252 C 26.400 335.061,27.025 334.803,27.789 334.679 C 28.736 334.526,29.741 333.874,30.953 332.627 C 31.930 331.622,32.895 330.800,33.098 330.800 C 33.301 330.800,33.936 330.305,34.509 329.700 C 35.081 329.095,35.786 328.384,36.075 328.119 C 36.364 327.855,36.816 327.405,37.081 327.119 C 37.345 326.834,37.795 326.384,38.081 326.119 C 38.366 325.855,38.816 325.405,39.081 325.119 C 39.820 324.321,40.739 323.600,41.017 323.600 C 41.155 323.600,42.605 322.250,44.239 320.600 C 47.400 317.407,47.600 317.265,47.600 318.200 C 47.600 318.530,47.780 318.800,48.000 318.800 C 48.220 318.800,48.400 319.250,48.400 319.800 C 48.400 320.350,48.563 320.800,48.762 320.800 C 48.962 320.800,49.249 321.700,49.400 322.800 C 49.551 323.900,49.838 324.800,50.038 324.800 C 50.237 324.800,50.400 325.250,50.400 325.800 C 50.400 326.350,50.563 326.800,50.762 326.800 C 50.962 326.800,51.249 327.700,51.400 328.800 C 51.551 329.900,51.838 330.800,52.038 330.800 C 52.237 330.800,52.400 331.149,52.400 331.576 C 52.400 332.003,52.570 332.458,52.777 332.586 C 52.984 332.714,53.275 333.624,53.422 334.609 C 53.570 335.594,53.850 336.400,54.045 336.400 C 54.240 336.400,54.400 336.670,54.400 337.000 C 54.400 337.330,54.557 337.600,54.749 337.600 C 54.941 337.600,55.213 338.320,55.354 339.200 C 55.494 340.080,55.787 340.800,56.005 340.800 C 56.222 340.800,56.400 341.250,56.400 341.800 C 56.400 342.350,56.560 342.800,56.755 342.800 C 56.950 342.800,57.231 343.610,57.379 344.600 C 57.528 345.590,57.818 346.400,58.025 346.400 C 58.231 346.400,58.400 346.850,58.400 347.400 C 58.400 347.950,58.578 348.400,58.795 348.400 C 59.013 348.400,59.306 349.120,59.446 350.000 C 59.587 350.880,59.859 351.600,60.051 351.600 C 60.243 351.600,60.400 352.050,60.400 352.600 C 60.400 353.150,60.578 353.600,60.795 353.600 C 61.013 353.600,61.306 354.320,61.446 355.200 C 61.587 356.080,61.859 356.800,62.051 356.800 C 62.243 356.800,62.400 357.160,62.400 357.600 C 62.400 358.040,62.557 358.400,62.749 358.400 C 62.941 358.400,63.214 359.128,63.356 360.017 C 63.596 361.513,64.263 363.122,64.842 363.600 C 64.976 363.710,65.209 364.475,65.360 365.300 C 65.512 366.125,65.808 366.800,66.018 366.800 C 66.228 366.800,66.400 367.250,66.400 367.800 C 66.400 368.350,66.560 368.800,66.755 368.800 C 66.950 368.800,67.231 369.610,67.379 370.600 C 67.528 371.590,67.818 372.400,68.025 372.400 C 68.231 372.400,68.400 372.850,68.400 373.400 C 68.400 373.950,68.578 374.400,68.795 374.400 C 69.013 374.400,69.306 375.120,69.446 376.000 C 69.587 376.880,69.859 377.600,70.051 377.600 C 70.243 377.600,70.400 378.050,70.400 378.600 C 70.400 379.150,70.578 379.600,70.795 379.600 C 71.013 379.600,71.306 380.320,71.446 381.200 C 71.587 382.080,71.859 382.800,72.051 382.800 C 72.243 382.800,72.400 383.160,72.400 383.600 C 72.400 384.040,72.557 384.400,72.749 384.400 C 72.941 384.400,73.213 385.120,73.354 386.000 C 73.553 387.244,73.786 387.600,74.405 387.600 C 74.842 387.600,75.200 387.764,75.200 387.965 C 75.200 388.166,75.920 388.451,76.800 388.600 C 77.680 388.749,78.400 389.034,78.400 389.235 C 78.400 389.436,78.649 389.600,78.954 389.600 C 79.259 389.600,80.024 389.869,80.654 390.198 C 81.284 390.526,82.205 390.796,82.700 390.798 C 83.195 390.799,83.600 390.980,83.600 391.200 C 83.600 391.420,83.960 391.600,84.400 391.600 C 84.840 391.600,85.200 391.763,85.200 391.962 C 85.200 392.162,86.100 392.449,87.200 392.600 C 88.300 392.751,89.200 393.038,89.200 393.238 C 89.200 393.437,89.650 393.600,90.200 393.600 C 90.750 393.600,91.200 393.763,91.200 393.962 C 91.200 394.162,92.100 394.449,93.200 394.600 C 94.300 394.751,95.200 395.038,95.200 395.238 C 95.200 395.437,95.635 395.600,96.167 395.600 C 96.698 395.600,97.202 395.806,97.286 396.057 C 97.503 396.709,112.796 396.727,114.184 396.076 C 116.164 395.148,117.016 394.843,118.387 394.572 C 119.150 394.422,120.050 394.162,120.387 393.996 C 121.731 393.333,123.058 392.850,124.200 392.609 C 125.778 392.275,127.600 391.478,127.600 391.120 C 127.600 390.964,128.230 390.718,129.000 390.574 C 129.770 390.429,130.400 390.151,130.400 389.955 C 130.400 389.760,130.670 389.600,131.000 389.600 C 131.330 389.600,131.600 389.443,131.600 389.251 C 131.600 389.059,132.320 388.787,133.200 388.646 C 134.080 388.506,134.800 388.213,134.800 387.995 C 134.800 387.778,135.160 387.600,135.600 387.600 C 136.040 387.600,136.400 387.434,136.400 387.232 C 136.400 387.029,136.938 386.745,137.595 386.601 C 138.253 386.457,138.894 386.172,139.019 385.969 C 139.145 385.766,139.597 385.600,140.024 385.600 C 140.451 385.600,140.800 385.440,140.800 385.245 C 140.800 385.049,141.430 384.771,142.200 384.626 C 142.970 384.482,143.600 384.192,143.600 383.982 C 143.600 383.772,143.870 383.600,144.200 383.600 C 144.530 383.600,144.800 383.420,144.800 383.200 C 144.800 382.980,145.115 382.799,145.500 382.798 C 145.885 382.796,146.716 382.526,147.346 382.198 C 147.976 381.869,148.741 381.600,149.046 381.600 C 149.351 381.600,149.600 381.428,149.600 381.218 C 149.600 381.008,150.230 380.718,151.000 380.574 C 151.770 380.429,152.400 380.151,152.400 379.955 C 152.400 379.760,152.578 379.600,152.795 379.600 C 153.577 379.600,154.800 378.204,154.800 377.311 C 154.800 376.810,154.980 376.400,155.200 376.400 C 155.420 376.400,155.600 375.590,155.600 374.600 C 155.600 372.947,155.681 372.800,156.600 372.800 C 157.150 372.800,157.600 372.980,157.600 373.200 C 157.600 373.420,158.050 373.600,158.600 373.600 C 159.150 373.600,159.600 373.771,159.600 373.980 C 159.600 374.189,160.680 374.482,162.000 374.632 C 163.320 374.781,164.400 375.060,164.400 375.252 C 164.400 375.443,164.850 375.600,165.400 375.600 C 165.950 375.600,166.400 375.759,166.400 375.953 C 166.400 376.148,167.570 376.432,169.000 376.585 C 170.430 376.738,171.600 377.029,171.600 377.232 C 171.600 377.434,172.194 377.600,172.920 377.600 C 173.646 377.600,174.411 377.770,174.620 377.978 C 174.829 378.186,177.565 378.483,180.700 378.638 C 183.835 378.793,186.400 379.072,186.400 379.260 C 186.400 379.447,186.940 379.600,187.600 379.600 C 188.260 379.600,188.800 379.420,188.800 379.200 C 188.800 378.980,189.610 378.800,190.600 378.800 L 192.400 378.800 192.400 380.800 C 192.400 381.900,192.580 382.800,192.800 382.800 C 193.020 382.800,193.200 383.250,193.200 383.800 C 193.200 384.422,193.427 384.800,193.800 384.800 C 194.130 384.800,194.400 384.980,194.400 385.200 C 194.400 385.420,195.300 385.600,196.400 385.600 C 197.500 385.600,198.400 385.780,198.400 386.000 C 198.400 386.242,200.125 386.400,202.776 386.400 C 205.263 386.400,207.260 386.227,207.400 386.000 C 207.536 385.780,208.807 385.600,210.224 385.600 C 211.641 385.600,212.800 385.438,212.800 385.241 C 212.800 385.043,214.060 384.755,215.600 384.600 C 217.140 384.445,218.400 384.157,218.400 383.959 C 218.400 383.762,218.940 383.600,219.600 383.600 C 220.260 383.600,220.800 383.437,220.800 383.238 C 220.800 383.038,221.700 382.751,222.800 382.600 C 223.900 382.449,224.800 382.162,224.800 381.962 C 224.800 381.763,225.252 381.600,225.805 381.600 C 226.358 381.600,227.123 381.431,227.505 381.223 C 227.887 381.016,229.280 380.530,230.600 380.142 C 231.920 379.755,233.450 379.205,234.000 378.921 C 234.550 378.637,235.369 378.404,235.820 378.402 C 236.796 378.400,238.792 377.526,238.797 377.100 C 238.799 376.935,239.229 376.800,239.754 376.800 C 240.982 376.800,244.800 375.572,244.800 375.177 C 244.800 375.011,245.700 374.751,246.800 374.600 C 247.900 374.449,248.800 374.162,248.800 373.962 C 248.800 373.763,249.160 373.600,249.600 373.600 C 250.040 373.600,250.400 373.434,250.400 373.232 C 250.400 373.029,250.940 372.745,251.600 372.600 C 252.260 372.455,252.800 372.171,252.800 371.968 C 252.800 371.766,253.141 371.600,253.557 371.600 C 253.974 371.600,254.418 371.330,254.545 371.000 C 254.671 370.670,255.128 370.400,255.560 370.400 C 255.993 370.400,256.454 370.061,256.585 369.648 C 256.716 369.234,257.313 368.796,257.912 368.675 C 258.510 368.554,259.374 368.105,259.831 367.676 C 260.288 367.248,261.053 366.774,261.531 366.622 C 262.009 366.470,262.400 366.178,262.400 365.973 C 262.400 365.768,262.670 365.600,263.000 365.600 C 263.330 365.600,263.600 365.461,263.600 365.291 C 263.600 365.121,264.230 364.643,265.000 364.228 C 265.770 363.813,266.400 363.342,266.400 363.180 C 266.400 363.019,266.821 362.781,267.335 362.652 C 267.849 362.523,268.453 362.008,268.676 361.509 C 268.988 360.810,269.128 361.725,269.282 365.470 C 269.480 370.272,269.882 371.600,271.138 371.600 C 271.355 371.600,271.603 371.809,271.688 372.063 C 271.907 372.720,287.293 372.720,287.512 372.063 C 287.597 371.809,288.102 371.600,288.633 371.600 C 289.165 371.600,289.600 371.437,289.600 371.238 C 289.600 371.038,290.500 370.751,291.600 370.600 C 292.700 370.449,293.600 370.162,293.600 369.962 C 293.600 369.763,294.050 369.600,294.600 369.600 C 295.150 369.600,295.600 369.437,295.600 369.238 C 295.600 369.038,296.500 368.751,297.600 368.600 C 298.700 368.449,299.600 368.162,299.600 367.962 C 299.600 367.763,300.050 367.600,300.600 367.600 C 301.150 367.600,301.600 367.444,301.600 367.252 C 301.600 367.061,302.208 366.806,302.951 366.685 C 303.694 366.565,305.088 366.086,306.048 365.622 C 307.009 365.158,308.471 364.670,309.298 364.538 C 310.124 364.406,310.800 364.141,310.800 363.949 C 310.800 363.757,311.250 363.600,311.800 363.600 C 312.350 363.600,312.800 363.437,312.800 363.238 C 312.800 363.038,313.700 362.751,314.800 362.600 C 315.900 362.449,316.800 362.162,316.800 361.962 C 316.800 361.763,317.250 361.600,317.800 361.600 C 318.350 361.600,318.800 361.437,318.800 361.238 C 318.800 361.038,319.700 360.751,320.800 360.600 C 321.900 360.449,322.800 360.162,322.800 359.962 C 322.800 359.763,323.250 359.600,323.800 359.600 C 324.350 359.600,324.800 359.420,324.800 359.200 C 324.800 358.980,325.145 358.800,325.567 358.800 C 326.751 358.800,327.600 358.370,327.600 357.771 C 327.600 357.140,329.783 354.800,330.371 354.800 C 330.589 354.800,331.933 353.630,333.356 352.200 C 334.779 350.770,336.136 349.600,336.371 349.600 C 336.607 349.600,336.800 349.420,336.800 349.200 C 336.800 348.980,337.120 348.800,337.511 348.800 C 338.243 348.800,339.600 347.498,339.600 346.795 C 339.600 346.578,339.768 346.400,339.973 346.400 C 340.178 346.400,340.454 346.059,340.587 345.642 C 340.736 345.172,341.355 344.785,342.214 344.624 C 342.976 344.481,343.600 344.192,343.600 343.982 C 343.600 343.772,343.870 343.600,344.200 343.600 C 344.530 343.600,344.800 343.432,344.800 343.227 C 344.800 343.022,345.141 342.746,345.558 342.613 C 346.013 342.469,346.413 341.856,346.558 341.081 C 346.692 340.371,347.251 339.452,347.800 339.039 C 348.350 338.626,348.800 337.965,348.800 337.571 C 348.800 337.177,349.151 336.743,349.580 336.606 C 350.008 336.470,350.457 336.053,350.577 335.680 C 350.697 335.306,351.246 334.477,351.798 333.838 C 352.349 333.199,352.800 332.434,352.800 332.138 C 352.800 331.842,352.980 331.600,353.200 331.600 C 353.420 331.600,353.600 331.330,353.600 331.000 C 353.600 330.670,353.768 330.400,353.973 330.400 C 354.178 330.400,354.474 329.995,354.630 329.500 C 354.787 329.005,355.223 328.330,355.600 328.000 C 355.977 327.670,356.413 326.995,356.570 326.500 C 356.726 326.005,356.984 325.600,357.143 325.600 C 357.302 325.600,357.958 324.700,358.600 323.600 C 359.242 322.500,359.908 321.600,360.079 321.600 C 360.250 321.600,360.506 320.880,360.646 320.000 C 360.787 319.120,361.059 318.400,361.251 318.400 C 361.443 318.400,361.600 317.965,361.600 317.433 C 361.600 316.902,361.771 316.407,361.980 316.333 C 362.189 316.260,362.484 314.098,362.637 311.529 C 362.902 307.060,362.955 306.848,363.857 306.621 C 364.376 306.491,364.800 306.208,364.800 305.992 C 364.800 305.777,365.160 305.600,365.600 305.600 C 366.040 305.600,366.400 305.416,366.400 305.190 C 366.400 304.965,366.855 304.607,367.410 304.396 C 367.966 304.185,368.525 303.739,368.653 303.406 C 368.781 303.073,369.201 302.800,369.587 302.800 C 369.972 302.800,370.618 302.361,371.021 301.824 C 371.424 301.287,372.169 300.744,372.677 300.616 C 373.185 300.489,373.600 300.208,373.600 299.992 C 373.600 299.777,373.870 299.600,374.200 299.600 C 374.530 299.600,374.800 299.432,374.800 299.227 C 374.800 299.022,375.115 298.753,375.500 298.629 C 375.885 298.506,376.723 297.954,377.362 297.402 C 378.001 296.851,378.700 296.400,378.915 296.400 C 379.130 296.400,379.597 296.066,379.953 295.657 C 380.309 295.249,380.996 294.789,381.480 294.637 C 381.963 294.484,382.470 294.008,382.606 293.580 C 382.743 293.151,383.207 292.800,383.640 292.800 C 384.072 292.800,384.529 292.530,384.655 292.200 C 384.782 291.870,385.136 291.600,385.443 291.600 C 385.749 291.600,386.329 291.285,386.730 290.900 C 387.976 289.705,389.756 288.400,390.140 288.400 C 390.341 288.400,390.797 288.066,391.153 287.657 C 391.509 287.249,392.205 286.787,392.700 286.630 C 393.195 286.474,393.600 286.178,393.600 285.973 C 393.600 285.768,393.870 285.600,394.200 285.600 C 394.530 285.600,394.800 285.443,394.800 285.250 C 394.800 285.058,395.364 284.787,396.054 284.649 C 397.542 284.352,398.800 283.034,398.800 281.772 C 398.800 281.274,399.025 280.792,399.300 280.700 C 399.679 280.574,399.800 278.499,399.800 272.138 C 399.800 261.001,400.587 261.697,387.582 261.331 C 382.514 261.188,378.274 260.920,378.160 260.736 C 377.887 260.294,376.264 260.304,375.780 260.750 C 375.202 261.283,358.800 261.638,358.800 261.118 C 358.800 260.885,359.134 260.403,359.543 260.047 C 359.951 259.691,360.413 258.995,360.570 258.500 C 360.726 258.005,361.022 257.600,361.227 257.600 C 361.432 257.600,361.600 257.330,361.600 257.000 C 361.600 256.670,361.768 256.400,361.973 256.400 C 362.178 256.400,362.474 255.995,362.630 255.500 C 362.787 255.005,363.223 254.330,363.600 254.000 C 363.977 253.670,364.413 252.995,364.570 252.500 C 364.726 252.005,365.022 251.600,365.227 251.600 C 365.432 251.600,365.600 251.330,365.600 251.000 C 365.600 250.670,365.768 250.400,365.973 250.400 C 366.178 250.400,366.470 250.009,366.622 249.531 C 366.774 249.053,367.243 248.291,367.664 247.839 C 368.086 247.386,368.543 246.562,368.680 246.008 C 368.817 245.454,369.253 244.770,369.649 244.489 C 370.044 244.207,370.491 243.307,370.642 242.489 C 370.792 241.670,371.024 240.910,371.158 240.800 C 371.737 240.322,372.404 238.713,372.644 237.217 C 372.786 236.328,373.059 235.600,373.251 235.600 C 373.443 235.600,373.600 235.150,373.600 234.600 C 373.600 234.050,373.763 233.600,373.962 233.600 C 374.162 233.600,374.449 232.700,374.600 231.600 C 374.751 230.500,375.038 229.600,375.238 229.600 C 375.437 229.600,375.600 229.150,375.600 228.600 C 375.600 228.050,375.763 227.600,375.962 227.600 C 376.162 227.600,376.449 226.700,376.600 225.600 C 376.751 224.500,377.038 223.600,377.238 223.600 C 377.437 223.600,377.600 223.150,377.600 222.600 C 377.600 222.050,377.763 221.600,377.962 221.600 C 378.162 221.600,378.449 220.700,378.600 219.600 C 378.751 218.500,379.038 217.600,379.238 217.600 C 379.437 217.600,379.600 217.150,379.600 216.600 C 379.600 216.050,379.771 215.600,379.980 215.600 C 380.189 215.600,380.482 214.520,380.632 213.200 C 380.781 211.880,381.060 210.800,381.252 210.800 C 381.443 210.800,381.600 210.260,381.600 209.600 C 381.600 208.940,381.762 208.400,381.959 208.400 C 382.157 208.400,382.445 207.140,382.600 205.600 C 382.755 204.060,383.043 202.800,383.241 202.800 C 383.438 202.800,383.600 202.095,383.600 201.233 C 383.600 200.372,383.768 199.607,383.974 199.533 C 384.179 199.460,384.475 196.745,384.632 193.500 C 384.788 190.255,385.070 187.600,385.258 187.600 C 385.446 187.600,385.600 186.016,385.600 184.080 C 385.600 182.086,385.788 180.372,386.033 180.127 C 386.638 179.522,386.635 150.678,386.031 150.477 C 385.769 150.390,385.600 149.022,385.600 146.990 C 385.600 145.152,385.446 143.552,385.259 143.436 C 385.071 143.320,384.789 140.564,384.632 137.313 C 384.476 134.061,384.179 131.340,383.974 131.267 C 383.768 131.193,383.600 130.338,383.600 129.367 C 383.600 128.395,383.434 127.600,383.232 127.600 C 383.029 127.600,382.738 126.430,382.585 125.000 C 382.432 123.570,382.148 122.400,381.953 122.400 C 381.759 122.400,381.600 121.770,381.600 121.000 C 381.600 120.230,381.441 119.600,381.246 119.600 C 381.051 119.600,380.768 118.610,380.617 117.400 C 380.466 116.190,380.175 115.200,379.971 115.200 C 379.767 115.200,379.600 114.750,379.600 114.200 C 379.600 113.650,379.437 113.200,379.238 113.200 C 379.038 113.200,378.751 112.300,378.600 111.200 C 378.449 110.100,378.162 109.200,377.962 109.200 C 377.763 109.200,377.600 108.750,377.600 108.200 C 377.600 107.324,377.427 107.200,376.200 107.200 C 375.430 107.200,374.800 107.020,374.800 106.800 C 374.800 106.580,373.900 106.400,372.800 106.400 C 370.831 106.400,369.929 105.385,371.200 104.600 C 371.688 104.298,371.744 95.336,371.259 95.036 C 371.072 94.921,370.804 93.606,370.665 92.115 C 370.526 90.624,370.229 89.343,370.006 89.269 C 369.783 89.194,369.600 88.698,369.600 88.167 C 369.600 87.635,369.440 87.200,369.245 87.200 C 369.050 87.200,368.769 86.390,368.621 85.400 C 368.472 84.410,368.182 83.600,367.975 83.600 C 367.769 83.600,367.600 83.330,367.600 83.000 C 367.600 82.670,367.440 82.400,367.243 82.400 C 367.047 82.400,366.774 81.950,366.636 81.400 C 366.498 80.850,366.208 80.400,365.992 80.400 C 365.777 80.400,365.600 80.130,365.600 79.800 C 365.600 79.470,365.461 79.200,365.291 79.200 C 365.121 79.200,364.643 78.570,364.228 77.800 C 363.813 77.030,363.342 76.400,363.180 76.400 C 363.019 76.400,362.774 75.950,362.636 75.400 C 362.498 74.850,362.208 74.400,361.992 74.400 C 361.777 74.400,361.600 74.130,361.600 73.800 C 361.600 73.470,361.461 73.200,361.291 73.200 C 361.121 73.200,360.643 72.570,360.228 71.800 C 359.813 71.030,359.342 70.400,359.180 70.400 C 359.019 70.400,358.774 69.950,358.636 69.400 C 358.498 68.850,358.208 68.400,357.992 68.400 C 357.777 68.400,357.600 68.130,357.600 67.800 C 357.600 67.470,357.432 67.200,357.227 67.200 C 357.022 67.200,356.753 66.885,356.629 66.500 C 356.506 66.115,355.954 65.277,355.402 64.638 C 354.851 63.999,354.400 63.300,354.400 63.085 C 354.400 62.870,354.066 62.403,353.657 62.047 C 353.249 61.691,352.787 60.995,352.630 60.500 C 352.474 60.005,352.178 59.600,351.973 59.600 C 351.768 59.600,351.600 59.373,351.600 59.096 C 351.600 58.270,350.041 57.546,347.751 57.310 C 346.568 57.188,345.600 56.933,345.600 56.744 C 345.600 56.555,342.900 56.400,339.600 56.400 C 336.300 56.400,333.600 56.554,333.600 56.743 C 333.600 56.932,332.475 57.203,331.100 57.347 C 329.725 57.490,328.540 57.786,328.467 58.004 C 328.393 58.222,328.155 58.400,327.938 58.400 C 327.721 58.400,327.292 58.625,326.985 58.900 C 325.973 59.808,325.392 60.256,324.290 60.978 C 323.690 61.371,323.200 62.019,323.200 62.419 C 323.200 62.819,322.849 63.257,322.420 63.394 C 321.992 63.530,321.530 63.992,321.394 64.420 C 321.257 64.849,320.984 65.200,320.786 65.200 C 320.240 65.200,320.846 63.918,321.881 62.883 C 322.386 62.377,322.800 61.612,322.800 61.182 C 322.800 60.752,322.980 60.400,323.200 60.400 C 323.420 60.400,323.600 59.950,323.600 59.400 C 323.600 58.850,323.763 58.400,323.962 58.400 C 324.162 58.400,324.449 57.500,324.600 56.400 C 324.751 55.300,325.038 54.400,325.238 54.400 C 325.437 54.400,325.600 53.965,325.600 53.433 C 325.600 52.902,325.805 52.398,326.056 52.315 C 326.376 52.208,326.513 49.959,326.513 44.800 C 326.513 39.641,326.376 37.392,326.056 37.285 C 325.805 37.202,325.600 36.698,325.600 36.167 C 325.600 35.635,325.420 35.200,325.200 35.200 C 324.980 35.200,324.800 34.855,324.800 34.433 C 324.800 33.136,324.350 32.400,323.557 32.400 C 323.141 32.400,322.800 32.234,322.800 32.032 C 322.800 31.829,322.260 31.545,321.600 31.400 C 320.940 31.255,320.400 30.971,320.400 30.768 C 320.400 30.566,320.040 30.400,319.600 30.400 C 319.160 30.400,318.800 30.240,318.800 30.043 C 318.800 29.847,318.350 29.574,317.800 29.436 C 317.250 29.298,316.800 29.008,316.800 28.792 C 316.800 28.577,316.530 28.400,316.200 28.400 C 315.870 28.400,315.600 28.232,315.600 28.027 C 315.600 27.822,315.195 27.526,314.700 27.370 C 314.205 27.213,313.530 26.777,313.200 26.400 C 312.870 26.023,312.195 25.587,311.700 25.430 C 311.205 25.274,310.800 24.978,310.800 24.773 C 310.800 24.568,310.530 24.400,310.200 24.400 C 309.870 24.400,309.600 24.223,309.600 24.008 C 309.600 23.792,309.150 23.502,308.600 23.364 C 308.050 23.226,307.600 22.981,307.600 22.820 C 307.600 22.658,306.925 22.183,306.100 21.763 C 305.275 21.343,304.301 20.676,303.936 20.281 C 303.571 19.885,302.626 19.457,301.836 19.328 C 301.046 19.200,300.400 18.939,300.400 18.748 C 300.400 18.556,300.040 18.400,299.600 18.400 C 299.160 18.400,298.800 18.237,298.800 18.038 C 298.800 17.838,297.900 17.551,296.800 17.400 C 295.700 17.249,294.800 16.962,294.800 16.762 C 294.800 16.563,294.350 16.400,293.800 16.400 C 293.250 16.400,292.800 16.237,292.800 16.038 C 292.800 15.838,291.900 15.551,290.800 15.400 C 289.700 15.249,288.800 14.962,288.800 14.762 C 288.800 14.563,288.350 14.400,287.800 14.400 C 287.250 14.400,286.800 14.237,286.800 14.038 C 286.800 13.838,285.900 13.551,284.800 13.400 C 283.700 13.249,282.800 12.962,282.800 12.762 C 282.800 12.563,282.350 12.400,281.800 12.400 C 281.250 12.400,280.800 12.237,280.800 12.038 C 280.800 11.838,279.900 11.551,278.800 11.400 C 277.700 11.249,276.800 10.962,276.800 10.762 C 276.800 10.563,276.350 10.400,275.800 10.400 C 275.250 10.400,274.800 10.237,274.800 10.038 C 274.800 9.838,273.900 9.551,272.800 9.400 C 271.701 9.249,270.700 8.962,270.577 8.763 C 270.454 8.563,269.924 8.400,269.400 8.400 C 268.876 8.400,268.342 8.230,268.214 8.023 C 268.086 7.816,266.726 7.523,265.191 7.372 C 263.656 7.220,262.400 6.940,262.400 6.748 C 262.400 6.557,261.605 6.400,260.633 6.400 C 259.662 6.400,258.807 6.226,258.733 6.014 C 258.660 5.801,256.125 5.504,253.100 5.353 C 250.075 5.202,247.600 4.926,247.600 4.739 C 247.600 4.553,246.085 4.400,244.233 4.400 C 242.382 4.400,240.807 4.245,240.733 4.056 C 240.580 3.661,223.463 3.288,214.609 3.487 M238.800 14.597 C 245.537 15.290,248.677 15.754,254.200 16.874 C 256.400 17.321,258.650 17.776,259.200 17.886 C 264.937 19.035,277.503 23.152,283.512 25.851 C 284.673 26.373,285.720 26.800,285.837 26.800 C 286.101 26.800,296.471 31.985,298.426 33.094 C 303.946 36.227,313.943 42.800,315.396 44.253 C 315.933 44.790,315.889 44.999,314.999 46.166 C 314.450 46.886,314.000 47.588,314.000 47.725 C 314.000 48.641,306.146 61.535,304.085 64.000 C 303.442 64.770,302.683 65.850,302.399 66.400 C 302.115 66.950,301.037 68.390,300.003 69.600 C 298.970 70.810,297.788 72.340,297.376 73.000 C 296.965 73.660,294.722 76.360,292.392 79.000 C 290.063 81.640,287.284 84.880,286.217 86.200 C 280.503 93.269,255.334 118.448,233.438 139.000 C 232.735 139.660,230.543 141.730,228.567 143.600 C 226.591 145.470,222.373 149.430,219.193 152.400 C 213.368 157.841,208.381 162.605,198.419 172.243 C 190.378 180.024,190.404 180.000,189.979 180.000 C 189.746 180.000,189.702 179.550,189.872 178.900 C 190.930 174.857,189.927 148.522,188.421 140.800 C 188.228 139.810,187.862 137.920,187.607 136.600 C 187.352 135.280,187.057 133.896,186.952 133.524 C 186.754 132.822,186.329 132.705,178.420 131.187 C 171.689 129.896,168.735 128.131,166.721 124.200 C 166.271 123.320,165.857 122.548,165.801 122.484 C 165.038 121.600,161.332 121.802,160.417 122.778 C 156.500 126.955,153.021 127.397,138.471 125.568 C 136.860 125.366,134.508 125.200,133.245 125.200 C 131.981 125.200,129.959 125.017,128.751 124.794 C 127.543 124.571,124.945 124.225,122.977 124.026 C 121.010 123.826,117.330 123.451,114.800 123.191 C 107.562 122.448,103.563 120.497,101.595 116.749 L 100.834 115.299 94.117 115.025 C 82.655 114.557,77.429 114.077,75.481 113.311 C 62.088 108.050,63.432 89.165,77.452 85.613 C 78.590 85.325,81.641 85.318,87.252 85.590 C 101.682 86.290,103.386 86.215,104.261 84.832 C 107.737 79.343,113.208 78.924,139.114 82.163 C 141.691 82.486,144.970 82.868,146.400 83.012 C 158.114 84.199,162.607 86.291,164.463 91.424 C 164.820 92.411,165.220 92.817,165.880 92.860 C 166.386 92.893,166.974 92.938,167.186 92.960 C 167.399 92.982,168.118 92.140,168.784 91.089 L 169.996 89.178 168.942 87.489 C 159.569 72.474,149.704 60.904,137.000 50.027 C 134.360 47.767,132.157 45.801,132.104 45.659 C 131.962 45.277,141.552 38.528,146.392 35.605 C 162.778 25.707,179.436 19.613,200.600 15.775 C 209.909 14.087,228.307 13.519,238.800 14.597 M35.000 69.012 C 36.980 69.733,40.670 71.077,43.200 71.999 C 45.730 72.920,48.250 73.821,48.800 74.000 C 49.624 74.268,54.874 76.162,60.100 78.075 C 60.705 78.297,61.200 78.651,61.200 78.862 C 61.200 79.204,56.870 87.707,54.001 93.000 C 53.405 94.100,52.040 96.687,50.969 98.748 L 49.022 102.496 48.021 101.197 C 47.470 100.483,44.757 96.547,41.992 92.449 C 39.227 88.352,35.065 82.210,32.743 78.800 C 25.310 67.887,24.127 66.108,23.892 65.495 C 23.659 64.889,23.845 64.948,35.000 69.012 M343.389 71.490 C 349.838 79.540,361.806 98.957,360.780 99.705 C 356.739 102.649,352.819 105.252,349.000 107.529 C 346.360 109.103,342.400 111.547,340.200 112.961 C 336.898 115.084,324.837 122.354,318.800 125.861 C 317.986 126.334,315.397 127.909,313.049 129.361 C 310.700 130.812,308.708 132.000,308.622 132.000 C 308.536 132.000,306.606 133.108,304.333 134.463 C 302.060 135.818,299.030 137.592,297.600 138.406 C 296.170 139.219,292.930 141.104,290.400 142.594 C 287.870 144.084,283.460 146.657,280.600 148.311 C 277.740 149.965,274.410 151.896,273.200 152.602 C 271.990 153.308,269.683 154.641,268.073 155.565 C 266.463 156.489,264.213 157.837,263.073 158.562 C 261.933 159.286,260.190 160.335,259.200 160.892 C 256.116 162.628,240.768 171.750,237.268 173.928 C 235.436 175.067,233.833 176.000,233.706 176.000 C 233.579 176.000,232.886 176.450,232.164 177.000 C 231.443 177.550,230.747 178.000,230.618 178.000 C 230.071 178.000,198.495 198.058,189.800 203.929 C 184.602 207.438,184.445 207.452,185.337 204.308 C 186.074 201.710,187.873 193.253,188.217 190.766 C 188.544 188.407,189.095 187.811,195.772 182.600 C 196.617 181.940,198.770 180.223,200.555 178.785 C 208.950 172.020,220.603 162.967,233.000 153.577 C 234.980 152.077,239.120 148.931,242.200 146.585 C 247.233 142.752,249.644 140.923,259.407 133.526 C 260.951 132.357,262.598 131.130,263.067 130.800 C 263.537 130.470,265.666 128.850,267.800 127.200 C 269.933 125.550,272.535 123.570,273.582 122.800 C 278.272 119.349,281.958 116.520,283.864 114.909 C 285.000 113.949,287.105 112.317,288.543 111.282 C 289.980 110.247,293.574 107.420,296.530 105.000 C 299.485 102.580,303.941 98.981,306.433 97.003 C 308.925 95.025,311.962 92.493,313.182 91.377 C 314.402 90.261,317.740 87.386,320.600 84.988 C 323.460 82.589,326.375 79.982,327.078 79.194 C 327.780 78.406,329.419 76.908,330.718 75.866 C 332.017 74.824,333.300 73.573,333.569 73.086 C 333.837 72.598,334.967 71.480,336.079 70.600 C 337.191 69.720,338.287 68.595,338.515 68.100 C 339.204 66.601,339.811 67.024,343.389 71.490 M122.602 87.349 C 121.874 87.882,121.876 87.907,122.685 88.164 C 136.360 92.504,134.205 112.177,119.700 115.416 C 116.333 116.169,116.030 116.649,118.700 117.003 C 119.745 117.142,121.500 117.411,122.600 117.601 C 128.599 118.639,130.213 118.857,134.600 119.218 C 137.240 119.435,140.210 119.713,141.200 119.837 C 144.783 120.283,146.218 118.911,143.060 118.058 C 141.205 117.557,137.451 115.042,136.584 113.720 C 135.198 111.605,134.000 109.029,134.000 108.166 C 134.000 107.664,133.817 106.770,133.593 106.181 C 131.932 101.813,138.582 91.200,142.979 91.200 C 144.061 91.200,146.862 89.902,146.519 89.559 C 146.145 89.185,140.469 88.418,129.200 87.218 C 124.190 86.685,123.491 86.699,122.602 87.349 M368.947 119.602 C 369.359 120.811,369.837 122.340,370.010 123.000 C 370.184 123.660,370.707 125.640,371.172 127.400 C 375.362 143.238,376.918 162.057,375.398 178.494 C 374.643 186.667,374.431 188.025,372.114 199.600 C 371.215 204.089,367.431 216.190,365.421 221.000 C 365.146 221.660,364.685 222.830,364.397 223.600 C 360.860 233.062,350.870 249.916,342.968 259.751 C 339.251 264.377,330.498 274.006,329.153 274.948 C 328.711 275.258,327.325 276.477,326.074 277.657 C 315.801 287.348,297.795 299.027,285.200 304.168 C 283.058 305.042,281.272 305.794,279.500 306.568 C 277.808 307.306,268.940 310.263,266.162 311.015 C 260.700 312.493,259.494 312.782,254.800 313.742 C 237.834 317.209,220.886 317.687,202.600 315.213 C 179.126 312.037,148.264 299.124,133.364 286.243 L 131.875 284.956 133.837 283.390 C 155.622 266.009,173.994 239.749,182.384 214.000 C 183.916 209.298,183.714 209.587,186.600 208.003 C 187.920 207.279,189.478 206.352,190.062 205.943 C 190.646 205.535,191.205 205.200,191.304 205.200 C 191.404 205.200,193.005 204.325,194.863 203.256 C 196.721 202.187,199.312 200.718,200.621 199.991 C 201.929 199.264,203.540 198.368,204.200 198.000 C 211.918 193.695,221.754 188.434,235.000 181.524 C 241.549 178.108,277.166 160.337,285.200 156.477 C 299.130 149.784,302.769 148.048,309.400 144.929 C 313.360 143.066,318.580 140.576,321.000 139.397 C 323.420 138.217,326.390 136.812,327.600 136.274 C 328.810 135.736,333.490 133.503,338.000 131.311 C 342.510 129.119,347.910 126.534,350.000 125.565 C 352.090 124.597,356.770 122.328,360.400 120.523 C 368.069 116.711,367.968 116.722,368.947 119.602 M36.000 133.017 C 40.510 133.368,45.861 133.757,47.890 133.881 C 52.355 134.156,52.307 134.324,47.047 136.807 C 35.238 142.382,33.491 143.200,33.391 143.200 C 33.331 143.200,31.167 144.198,28.581 145.417 C 18.520 150.163,19.187 150.241,21.615 144.600 C 21.994 143.720,22.979 141.290,23.805 139.200 C 26.013 133.610,26.810 132.031,27.332 132.215 C 27.590 132.306,31.490 132.667,36.000 133.017 M129.214 137.623 C 132.396 138.735,136.800 140.254,139.000 140.998 C 141.200 141.742,146.420 143.544,150.600 145.002 C 154.780 146.461,159.010 147.930,160.000 148.266 C 160.990 148.603,161.941 149.011,162.113 149.173 C 162.420 149.460,162.306 150.936,160.997 163.600 C 160.645 167.010,160.196 171.420,160.000 173.400 C 158.213 191.444,158.448 189.974,157.520 188.902 C 157.032 188.338,124.093 137.888,123.046 136.100 C 122.605 135.348,122.955 135.435,129.214 137.623 M173.200 141.968 C 173.200 142.171,173.715 142.450,174.345 142.588 C 175.975 142.946,177.279 144.627,177.509 146.668 C 177.616 147.621,177.861 148.400,178.052 148.400 C 178.243 148.400,178.400 149.555,178.400 150.967 C 178.400 152.664,178.569 153.590,178.900 153.700 C 179.286 153.829,179.400 156.849,179.400 167.000 C 179.400 177.151,179.286 180.171,178.900 180.300 C 178.625 180.392,178.400 180.891,178.400 181.410 C 178.400 181.928,178.242 182.451,178.048 182.570 C 177.854 182.690,177.568 184.321,177.412 186.194 C 177.256 188.067,176.964 189.600,176.764 189.600 C 176.564 189.600,176.400 190.410,176.400 191.400 C 176.400 192.390,176.234 193.200,176.032 193.200 C 175.829 193.200,175.538 194.370,175.385 195.800 C 175.232 197.230,174.948 198.400,174.753 198.400 C 174.559 198.400,174.400 199.030,174.400 199.800 C 174.400 200.570,174.234 201.200,174.032 201.200 C 173.829 201.200,173.545 201.738,173.401 202.395 C 173.257 203.053,172.972 203.694,172.769 203.819 C 172.566 203.945,172.400 204.397,172.400 204.824 C 172.400 205.251,172.240 205.600,172.045 205.600 C 171.849 205.600,171.571 206.230,171.426 207.000 C 171.282 207.770,171.034 208.400,170.876 208.400 C 170.514 208.400,169.200 211.395,169.200 212.219 C 169.200 212.557,168.842 213.217,168.405 213.687 C 167.968 214.156,167.498 215.139,167.360 215.870 C 167.223 216.602,167.028 217.200,166.927 217.200 C 166.433 217.200,165.600 215.963,165.600 215.229 C 165.600 214.773,165.437 214.400,165.238 214.400 C 165.038 214.400,164.751 213.500,164.600 212.400 C 164.449 211.300,164.162 210.400,163.962 210.400 C 163.763 210.400,163.600 209.950,163.600 209.400 C 163.600 208.850,163.437 208.400,163.238 208.400 C 163.038 208.400,162.751 207.500,162.600 206.400 C 162.449 205.300,162.162 204.400,161.962 204.400 C 161.763 204.400,161.600 203.950,161.600 203.400 C 161.600 202.850,161.420 202.400,161.200 202.400 C 160.548 202.400,160.745 200.907,161.433 200.643 C 161.781 200.509,163.041 200.400,164.233 200.400 C 165.425 200.400,166.400 200.220,166.400 200.000 C 166.400 199.780,166.670 199.600,167.000 199.600 C 167.330 199.600,167.600 199.345,167.600 199.033 C 167.600 198.722,167.793 198.402,168.028 198.324 C 168.282 198.239,168.551 196.269,168.688 193.491 C 168.815 190.911,169.072 188.800,169.259 188.800 C 169.447 188.800,169.600 187.371,169.600 185.624 C 169.600 183.877,169.761 182.348,169.957 182.226 C 170.154 182.105,170.446 179.034,170.606 175.403 C 170.766 171.771,171.055 168.800,171.249 168.800 C 171.442 168.800,171.600 167.396,171.600 165.680 C 171.600 163.917,171.794 162.366,172.047 162.113 C 172.348 161.812,172.510 158.419,172.547 151.635 C 172.576 146.117,172.735 141.602,172.900 141.601 C 173.065 141.601,173.200 141.766,173.200 141.968 M92.417 144.073 C 95.589 146.017,104.234 152.058,106.353 153.811 C 111.555 158.115,113.786 160.128,118.729 164.979 C 133.433 179.407,144.279 195.446,152.419 214.800 C 154.116 218.835,156.400 225.175,156.400 225.851 C 156.400 226.252,147.221 231.511,142.399 233.873 C 128.646 240.609,116.811 244.416,99.800 247.575 C 93.279 248.786,93.515 248.835,87.600 245.066 C 60.055 227.513,39.014 200.930,27.008 168.510 C 25.573 164.634,25.569 164.642,30.600 161.745 C 46.422 152.635,63.587 146.351,80.600 143.439 C 82.580 143.100,85.100 142.659,86.200 142.458 C 87.300 142.258,88.388 142.073,88.617 142.047 C 88.846 142.021,90.556 142.933,92.417 144.073 M100.000 174.080 C 100.000 174.366,100.356 175.535,100.790 176.678 C 104.907 187.510,102.455 200.522,94.611 209.465 C 92.983 211.320,87.248 216.000,86.601 216.000 C 86.459 216.000,86.051 216.292,85.694 216.649 C 85.096 217.247,85.340 217.277,88.823 217.039 C 102.673 216.091,116.021 211.989,126.451 205.475 C 128.946 203.917,122.109 189.921,113.651 179.273 C 110.191 174.917,109.663 174.518,107.000 174.236 C 100.750 173.576,100.000 173.559,100.000 174.080 M84.000 174.643 C 74.239 176.393,58.761 182.306,55.499 185.531 C 53.593 187.415,61.720 203.067,69.379 212.261 L 72.429 215.923 74.947 216.361 C 79.427 217.141,79.250 217.365,77.570 213.048 C 74.145 204.241,74.567 195.573,78.852 186.758 C 80.879 182.588,83.396 179.484,87.816 175.703 L 89.800 174.005 88.400 174.055 C 87.630 174.083,85.650 174.348,84.000 174.643 M56.949 237.549 C 61.992 240.288,62.942 240.852,66.308 243.111 C 77.394 250.551,89.335 262.297,99.337 275.600 C 103.227 280.774,103.311 280.997,101.500 281.345 C 100.785 281.482,99.480 281.759,98.600 281.961 C 97.720 282.163,95.560 282.633,93.800 283.006 C 92.040 283.379,89.970 283.826,89.200 284.000 C 88.430 284.174,86.450 284.599,84.800 284.946 C 83.150 285.292,79.666 286.031,77.059 286.586 C 71.574 287.755,72.070 287.891,70.160 284.691 C 69.342 283.321,68.416 281.899,68.103 281.531 C 67.789 281.163,65.940 277.217,63.993 272.762 C 62.047 268.307,60.142 264.488,59.761 264.274 C 56.138 262.246,39.954 279.419,28.694 297.242 C 22.348 307.287,11.242 328.636,11.188 330.896 C 11.180 331.229,11.064 331.197,10.846 330.800 C 10.130 329.498,11.860 316.522,13.992 307.200 C 19.680 282.336,33.484 256.399,50.556 238.500 C 53.368 235.552,53.294 235.563,56.949 237.549 M151.200 245.033 C 151.200 245.162,150.570 245.879,149.800 246.626 C 149.030 247.374,148.400 248.172,148.400 248.400 C 148.400 248.628,147.794 249.402,147.054 250.121 C 146.314 250.840,145.585 251.817,145.434 252.293 C 145.283 252.770,144.808 253.270,144.380 253.406 C 143.951 253.543,143.600 253.823,143.600 254.030 C 143.600 254.236,143.150 254.797,142.600 255.275 C 142.050 255.753,141.600 256.306,141.600 256.504 C 141.600 256.701,140.880 257.597,140.000 258.495 C 139.120 259.393,138.400 260.271,138.400 260.446 C 138.400 260.903,134.076 265.200,133.616 265.200 C 133.404 265.200,132.518 265.920,131.647 266.800 C 130.776 267.680,129.869 268.400,129.631 268.400 C 129.394 268.400,129.200 268.568,129.200 268.773 C 129.200 268.978,128.849 269.257,128.420 269.394 C 127.992 269.530,127.543 269.950,127.423 270.328 C 127.303 270.706,126.574 271.355,125.802 271.771 C 125.031 272.186,124.400 272.678,124.400 272.863 C 124.400 273.048,124.130 273.200,123.800 273.200 C 123.470 273.200,123.200 273.470,123.200 273.800 C 123.200 274.130,123.020 274.400,122.800 274.400 C 122.580 274.400,122.400 274.835,122.400 275.367 C 122.400 275.898,122.176 276.408,121.903 276.499 C 121.182 276.739,121.180 293.260,121.900 293.500 C 122.175 293.592,122.400 294.102,122.400 294.633 C 122.400 295.165,122.580 295.600,122.800 295.600 C 123.020 295.600,123.200 295.870,123.200 296.200 C 123.200 296.530,123.470 296.800,123.800 296.800 C 124.130 296.800,124.400 296.980,124.400 297.200 C 124.400 297.420,124.670 297.600,125.000 297.600 C 125.330 297.600,125.600 297.757,125.600 297.950 C 125.600 298.143,126.164 298.413,126.854 298.551 C 127.543 298.689,128.398 299.135,128.754 299.544 C 129.109 299.952,129.805 300.413,130.300 300.570 C 130.795 300.726,131.200 301.022,131.200 301.227 C 131.200 301.432,131.470 301.600,131.800 301.600 C 132.130 301.600,132.400 301.768,132.400 301.973 C 132.400 302.178,132.805 302.474,133.300 302.630 C 133.795 302.787,134.470 303.223,134.800 303.600 C 135.130 303.977,135.805 304.413,136.300 304.570 C 136.795 304.726,137.200 305.022,137.200 305.227 C 137.200 305.432,137.470 305.600,137.800 305.600 C 138.130 305.600,138.400 305.768,138.400 305.973 C 138.400 306.178,138.797 306.472,139.281 306.626 C 140.863 307.128,142.125 309.600,140.800 309.600 C 140.580 309.600,140.400 309.960,140.400 310.400 C 140.400 310.840,140.243 311.200,140.051 311.200 C 139.859 311.200,139.587 311.920,139.446 312.800 C 139.306 313.680,139.013 314.400,138.795 314.400 C 138.578 314.400,138.400 314.649,138.400 314.954 C 138.400 315.259,138.131 316.024,137.802 316.654 C 137.474 317.284,137.204 318.115,137.202 318.500 C 137.201 318.885,137.020 319.200,136.800 319.200 C 136.580 319.200,136.400 319.650,136.400 320.200 C 136.400 320.750,136.222 321.200,136.005 321.200 C 135.787 321.200,135.494 321.920,135.354 322.800 C 135.213 323.680,134.941 324.400,134.749 324.400 C 134.557 324.400,134.400 324.670,134.400 325.000 C 134.400 325.330,134.240 325.600,134.045 325.600 C 133.850 325.600,133.569 326.410,133.421 327.400 C 133.272 328.390,133.026 329.200,132.873 329.200 C 132.465 329.200,131.595 331.324,131.327 332.970 C 131.200 333.757,130.939 334.400,130.748 334.400 C 130.556 334.400,130.400 334.839,130.400 335.376 C 130.400 335.913,130.230 336.458,130.023 336.586 C 129.816 336.714,129.525 337.624,129.378 338.609 C 129.230 339.594,128.950 340.400,128.755 340.400 C 128.560 340.400,128.400 340.839,128.400 341.376 C 128.400 341.913,128.220 342.464,128.000 342.600 C 127.780 342.736,127.598 343.512,127.595 344.324 C 127.586 346.692,127.239 347.535,126.365 347.307 C 125.944 347.197,125.600 346.948,125.600 346.753 C 125.600 346.559,125.375 346.400,125.100 346.400 C 124.679 346.400,115.823 342.043,111.800 339.857 C 111.140 339.498,110.375 339.204,110.100 339.202 C 109.825 339.201,109.600 339.020,109.600 338.800 C 109.600 338.580,109.330 338.400,109.000 338.400 C 108.670 338.400,108.400 338.243,108.400 338.050 C 108.400 337.858,107.836 337.587,107.146 337.449 C 106.457 337.311,105.602 336.865,105.246 336.456 C 104.891 336.048,104.156 335.574,103.614 335.403 C 103.072 335.232,102.040 334.486,101.321 333.746 C 100.602 333.006,99.828 332.400,99.600 332.400 C 99.372 332.400,98.598 331.794,97.879 331.054 C 97.160 330.314,96.183 329.585,95.707 329.434 C 95.230 329.283,94.733 328.817,94.600 328.400 C 94.467 327.983,93.970 327.517,93.493 327.366 C 93.017 327.215,92.040 326.486,91.321 325.746 C 90.602 325.006,89.837 324.400,89.621 324.400 C 88.928 324.400,86.925 322.176,86.530 320.968 C 86.320 320.326,85.755 319.622,85.274 319.405 C 84.793 319.188,84.400 318.873,84.400 318.705 C 84.400 318.537,84.048 318.400,83.618 318.400 C 83.043 318.400,82.768 318.034,82.576 317.014 C 82.418 316.172,82.026 315.535,81.579 315.393 C 81.173 315.264,80.733 314.820,80.602 314.405 C 80.470 313.990,79.966 313.594,79.481 313.525 C 78.922 313.446,78.553 313.072,78.472 312.501 C 78.393 311.940,77.979 311.510,77.372 311.357 C 76.838 311.223,76.400 310.953,76.400 310.757 C 76.400 310.560,76.040 310.400,75.600 310.400 C 75.160 310.400,74.800 310.138,74.800 309.818 C 74.800 309.498,74.372 308.808,73.848 308.284 C 73.324 307.761,72.775 306.952,72.627 306.487 C 72.480 306.021,72.017 305.533,71.600 305.400 C 71.183 305.267,70.720 304.779,70.573 304.313 C 70.091 302.797,68.582 301.676,66.625 301.383 L 64.750 301.102 66.033 300.321 C 66.739 299.892,67.573 299.285,67.886 298.971 C 68.319 298.538,69.656 298.400,73.429 298.400 C 76.476 298.400,78.400 298.245,78.400 298.000 C 78.400 297.780,79.390 297.600,80.600 297.600 C 81.810 297.600,82.800 297.435,82.800 297.234 C 82.800 297.033,84.150 296.742,85.800 296.587 C 87.450 296.433,88.800 296.147,88.800 295.953 C 88.800 295.759,89.430 295.600,90.200 295.600 C 90.970 295.600,91.600 295.439,91.600 295.242 C 91.600 295.045,93.041 294.756,94.802 294.600 C 96.563 294.444,98.104 294.155,98.226 293.958 C 98.348 293.761,98.977 293.600,99.624 293.600 C 100.271 293.600,100.800 293.446,100.800 293.257 C 100.800 293.069,102.101 292.794,103.691 292.646 C 105.281 292.498,106.757 292.203,106.971 291.989 C 107.185 291.775,107.864 291.600,108.480 291.600 C 109.096 291.600,109.600 291.420,109.600 291.200 C 109.600 290.980,110.037 290.800,110.571 290.800 C 111.929 290.800,112.800 289.782,112.800 288.195 C 112.800 287.454,112.980 286.736,113.200 286.600 C 113.693 286.296,113.747 275.200,113.256 275.200 C 113.066 275.200,112.809 274.078,112.685 272.708 C 112.517 270.848,112.248 270.045,111.630 269.543 C 111.173 269.174,110.800 268.580,110.800 268.223 C 110.800 267.867,110.530 267.471,110.200 267.345 C 109.870 267.218,109.600 266.876,109.600 266.586 C 109.600 266.295,108.976 265.396,108.214 264.587 C 107.451 263.779,106.722 262.785,106.593 262.379 C 106.465 261.973,106.017 261.533,105.600 261.400 C 105.183 261.267,104.730 260.808,104.594 260.380 C 104.457 259.951,104.178 259.600,103.973 259.600 C 103.768 259.600,103.600 259.330,103.600 259.000 C 103.600 258.567,104.044 258.400,105.200 258.400 C 106.080 258.400,106.800 258.220,106.800 258.000 C 106.800 257.780,107.700 257.600,108.800 257.600 C 109.900 257.600,110.800 257.438,110.800 257.241 C 110.800 257.043,112.060 256.755,113.600 256.600 C 115.140 256.445,116.400 256.157,116.400 255.959 C 116.400 255.762,116.940 255.600,117.600 255.600 C 118.260 255.600,118.800 255.441,118.800 255.247 C 118.800 255.052,119.968 254.768,121.396 254.615 C 122.823 254.462,124.094 254.171,124.219 253.969 C 124.345 253.766,124.887 253.600,125.424 253.600 C 125.961 253.600,126.400 253.437,126.400 253.238 C 126.400 253.038,127.300 252.751,128.400 252.600 C 129.500 252.449,130.400 252.162,130.400 251.962 C 130.400 251.763,130.850 251.600,131.400 251.600 C 131.950 251.600,132.400 251.437,132.400 251.238 C 132.400 251.038,133.300 250.751,134.400 250.600 C 135.500 250.449,136.400 250.162,136.400 249.962 C 136.400 249.763,136.850 249.600,137.400 249.600 C 137.950 249.600,138.400 249.437,138.400 249.238 C 138.400 249.038,139.300 248.751,140.400 248.600 C 141.500 248.449,142.400 248.162,142.400 247.962 C 142.400 247.763,142.850 247.600,143.400 247.600 C 143.950 247.600,144.400 247.444,144.400 247.252 C 144.400 247.061,145.043 246.800,145.830 246.673 C 147.517 246.399,149.600 245.531,149.600 245.102 C 149.600 244.936,149.960 244.800,150.400 244.800 C 150.840 244.800,151.200 244.905,151.200 245.033 M61.100 276.301 C 63.925 282.827,64.320 284.000,63.699 284.000 C 63.432 284.000,61.350 285.795,55.200 291.325 C 54.210 292.216,51.960 294.311,50.200 295.982 C 48.440 297.652,45.028 300.815,42.617 303.010 C 36.392 308.677,27.483 316.919,24.200 320.047 C 20.778 323.308,18.800 324.968,18.800 324.579 C 18.800 322.676,31.473 300.371,36.743 293.000 C 43.448 283.621,55.992 269.691,57.800 269.617 C 58.020 269.608,59.505 272.616,61.100 276.301 M386.700 271.847 C 389.074 272.053,389.838 272.469,388.666 272.919 C 388.373 273.032,380.596 278.474,371.385 285.013 L 354.638 296.902 353.219 296.418 C 352.438 296.152,351.260 295.706,350.600 295.428 C 349.940 295.149,346.026 293.589,341.901 291.961 C 337.777 290.332,334.404 288.820,334.406 288.600 C 334.412 287.787,359.301 272.678,361.200 272.334 C 365.900 271.484,379.505 271.224,386.700 271.847 M324.400 298.224 C 324.400 298.541,324.670 298.800,325.000 298.800 C 325.330 298.800,325.600 298.980,325.600 299.200 C 325.600 299.420,325.960 299.600,326.400 299.600 C 326.840 299.600,327.200 299.757,327.200 299.949 C 327.200 300.141,327.920 300.413,328.800 300.554 C 329.680 300.694,330.400 300.975,330.400 301.177 C 330.400 301.379,330.805 301.624,331.300 301.721 L 332.200 301.898 331.300 302.196 C 330.805 302.359,330.400 302.650,330.400 302.842 C 330.400 303.034,329.680 303.306,328.800 303.446 C 327.920 303.587,327.200 303.859,327.200 304.051 C 327.200 304.243,326.840 304.400,326.400 304.400 C 325.960 304.400,325.600 304.578,325.600 304.795 C 325.600 305.013,324.880 305.306,324.000 305.446 C 323.120 305.587,322.400 305.859,322.400 306.051 C 322.400 306.243,322.130 306.400,321.800 306.400 C 321.470 306.400,321.200 306.569,321.200 306.775 C 321.200 306.982,320.390 307.272,319.400 307.421 C 318.410 307.569,317.600 307.850,317.600 308.045 C 317.600 308.240,317.330 308.400,317.000 308.400 C 316.670 308.400,316.400 308.564,316.400 308.765 C 316.400 308.966,315.680 309.251,314.800 309.400 C 313.920 309.549,313.200 309.834,313.200 310.035 C 313.200 310.236,312.840 310.400,312.400 310.400 C 311.960 310.400,311.600 310.578,311.600 310.795 C 311.600 311.013,310.880 311.306,310.000 311.446 C 309.120 311.587,308.400 311.859,308.400 312.051 C 308.400 312.243,308.130 312.400,307.800 312.400 C 307.470 312.400,307.200 312.560,307.200 312.755 C 307.200 312.950,306.390 313.231,305.400 313.379 C 304.410 313.528,303.600 313.818,303.600 314.025 C 303.600 314.231,303.330 314.400,303.000 314.400 C 302.670 314.400,302.400 314.560,302.400 314.757 C 302.400 314.953,301.950 315.226,301.400 315.364 C 300.754 315.526,300.400 315.896,300.400 316.408 C 300.400 317.725,299.660 317.295,299.525 315.900 C 299.415 314.757,299.243 314.585,298.100 314.475 C 295.983 314.271,296.329 312.961,298.591 312.622 C 299.576 312.475,300.486 312.184,300.614 311.977 C 300.742 311.770,301.197 311.600,301.624 311.600 C 302.051 311.600,302.400 311.440,302.400 311.243 C 302.400 311.047,302.850 310.774,303.400 310.636 C 303.950 310.498,304.400 310.208,304.400 309.992 C 304.400 309.777,304.670 309.600,305.000 309.600 C 305.330 309.600,305.600 309.440,305.600 309.243 C 305.600 309.047,306.050 308.774,306.600 308.636 C 307.150 308.498,307.600 308.208,307.600 307.992 C 307.600 307.777,307.870 307.600,308.200 307.600 C 308.530 307.600,308.800 307.432,308.800 307.227 C 308.800 307.022,309.205 306.726,309.700 306.570 C 310.195 306.413,310.870 305.977,311.200 305.600 C 311.530 305.223,312.205 304.787,312.700 304.630 C 313.195 304.474,313.600 304.178,313.600 303.973 C 313.600 303.768,313.870 303.600,314.200 303.600 C 314.530 303.600,314.800 303.432,314.800 303.227 C 314.800 303.022,315.205 302.726,315.700 302.570 C 316.195 302.413,316.870 301.977,317.200 301.600 C 317.530 301.223,318.205 300.787,318.700 300.630 C 319.195 300.474,319.600 300.178,319.600 299.973 C 319.600 299.768,319.870 299.600,320.200 299.600 C 320.530 299.600,320.800 299.432,320.800 299.227 C 320.800 299.022,321.197 298.728,321.681 298.574 C 322.166 298.420,322.811 298.047,323.114 297.744 C 323.739 297.118,324.400 297.365,324.400 298.224 M352.000 308.262 C 352.000 308.788,349.024 313.896,346.675 317.400 C 340.939 325.957,336.517 331.120,331.600 335.003 C 329.730 336.479,326.580 339.229,324.600 341.113 C 322.620 342.997,319.787 345.695,318.305 347.108 C 315.885 349.415,315.212 349.813,311.705 351.012 C 309.557 351.746,303.030 353.992,297.200 356.003 C 278.125 362.583,279.203 362.360,282.238 359.103 C 283.317 357.944,286.302 354.746,288.871 351.995 C 294.637 345.819,294.189 346.332,302.511 336.400 C 306.290 331.890,309.880 327.660,310.489 327.000 C 311.098 326.340,311.597 325.669,311.598 325.510 C 311.600 325.191,312.990 324.533,319.000 322.003 C 321.200 321.077,323.540 320.081,324.200 319.789 C 327.682 318.248,329.551 317.449,335.400 314.997 C 338.920 313.521,342.610 311.948,343.600 311.500 C 350.367 308.440,352.000 307.810,352.000 308.262 M64.261 318.652 C 84.754 342.613,114.971 361.147,143.700 367.377 C 144.305 367.508,144.800 367.794,144.800 368.012 C 144.800 368.375,143.884 368.844,137.800 371.600 C 136.700 372.098,134.720 372.998,133.400 373.600 C 132.080 374.202,130.100 375.102,129.000 375.600 C 127.900 376.098,125.920 376.998,124.600 377.600 C 123.280 378.202,121.300 379.102,120.200 379.600 C 117.400 380.868,113.997 382.430,109.844 384.353 C 105.281 386.466,106.294 386.638,94.061 381.675 L 83.521 377.400 71.161 345.243 C 59.400 314.647,57.865 310.381,59.503 312.852 C 59.886 313.431,62.027 316.041,64.261 318.652 M155.942 319.107 C 162.077 334.840,171.753 350.669,182.863 363.148 C 187.907 368.814,187.788 368.552,185.181 368.215 C 183.982 368.060,182.370 367.777,181.600 367.585 C 180.830 367.393,178.850 366.940,177.200 366.578 C 175.550 366.216,173.660 365.758,173.000 365.560 C 172.340 365.363,170.180 364.730,168.200 364.155 C 164.454 363.067,156.724 360.359,154.540 359.370 C 153.846 359.057,153.176 358.800,153.050 358.800 C 152.382 358.800,138.883 352.220,138.220 351.571 C 137.842 351.202,138.270 349.585,139.431 347.000 C 139.727 346.340,140.954 343.370,142.158 340.400 C 148.048 325.863,150.082 320.895,150.617 319.740 C 150.938 319.046,151.200 318.376,151.200 318.251 C 151.200 317.665,153.194 313.601,153.478 313.607 C 153.655 313.611,154.764 316.086,155.942 319.107 M175.780 321.233 C 175.989 321.435,176.664 321.600,177.280 321.600 C 177.896 321.600,178.400 321.759,178.400 321.953 C 178.400 322.148,179.570 322.432,181.000 322.585 C 182.430 322.738,183.600 323.029,183.600 323.232 C 183.600 323.434,184.215 323.600,184.967 323.600 C 185.718 323.600,186.393 323.774,186.467 323.986 C 186.540 324.199,188.355 324.495,190.500 324.645 C 192.645 324.795,194.400 325.072,194.400 325.259 C 194.400 325.447,195.915 325.600,197.767 325.600 C 199.634 325.600,201.193 325.776,201.267 325.996 C 201.346 326.231,205.029 326.502,210.316 326.661 C 215.220 326.808,219.325 327.079,219.440 327.264 C 219.711 327.703,229.600 327.703,229.600 327.264 C 229.600 327.079,233.686 326.809,238.680 326.663 C 243.814 326.514,247.935 326.225,248.160 326.000 C 248.380 325.780,249.964 325.600,251.680 325.600 C 253.493 325.600,254.800 325.432,254.800 325.200 C 254.800 324.980,255.475 324.814,256.300 324.832 C 257.777 324.863,257.783 324.869,256.700 325.265 C 256.095 325.486,255.600 325.832,255.600 326.033 C 255.600 326.235,255.330 326.400,255.000 326.400 C 254.670 326.400,254.400 326.568,254.400 326.773 C 254.400 326.978,253.995 327.274,253.500 327.430 C 253.005 327.587,252.330 328.023,252.000 328.400 C 251.670 328.777,250.950 329.227,250.400 329.400 C 249.850 329.573,249.130 330.023,248.800 330.400 C 248.470 330.777,247.795 331.213,247.300 331.370 C 246.805 331.526,246.400 331.822,246.400 332.027 C 246.400 332.232,246.130 332.400,245.800 332.400 C 245.470 332.400,245.200 332.560,245.200 332.757 C 245.200 332.953,244.750 333.226,244.200 333.364 C 243.650 333.502,243.200 333.792,243.200 334.008 C 243.200 334.223,242.859 334.400,242.443 334.400 C 242.026 334.400,241.582 334.670,241.455 335.000 C 241.329 335.330,240.872 335.600,240.440 335.600 C 240.007 335.600,239.546 335.939,239.415 336.352 C 239.284 336.766,238.687 337.204,238.088 337.325 C 237.490 337.446,236.626 337.895,236.169 338.324 C 235.712 338.752,234.947 339.226,234.469 339.378 C 233.991 339.530,233.600 339.822,233.600 340.027 C 233.600 340.232,233.330 340.400,233.000 340.400 C 232.670 340.400,232.400 340.577,232.400 340.792 C 232.400 341.008,231.950 341.298,231.400 341.436 C 230.850 341.574,230.400 341.847,230.400 342.043 C 230.400 342.240,230.130 342.400,229.800 342.400 C 229.470 342.400,229.200 342.568,229.200 342.773 C 229.200 342.978,228.795 343.274,228.300 343.430 C 227.805 343.587,227.130 344.023,226.800 344.400 C 226.470 344.777,225.795 345.213,225.300 345.370 C 224.805 345.526,224.400 345.822,224.400 346.027 C 224.400 346.232,224.130 346.400,223.800 346.400 C 223.470 346.400,223.200 346.560,223.200 346.757 C 223.200 346.953,222.750 347.226,222.200 347.364 C 221.650 347.502,221.200 347.792,221.200 348.008 C 221.200 348.223,220.859 348.400,220.443 348.400 C 220.026 348.400,219.582 348.670,219.455 349.000 C 219.329 349.330,218.872 349.600,218.440 349.600 C 218.007 349.600,217.546 349.939,217.415 350.352 C 217.277 350.787,216.651 351.210,215.934 351.353 C 215.251 351.490,214.402 351.935,214.046 352.344 C 213.691 352.752,212.995 353.213,212.500 353.370 C 212.005 353.526,211.600 353.822,211.600 354.027 C 211.600 354.232,211.330 354.400,211.000 354.400 C 210.670 354.400,210.400 354.577,210.400 354.792 C 210.400 355.008,209.950 355.298,209.400 355.436 C 208.850 355.574,208.400 355.847,208.400 356.043 C 208.400 356.240,208.130 356.400,207.800 356.400 C 207.470 356.400,207.200 356.568,207.200 356.773 C 207.200 356.978,206.795 357.274,206.300 357.430 C 205.805 357.587,205.109 358.049,204.753 358.457 C 204.397 358.866,203.974 359.200,203.814 359.200 C 203.402 359.200,200.642 360.505,200.400 360.814 C 199.520 361.937,197.600 361.913,197.600 360.779 C 197.600 360.131,197.443 359.600,197.251 359.600 C 197.059 359.600,196.787 358.880,196.646 358.000 C 196.506 357.120,196.213 356.400,195.995 356.400 C 195.778 356.400,195.600 356.130,195.600 355.800 C 195.600 355.470,195.420 355.200,195.200 355.200 C 194.980 355.200,194.800 354.860,194.800 354.443 C 194.800 353.961,194.421 353.591,193.752 353.424 C 192.602 353.135,191.600 352.299,191.600 351.629 C 191.600 351.393,191.440 351.200,191.245 351.200 C 191.049 351.200,190.778 350.606,190.642 349.881 C 190.435 348.782,190.094 348.438,188.597 347.821 C 187.367 347.313,186.800 346.842,186.800 346.327 C 186.800 345.913,186.530 345.471,186.200 345.345 C 185.870 345.218,185.600 344.855,185.600 344.538 C 185.600 344.221,185.150 343.545,184.600 343.035 C 184.050 342.525,183.600 341.904,183.600 341.654 C 183.600 341.404,183.432 341.200,183.227 341.200 C 183.022 341.200,182.743 340.849,182.606 340.420 C 182.470 339.992,182.027 339.536,181.621 339.407 C 181.174 339.265,180.782 338.628,180.624 337.786 C 180.481 337.024,180.192 336.400,179.982 336.400 C 179.772 336.400,179.600 336.130,179.600 335.800 C 179.600 335.470,179.420 335.200,179.200 335.200 C 178.980 335.200,178.800 334.913,178.800 334.562 C 178.800 333.868,177.701 331.737,176.900 330.879 C 176.625 330.584,176.400 330.086,176.400 329.771 C 176.400 329.457,176.220 329.200,176.000 329.200 C 175.780 329.200,175.600 328.840,175.600 328.400 C 175.600 327.960,175.434 327.600,175.232 327.600 C 175.029 327.600,174.745 327.060,174.600 326.400 C 174.455 325.740,174.171 325.200,173.968 325.200 C 173.766 325.200,173.600 324.840,173.600 324.400 C 173.600 323.960,173.434 323.600,173.232 323.600 C 173.029 323.600,172.745 323.060,172.600 322.400 C 172.455 321.740,172.171 321.200,171.968 321.200 C 171.766 321.200,171.600 321.000,171.600 320.755 C 171.600 320.233,175.168 320.642,175.780 321.233 M288.562 325.689 C 273.525 343.240,253.159 357.971,231.588 366.900 C 226.985 368.805,224.202 369.797,216.200 372.384 C 213.290 373.324,205.033 375.232,204.349 375.121 C 203.872 375.045,207.157 372.758,213.298 368.891 C 218.634 365.530,229.210 358.835,236.800 354.013 C 244.390 349.190,253.576 343.355,257.213 341.046 C 263.310 337.176,287.218 324.880,288.762 324.821 C 289.180 324.805,289.129 325.027,288.562 325.689 " stroke="currentColor" fill="currentColor" fill-rule="evenodd"></path><path id="path1" d="M208.400 14.789 C 201.686 15.542,201.421 15.584,194.000 17.058 C 173.859 21.060,154.157 29.616,137.104 41.768 C 134.301 43.766,132.051 45.517,132.104 45.659 C 132.157 45.801,134.360 47.767,137.000 50.027 C 149.704 60.904,159.569 72.474,168.942 87.489 L 169.996 89.178 168.784 91.089 C 168.118 92.140,167.399 92.982,167.186 92.960 C 166.974 92.938,166.386 92.893,165.880 92.860 C 165.220 92.817,164.820 92.411,164.463 91.424 C 162.607 86.291,158.114 84.199,146.400 83.012 C 144.970 82.868,141.691 82.486,139.114 82.163 C 113.208 78.924,107.737 79.343,104.261 84.832 C 103.386 86.215,101.682 86.290,87.252 85.590 C 81.641 85.318,78.590 85.325,77.452 85.613 C 63.432 89.165,62.088 108.050,75.481 113.311 C 77.429 114.077,82.655 114.557,94.117 115.025 L 100.834 115.299 101.595 116.749 C 103.563 120.497,107.562 122.448,114.800 123.191 C 117.330 123.451,121.010 123.826,122.977 124.026 C 124.945 124.225,127.543 124.571,128.751 124.794 C 129.959 125.017,131.981 125.200,133.245 125.200 C 134.508 125.200,136.860 125.366,138.471 125.568 C 153.021 127.397,156.500 126.955,160.417 122.778 C 161.332 121.802,165.038 121.600,165.801 122.484 C 165.857 122.548,166.271 123.320,166.721 124.200 C 168.735 128.131,171.689 129.896,178.420 131.187 C 186.329 132.705,186.754 132.822,186.952 133.524 C 187.057 133.896,187.352 135.280,187.607 136.600 C 187.862 137.920,188.228 139.810,188.421 140.800 C 189.927 148.522,190.930 174.857,189.872 178.900 C 189.702 179.550,189.746 180.000,189.979 180.000 C 190.404 180.000,190.378 180.024,198.419 172.243 C 208.381 162.605,213.368 157.841,219.193 152.400 C 222.373 149.430,226.591 145.470,228.567 143.600 C 230.543 141.730,232.735 139.660,233.438 139.000 C 255.334 118.448,280.503 93.269,286.217 86.200 C 287.284 84.880,290.063 81.640,292.392 79.000 C 294.722 76.360,296.965 73.660,297.376 73.000 C 297.788 72.340,298.970 70.810,300.003 69.600 C 301.037 68.390,302.115 66.950,302.399 66.400 C 302.683 65.850,303.442 64.770,304.085 64.000 C 306.146 61.535,314.000 48.641,314.000 47.725 C 314.000 47.588,314.450 46.886,314.999 46.166 C 315.889 44.999,315.933 44.790,315.396 44.253 C 313.943 42.800,303.946 36.227,298.426 33.094 C 296.471 31.985,286.101 26.800,285.837 26.800 C 285.720 26.800,284.673 26.373,283.512 25.851 C 277.503 23.152,264.937 19.035,259.200 17.886 C 258.650 17.776,256.400 17.321,254.200 16.874 C 240.013 13.996,222.559 13.201,208.400 14.789 M23.892 65.495 C 24.127 66.108,25.310 67.887,32.743 78.800 C 35.065 82.210,39.227 88.352,41.992 92.449 C 44.757 96.547,47.470 100.483,48.021 101.197 L 49.022 102.496 50.969 98.748 C 52.040 96.687,53.405 94.100,54.001 93.000 C 56.870 87.707,61.200 79.204,61.200 78.862 C 61.200 78.651,60.705 78.297,60.100 78.075 C 54.874 76.162,49.624 74.268,48.800 74.000 C 48.250 73.821,45.730 72.920,43.200 71.999 C 40.670 71.077,36.980 69.733,35.000 69.012 C 23.845 64.948,23.659 64.889,23.892 65.495 M338.515 68.100 C 338.287 68.595,337.191 69.720,336.079 70.600 C 334.967 71.480,333.837 72.598,333.569 73.086 C 333.300 73.573,332.017 74.824,330.718 75.866 C 329.419 76.908,327.780 78.406,327.078 79.194 C 326.375 79.982,323.460 82.589,320.600 84.988 C 317.740 87.386,314.402 90.261,313.182 91.377 C 311.962 92.493,308.925 95.025,306.433 97.003 C 303.941 98.981,299.485 102.580,296.530 105.000 C 293.574 107.420,289.980 110.247,288.543 111.282 C 287.105 112.317,285.000 113.949,283.864 114.909 C 281.958 116.520,278.272 119.349,273.582 122.800 C 272.535 123.570,269.933 125.550,267.800 127.200 C 265.666 128.850,263.537 130.470,263.067 130.800 C 262.598 131.130,260.951 132.357,259.407 133.526 C 249.644 140.923,247.233 142.752,242.200 146.585 C 239.120 148.931,234.980 152.077,233.000 153.577 C 220.603 162.967,208.950 172.020,200.555 178.785 C 198.770 180.223,196.617 181.940,195.772 182.600 C 189.095 187.811,188.544 188.407,188.217 190.766 C 187.873 193.253,186.074 201.710,185.337 204.308 C 184.445 207.452,184.602 207.438,189.800 203.929 C 198.495 198.058,230.071 178.000,230.618 178.000 C 230.747 178.000,231.443 177.550,232.164 177.000 C 232.886 176.450,233.579 176.000,233.706 176.000 C 233.833 176.000,235.436 175.067,237.268 173.928 C 240.768 171.750,256.116 162.628,259.200 160.892 C 260.190 160.335,261.933 159.286,263.073 158.562 C 264.213 157.837,266.463 156.489,268.073 155.565 C 269.683 154.641,271.990 153.308,273.200 152.602 C 274.410 151.896,277.740 149.965,280.600 148.311 C 283.460 146.657,287.870 144.084,290.400 142.594 C 292.930 141.104,296.170 139.219,297.600 138.406 C 299.030 137.592,302.060 135.818,304.333 134.463 C 306.606 133.108,308.536 132.000,308.622 132.000 C 308.708 132.000,310.700 130.812,313.049 129.361 C 315.397 127.909,317.986 126.334,318.800 125.861 C 324.837 122.354,336.898 115.084,340.200 112.961 C 342.400 111.547,346.360 109.103,349.000 107.529 C 352.819 105.252,356.739 102.649,360.780 99.705 C 361.806 98.957,349.838 79.540,343.389 71.490 C 339.811 67.024,339.204 66.601,338.515 68.100 M129.200 87.218 C 140.469 88.418,146.145 89.185,146.519 89.559 C 146.862 89.902,144.061 91.200,142.979 91.200 C 138.582 91.200,131.932 101.813,133.593 106.181 C 133.817 106.770,134.000 107.664,134.000 108.166 C 134.000 109.029,135.198 111.605,136.584 113.720 C 137.451 115.042,141.205 117.557,143.060 118.058 C 146.218 118.911,144.783 120.283,141.200 119.837 C 140.210 119.713,137.240 119.435,134.600 119.218 C 130.213 118.857,128.599 118.639,122.600 117.601 C 121.500 117.411,119.745 117.142,118.700 117.003 C 116.030 116.649,116.333 116.169,119.700 115.416 C 134.205 112.177,136.360 92.504,122.685 88.164 C 121.876 87.907,121.874 87.882,122.602 87.349 C 123.491 86.699,124.190 86.685,129.200 87.218 M360.400 120.523 C 356.770 122.328,352.090 124.597,350.000 125.565 C 347.910 126.534,342.510 129.119,338.000 131.311 C 333.490 133.503,328.810 135.736,327.600 136.274 C 326.390 136.812,323.420 138.217,321.000 139.397 C 318.580 140.576,313.360 143.066,309.400 144.929 C 302.769 148.048,299.130 149.784,285.200 156.477 C 277.166 160.337,241.549 178.108,235.000 181.524 C 221.754 188.434,211.918 193.695,204.200 198.000 C 203.540 198.368,201.929 199.264,200.621 199.991 C 199.312 200.718,196.721 202.187,194.863 203.256 C 193.005 204.325,191.404 205.200,191.304 205.200 C 191.205 205.200,190.646 205.535,190.062 205.943 C 189.478 206.352,187.920 207.279,186.600 208.003 C 183.714 209.587,183.916 209.298,182.384 214.000 C 173.994 239.749,155.622 266.009,133.837 283.390 L 131.875 284.956 133.364 286.243 C 147.150 298.160,173.230 309.602,197.600 314.424 C 211.476 317.169,230.292 317.470,246.600 315.207 C 254.744 314.078,264.275 311.781,273.262 308.783 C 275.978 307.877,278.785 306.880,279.500 306.568 C 281.272 305.794,283.058 305.042,285.200 304.168 C 297.795 299.027,315.801 287.348,326.074 277.657 C 327.325 276.477,328.711 275.258,329.153 274.948 C 330.498 274.006,339.251 264.377,342.968 259.751 C 350.870 249.916,360.860 233.062,364.397 223.600 C 364.685 222.830,365.146 221.660,365.421 221.000 C 367.431 216.190,371.215 204.089,372.114 199.600 C 374.431 188.025,374.643 186.667,375.398 178.494 C 376.918 162.057,375.362 143.238,371.172 127.400 C 370.707 125.640,370.184 123.660,370.010 123.000 C 368.260 116.340,368.625 116.434,360.400 120.523 M26.085 133.725 C 25.656 134.646,24.630 137.110,23.805 139.200 C 22.979 141.290,21.994 143.720,21.615 144.600 C 19.187 150.241,18.520 150.163,28.581 145.417 C 31.167 144.198,33.331 143.200,33.391 143.200 C 33.491 143.200,35.238 142.382,47.047 136.807 C 52.307 134.324,52.355 134.156,47.890 133.881 C 41.260 133.474,27.811 132.384,27.332 132.215 C 27.075 132.124,26.514 132.804,26.085 133.725 M123.046 136.100 C 124.093 137.888,157.032 188.338,157.520 188.902 C 158.448 189.974,158.213 191.444,160.000 173.400 C 160.196 171.420,160.645 167.010,160.997 163.600 C 162.306 150.936,162.420 149.460,162.113 149.173 C 161.941 149.011,160.990 148.603,160.000 148.266 C 159.010 147.930,154.780 146.461,150.600 145.002 C 146.420 143.544,141.200 141.742,139.000 140.998 C 136.800 140.254,132.396 138.735,129.214 137.623 C 122.955 135.435,122.605 135.348,123.046 136.100 M86.200 142.458 C 85.100 142.659,82.580 143.100,80.600 143.439 C 63.587 146.351,46.422 152.635,30.600 161.745 C 25.569 164.642,25.573 164.634,27.008 168.510 C 39.014 200.930,60.055 227.513,87.600 245.066 C 93.515 248.835,93.279 248.786,99.800 247.575 C 116.811 244.416,128.646 240.609,142.399 233.873 C 147.221 231.511,156.400 226.252,156.400 225.851 C 156.400 225.175,154.116 218.835,152.419 214.800 C 144.279 195.446,133.433 179.407,118.729 164.979 C 113.786 160.128,111.555 158.115,106.353 153.811 C 102.200 150.375,89.494 141.948,88.617 142.047 C 88.388 142.073,87.300 142.258,86.200 142.458 M107.000 174.236 C 109.663 174.518,110.191 174.917,113.651 179.273 C 122.109 189.921,128.946 203.917,126.451 205.475 C 116.021 211.989,102.673 216.091,88.823 217.039 C 85.340 217.277,85.096 217.247,85.694 216.649 C 86.051 216.292,86.459 216.000,86.601 216.000 C 87.248 216.000,92.983 211.320,94.611 209.465 C 102.455 200.522,104.907 187.510,100.790 176.678 C 99.475 173.218,99.027 173.394,107.000 174.236 M87.816 175.703 C 83.396 179.484,80.879 182.588,78.852 186.758 C 74.567 195.573,74.145 204.241,77.570 213.048 C 79.250 217.365,79.427 217.141,74.947 216.361 L 72.429 215.923 69.379 212.261 C 61.720 203.067,53.593 187.415,55.499 185.531 C 59.486 181.589,80.247 174.348,88.400 174.055 L 89.800 174.005 87.816 175.703 M50.556 238.500 C 33.484 256.399,19.680 282.336,13.992 307.200 C 11.860 316.522,10.130 329.498,10.846 330.800 C 11.064 331.197,11.180 331.229,11.188 330.896 C 11.242 328.636,22.348 307.287,28.694 297.242 C 39.954 279.419,56.138 262.246,59.761 264.274 C 60.142 264.488,62.047 268.307,63.993 272.762 C 65.940 277.217,67.789 281.163,68.103 281.531 C 68.416 281.899,69.342 283.321,70.160 284.691 C 72.070 287.891,71.574 287.755,77.059 286.586 C 79.666 286.031,83.150 285.292,84.800 284.946 C 86.450 284.599,88.430 284.174,89.200 284.000 C 89.970 283.826,92.040 283.379,93.800 283.006 C 95.560 282.633,97.720 282.163,98.600 281.961 C 99.480 281.759,100.785 281.482,101.500 281.345 C 103.311 280.997,103.227 280.774,99.337 275.600 C 87.926 260.423,73.223 246.623,61.400 239.994 C 52.872 235.213,53.596 235.313,50.556 238.500 M53.980 272.917 C 41.651 284.751,32.622 297.349,22.927 316.243 C 20.657 320.667,18.800 324.418,18.800 324.579 C 18.800 324.968,20.778 323.308,24.200 320.047 C 27.483 316.919,36.392 308.677,42.617 303.010 C 45.028 300.815,48.440 297.652,50.200 295.982 C 51.960 294.311,54.210 292.216,55.200 291.325 C 61.350 285.795,63.432 284.000,63.699 284.000 C 63.864 284.000,64.000 283.775,64.000 283.501 C 64.000 282.578,58.205 269.601,57.800 269.617 C 57.580 269.626,55.861 271.111,53.980 272.917 M369.800 271.663 C 359.659 272.178,361.002 271.664,346.905 280.430 C 340.032 284.704,334.408 288.380,334.406 288.600 C 334.404 288.820,337.777 290.332,341.901 291.961 C 346.026 293.589,349.940 295.149,350.600 295.428 C 351.260 295.706,352.438 296.152,353.219 296.418 L 354.638 296.902 371.385 285.013 C 380.596 278.474,388.373 273.032,388.666 272.919 C 391.608 271.790,381.091 271.090,369.800 271.663 M348.400 309.382 C 346.750 310.099,344.590 311.052,343.600 311.500 C 342.610 311.948,338.920 313.521,335.400 314.997 C 329.551 317.449,327.682 318.248,324.200 319.789 C 323.540 320.081,321.200 321.077,319.000 322.003 C 312.990 324.533,311.600 325.191,311.598 325.510 C 311.597 325.669,311.098 326.340,310.489 327.000 C 309.880 327.660,306.290 331.890,302.511 336.400 C 294.189 346.332,294.637 345.819,288.871 351.995 C 286.302 354.746,283.317 357.944,282.238 359.103 C 279.203 362.360,278.125 362.583,297.200 356.003 C 303.030 353.992,309.557 351.746,311.705 351.012 C 315.212 349.813,315.885 349.415,318.305 347.108 C 319.787 345.695,322.620 342.997,324.600 341.113 C 326.580 339.229,329.730 336.479,331.600 335.003 C 337.555 330.300,345.498 320.304,350.544 311.162 C 352.611 307.416,352.719 307.505,348.400 309.382 M58.803 312.443 C 58.801 312.797,64.362 327.557,71.161 345.243 L 83.521 377.400 94.061 381.675 C 106.294 386.638,105.281 386.466,109.844 384.353 C 113.997 382.430,117.400 380.868,120.200 379.600 C 121.300 379.102,123.280 378.202,124.600 377.600 C 125.920 376.998,127.900 376.098,129.000 375.600 C 130.100 375.102,132.080 374.202,133.400 373.600 C 134.720 372.998,136.700 372.098,137.800 371.600 C 143.884 368.844,144.800 368.375,144.800 368.012 C 144.800 367.794,144.305 367.508,143.700 367.377 C 123.812 363.064,99.284 350.805,82.600 336.839 C 75.338 330.761,62.614 317.546,59.503 312.852 C 59.030 312.139,58.804 312.007,58.803 312.443 M152.178 315.811 C 151.640 317.028,151.200 318.125,151.200 318.251 C 151.200 318.376,150.938 319.046,150.617 319.740 C 150.082 320.895,148.048 325.863,142.158 340.400 C 140.954 343.370,139.727 346.340,139.431 347.000 C 138.270 349.585,137.842 351.202,138.220 351.571 C 138.883 352.220,152.382 358.800,153.050 358.800 C 153.176 358.800,153.846 359.057,154.540 359.370 C 156.724 360.359,164.454 363.067,168.200 364.155 C 170.180 364.730,172.340 365.363,173.000 365.560 C 173.660 365.758,175.550 366.216,177.200 366.578 C 178.850 366.940,180.830 367.393,181.600 367.585 C 182.370 367.777,183.982 368.060,185.181 368.215 C 187.788 368.552,187.907 368.814,182.863 363.148 C 171.753 350.669,162.077 334.840,155.942 319.107 C 153.498 312.839,153.494 312.836,152.178 315.811 M276.013 330.845 C 267.985 334.800,261.570 338.280,257.213 341.046 C 253.576 343.355,244.390 349.190,236.800 354.013 C 229.210 358.835,218.634 365.530,213.298 368.891 C 207.157 372.758,203.872 375.045,204.349 375.121 C 205.033 375.232,213.290 373.324,216.200 372.384 C 224.202 369.797,226.985 368.805,231.588 366.900 C 253.159 357.971,273.525 343.240,288.562 325.689 C 289.916 324.109,288.552 324.670,276.013 330.845 " stroke="currentColor" fill="currentColor" fill-rule="evenodd"></path></g></svg>
