<?xml version="1.0" encoding="UTF-8" standalone="no"?>
<!-- Created with Inkscape (http://www.inkscape.org/) -->

<svg
   version="1.1"
   id="svg1566"
   width="1080"
   height="1080"
   viewBox="0 0 1080 1080"
   sodipodi:docname="JAKALCOMETWERKS.svg"
   inkscape:version="1.2.2 (732a01da63, 2022-12-09)"
   xmlns:inkscape="http://www.inkscape.org/namespaces/inkscape"
   xmlns:sodipodi="http://sodipodi.sourceforge.net/DTD/sodipodi-0.dtd"
   xmlns="http://www.w3.org/2000/svg"
   xmlns:svg="http://www.w3.org/2000/svg">
  <defs
     id="defs1570" />
  <sodipodi:namedview
     id="namedview1568"
     pagecolor="#ffffff"
     bordercolor="#000000"
     borderopacity="0.25"
     inkscape:showpageshadow="2"
     inkscape:pageopacity="0.0"
     inkscape:pagecheckerboard="0"
     inkscape:deskcolor="#d1d1d1"
     showgrid="false"
     inkscape:zoom="0.35355339"
     inkscape:cx="284.25692"
     inkscape:cy="230.51681"
     inkscape:window-width="1920"
     inkscape:window-height="1001"
     inkscape:window-x="-9"
     inkscape:window-y="-9"
     inkscape:window-maximized="1"
     inkscape:current-layer="svg1566" />
  <g
     id="layer2"
     inkscape:label="Image 1"
     transform="matrix(0.59933035,0,0,0.59933035,89.999999,98.466439)">
    <path
       id="path1685"
       style="fill:#000000;stroke-width:0.199993"
       d="M 327.44835,928.53983 C 219.63295,879.47424 101.57562,724.25709 61.02863,596.76562 137.31824,549.22723 222.54005,517.41161 312.57015,508.282 430.48998,581.83319 530.96507,715.54378 576.85091,838.46119 501.72113,884.143 402.31206,919.05733 327.44835,928.53983 Z M 307.59368,804.42154 c 54.77404,-2.38135 112.61208,-18.54198 156.28207,-50.1137 C 449.77579,724.35107 401.6337,630.27387 353.59071,634.0999 c 30.61016,61.67446 0.79955,142.33207 -59.72072,170.42681 4.78328,0.29262 9.63446,0.0144 13.72369,-0.10517 z m -35.08516,-0.93394 c -32.21255,-57.35154 -11.34024,-137.146 44.34784,-170.11366 -49.56319,3.17452 -100.54939,20.53079 -141.73284,47.89046 15.45676,45.29885 38.77501,87.82667 73.3747,119.62908 7.90977,1.09185 16.25262,2.53784 24.0103,2.59412 z m 311.7787,-107.83158 c -46.5229,-71.56383 -93.80934,-143.34046 -139.92287,-214.7949 51.91224,19.03814 108.33997,35.27497 157.4452,56.1483 -5.66932,53.19995 -10.83138,107.16832 -16.73449,159.896 l -0.78794,-1.24824 z M 37.65579,534.25776 c 10.21962,-21.02802 16.33941,-48.98403 29.25395,-65.54416 32.8517,2.62468 65.70221,5.26512 98.55322,7.89844 -42.95783,19.96664 -85.88327,40.10615 -128.80021,60.09572 z" />
    <path
       id="path1681"
       style="fill:#000000;stroke-width:0.199993"
       d="M 827.75897,1198.888 C 703.08439,1195.1389 577.54587,1150.4062 481.03951,1073.254 578.73489,998.17453 650.61979,891.18604 687.76141,774.52228 867.66571,668.7244 1057.0139,579.74924 1245.4133,488.9709 c 57.348,-26.64195 114.1559,-53.18187 170.8064,-81.63578 71.421,205.84535 18.8659,448.29499 -133.0672,604.86698 -116.0999,123.7224 -285.85381,193.31 -455.39353,186.6859 z M 689.4319,765.99586 c 9.27228,-24.72029 9.63136,-54.09551 19.33511,-77.26626 137.83451,-113.26274 282.13368,-215.90309 422.67239,-326.80908 41.7162,-33.38667 83.1015,-67.13574 122.239,-103.06359 16.811,-15.10456 35.3613,-34.49846 50.7495,-48.40284 32.5661,39.17954 64.1311,83.58935 82.9532,129.49423 -68.4316,45.43908 -141.1092,88.60739 -211.7446,129.98914 -163.6136,96.01279 -329.05408,189.84076 -486.2046,296.0584 z m 20.43064,-106.3881 c 5.75242,-62.98043 3.57296,-128.58853 -11.79491,-189.44764 -62.92291,-11.88949 -65.71162,-6.90684 -78.89474,-32.3909 -1.4459,-2.29167 -2.57313,-7.80784 -2.57313,-7.80784 0,0 -16.23732,-2.57567 -21.73275,-2.61428 -11.50773,25.28795 -13.93397,25.05493 -48.69125,21.04841 -38.59033,-3.94362 -136.03562,-14.60515 -173.875,-23.10846 -18.53286,-9.6888 -15.35078,-24.27225 -15.35078,-24.27225 0,0 -74.73391,-4.04928 -107.25244,-11.38518 -38.68942,-19.4506 -38.06016,-81.95477 1.36221,-100.72256 32.29974,-6.86515 114.33037,-2.85224 114.33037,-2.85224 0,0 -3.65865,-14.98276 21.24378,-18.60716 61.91797,-10.11356 144.05769,-0.22908 200.75101,14.31587 31.18192,8.81201 22.73178,19.5583 23.20665,30.22525 6.85904,1.15461 21.0436,3.0321 21.0436,3.0321 0,0 0.28368,-8.55483 2.54143,-12.67948 C 595.20919,234.04652 542.6421,173.55918 480.52334,125.36807 657.9732,-15.437977 916.91211,-40.065247 1118.0397,63.830234 c 31.2061,16.98873 67.5285,35.73951 91.1937,59.122116 -14.4209,20.8581 -23.7058,44.98703 -39.4685,65.25372 -15.8334,23.3312 -32.9013,45.39869 -51.3057,67.19992 -48.1084,57.28699 -101.5179,111.01756 -154.95541,162.75753 C 879.61501,499.24894 793.47296,577.9727 709.76605,660.206 l 0.10079,-0.6 z M 543.97761,418.60808 c -28.87918,-1.82758 -59.38174,-26.98454 -58.08323,-58.98164 -2.9808,-33.94296 33.38397,-60.7844 60.34028,-58.82614 -35.90601,-5.4576 -75.17399,-10.60752 -109.4021,-10.494 59.00066,13.84033 56.53112,114.3665 -24.65226,114.33502 43.81218,6.69181 87.66565,12.66146 131.79731,13.96676 z M 151.52289,349.3073 C 118.81947,300.98402 84.65665,251.0989 51.41077,201.70775 c 50.964,18.82895 100.3706,34.85744 149.99599,55.2376 -15.83184,30.193 -32.70042,62.49811 -48.84614,93.35975 -0.51306,-0.01 -1.10013,0.12384 -1.03773,-0.9978 z" />
    <path
       id="path1592-2"
       style="fill:#000000;stroke-width:0.199993"
       d="m 377.08904,1473.423 c -28.69508,-9.7046 -59.17035,-22.5515 -87.46996,-34.6243 -33.0257,-86.238 -67.5057,-174.4706 -100.25231,-260.9 83.8473,113.1955 209.87849,192.8722 345.27946,224.1086 -51.98543,23.7214 -104.8904,48.7648 -157.55719,71.4157 z m 386.6503,-41.9865 c 82.4985,-51.8688 162.06068,-103.8032 245.90746,-155.2945 32.6316,-15.6434 65.885,-32.8108 95.7933,-46.6013 -88.0529,104.2305 -209.50049,176.2603 -341.70076,201.8958 z m -62.60022,-27.0238 c -68.54943,-11.6751 -138.36087,-33.9965 -196.385,-69.399 20.48394,-49.441 41.33055,-103.2997 61.90347,-150.1336 28.01773,81.5988 77.10056,158.5901 134.48153,219.5326 z m 366.90448,-27.93 c 45.0528,-46.3376 86.5812,-96.3295 128.9907,-145.4867 51.4713,-21.3246 107.7523,-47.363 155.9796,-65.487 -45.4725,62.3179 -145.2758,167.1979 -145.2758,167.1979 0,0 -101.1573,31.6767 -141.0929,45.2474 l 1.4006,-1.475 z m 294.0797,-256.1218 c -26.3093,-11.1561 -57.6768,-21.4765 -80.4972,-33.0291 34.9948,-20.7203 69.097,-44.6053 104.593,-63.4382 38.2784,-4.3212 77.1571,-5.0725 115.4569,-1.6805 -46.7775,32.7595 -92.9595,66.1642 -139.5527,98.1478 z M 0.115292,1257.6077 C 8.814712,1117.1804 69.79014,979.65183 169.56549,878.30756 c 81.41586,38.42927 147.67414,105.96997 196.90536,179.17234 -40.64649,7.5473 -83.01006,20.2741 -122.70161,25.0405 -22.30372,-26.3937 -52.95357,-99.01067 -52.95357,-99.01067 C 104.67072,1060.3289 40.29291,1167.7896 0,1259.6086 l 0.112892,-2 z m 32.390138,-26.0001 c 38.45414,-81.8538 86.62062,-161.5461 156.00849,-220.0999 6.88164,18.6709 19.18352,39.7737 23.18616,56.8442 -61.62959,53.0115 -119.9715,109.6079 -179.9234,164.8556 z" />
  </g>
</svg>
