<svg version="1.1" id="Layer_2" xmlns="http://www.w3.org/2000/svg" xmlns:xlink="http://www.w3.org/1999/xlink" x="0px" y="0px" width="800px" height="800px" viewBox="0 0 800 800" enable-background="new 0 0 800 800" xml:space="preserve">
<path d="M208.400 14.789 C 201.686 15.542,201.421 15.584,194.000 17.058 C 173.859 21.060,154.157 29.616,137.104 41.768 C 134.301 43.766,132.051 45.517,132.104 45.659 C 132.157 45.801,134.360 47.767,137.000 50.027 C 149.704 60.904,159.569 72.474,168.942 87.489 L 169.996 89.178 168.784 91.089 C 168.118 92.140,167.399 92.982,167.186 92.960 C 166.974 92.938,166.386 92.893,165.880 92.860 C 165.220 92.817,164.820 92.411,164.463 91.424 C 162.607 86.291,158.114 84.199,146.400 83.012 C 144.970 82.868,141.691 82.486,139.114 82.163 C 113.208 78.924,107.737 79.343,104.261 84.832 C 103.386 86.215,101.682 86.290,87.252 85.590 C 81.641 85.318,78.590 85.325,77.452 85.613 C 63.432 89.165,62.088 108.050,75.481 113.311 C 77.429 114.077,82.655 114.557,94.117 115.025 L 100.834 115.299 101.595 116.749 C 103.563 120.497,107.562 122.448,114.800 123.191 C 117.330 123.451,121.010 123.826,122.977 124.026 C 124.945 124.225,127.543 124.571,128.751 124.794 C 129.959 125.017,131.981 125.200,133.245 125.200 C 134.508 125.200,136.860 125.366,138.471 125.568 C 153.021 127.397,156.500 126.955,160.417 122.778 C 161.332 121.802,165.038 121.600,165.801 122.484 C 165.857 122.548,166.271 123.320,166.721 124.200 C 168.735 128.131,171.689 129.896,178.420 131.187 C 186.329 132.705,186.754 132.822,186.952 133.524 C 187.057 133.896,187.352 135.280,187.607 136.600 C 187.862 137.920,188.228 139.810,188.421 140.800 C 189.927 148.522,190.930 174.857,189.872 178.900 C 189.702 179.550,189.746 180.000,189.979 180.000 C 190.404 180.000,190.378 180.024,198.419 172.243 C 208.381 162.605,213.368 157.841,219.193 152.400 C 222.373 149.430,226.591 145.470,228.567 143.600 C 230.543 141.730,232.735 139.660,233.438 139.000 C 255.334 118.448,280.503 93.269,286.217 86.200 C 287.284 84.880,290.063 81.640,292.392 79.000 C 294.722 76.360,296.965 73.660,297.376 73.000 C 297.788 72.340,298.970 70.810,300.003 69.600 C 301.037 68.390,302.115 66.950,302.399 66.400 C 302.683 65.850,303.442 64.770,304.085 64.000 C 306.146 61.535,314.000 48.641,314.000 47.725 C 314.000 47.588,314.450 46.886,314.999 46.166 C 315.889 44.999,315.933 44.790,315.396 44.253 C 313.943 42.800,303.946 36.227,298.426 33.094 C 296.471 31.985,286.101 26.800,285.837 26.800 C 285.720 26.800,284.673 26.373,283.512 25.851 C 277.503 23.152,264.937 19.035,259.200 17.886 C 258.650 17.776,256.400 17.321,254.200 16.874 C 240.013 13.996,222.559 13.201,208.400 14.789 M23.892 65.495 C 24.127 66.108,25.310 67.887,32.743 78.800 C 35.065 82.210,39.227 88.352,41.992 92.449 C 44.757 96.547,47.470 100.483,48.021 101.197 L 49.022 102.496 50.969 98.748 C 52.040 96.687,53.405 94.100,54.001 93.000 C 56.870 87.707,61.200 79.204,61.200 78.862 C 61.200 78.651,60.705 78.297,60.100 78.075 C 54.874 76.162,49.624 74.268,48.800 74.000 C 48.250 73.821,45.730 72.920,43.200 71.999 C 40.670 71.077,36.980 69.733,35.000 69.012 C 23.845 64.948,23.659 64.889,23.892 65.495 M338.515 68.100 C 338.287 68.595,337.191 69.720,336.079 70.600 C 334.967 71.480,333.837 72.598,333.569 73.086 C 333.300 73.573,332.017 74.824,330.718 75.866 C 329.419 76.908,327.780 78.406,327.078 79.194 C 326.375 79.982,323.460 82.589,320.600 84.988 C 317.740 87.386,314.402 90.261,313.182 91.377 C 311.962 92.493,308.925 95.025,306.433 97.003 C 303.941 98.981,299.485 102.580,296.530 105.000 C 293.574 107.420,289.980 110.247,288.543 111.282 C 287.105 112.317,285.000 113.949,283.864 114.909 C 281.958 116.520,278.272 119.349,273.582 122.800 C 272.535 123.570,269.933 125.550,267.800 127.200 C 265.666 128.850,263.537 130.470,263.067 130.800 C 262.598 131.130,260.951 132.357,259.407 133.526 C 249.644 140.923,247.233 142.752,242.200 146.585 C 239.120 148.931,234.980 152.077,233.000 153.577 C 220.603 162.967,208.950 172.020,200.555 178.785 C 198.770 180.223,196.617 181.940,195.772 182.600 C 189.095 187.811,188.544 188.407,188.217 190.766 C 187.873 193.253,186.074 201.710,185.337 204.308 C 184.445 207.452,184.602 207.438,189.800 203.929 C 198.495 198.058,230.071 178.000,230.618 178.000 C 230.747 178.000,231.443 177.550,232.164 177.000 C 232.886 176.450,233.579 176.000,233.706 176.000 C 233.833 176.000,235.436 175.067,237.268 173.928 C 240.768 171.750,256.116 162.628,259.200 160.892 C 260.190 160.335,261.933 159.286,263.073 158.562 C 264.213 157.837,266.463 156.489,268.073 155.565 C 269.683 154.641,271.990 153.308,273.200 152.602 C 274.410 151.896,277.740 149.965,280.600 148.311 C 283.460 146.657,287.870 144.084,290.400 142.594 C 292.930 141.104,296.170 139.219,297.600 138.406 C 299.030 137.592,302.060 135.818,304.333 134.463 C 306.606 133.108,308.536 132.000,308.622 132.000 C 308.708 132.000,310.700 130.812,313.049 129.361 C 315.397 127.909,317.986 126.334,318.800 125.861 C 324.837 122.354,336.898 115.084,340.200 112.961 C 342.400 111.547,346.360 109.103,349.000 107.529 C 352.819 105.252,356.739 102.649,360.780 99.705 C 361.806 98.957,349.838 79.540,343.389 71.490 C 339.811 67.024,339.204 66.601,338.515 68.100 M129.200 87.218 C 140.469 88.418,146.145 89.185,146.519 89.559 C 146.862 89.902,144.061 91.200,142.979 91.200 C 138.582 91.200,131.932 101.813,133.593 106.181 C 133.817 106.770,134.000 107.664,134.000 108.166 C 134.000 109.029,135.198 111.605,136.584 113.720 C 137.451 115.042,141.205 117.557,143.060 118.058 C 146.218 118.911,144.783 120.283,141.200 119.837 C 140.210 119.713,137.240 119.435,134.600 119.218 C 130.213 118.857,128.599 118.639,122.600 117.601 C 121.500 117.411,119.745 117.142,118.700 117.003 C 116.030 116.649,116.333 116.169,119.700 115.416 C 134.205 112.177,136.360 92.504,122.685 88.164 C 121.876 87.907,121.874 87.882,122.602 87.349 C 123.491 86.699,124.190 86.685,129.200 87.218 M360.400 120.523 C 356.770 122.328,352.090 124.597,350.000 125.565 C 347.910 126.534,342.510 129.119,338.000 131.311 C 333.490 133.503,328.810 135.736,327.600 136.274 C 326.390 136.812,323.420 138.217,321.000 139.397 C 318.580 140.576,313.360 143.066,309.400 144.929 C 302.769 148.048,299.130 149.784,285.200 156.477 C 277.166 160.337,241.549 178.108,235.000 181.524 C 221.754 188.434,211.918 193.695,204.200 198.000 C 203.540 198.368,201.929 199.264,200.621 199.991 C 199.312 200.718,196.721 202.187,194.863 203.256 C 193.005 204.325,191.404 205.200,191.304 205.200 C 191.205 205.200,190.646 205.535,190.062 205.943 C 189.478 206.352,187.920 207.279,186.600 208.003 C 183.714 209.587,183.916 209.298,182.384 214.000 C 173.994 239.749,155.622 266.009,133.837 283.390 L 131.875 284.956 133.364 286.243 C 147.150 298.160,173.230 309.602,197.600 314.424 C 211.476 317.169,230.292 317.470,246.600 315.207 C 254.744 314.078,264.275 311.781,273.262 308.783 C 275.978 307.877,278.785 306.880,279.500 306.568 C 281.272 305.794,283.058 305.042,285.200 304.168 C 297.795 299.027,315.801 287.348,326.074 277.657 C 327.325 276.477,328.711 275.258,329.153 274.948 C 330.498 274.006,339.251 264.377,342.968 259.751 C 350.870 249.916,360.860 233.062,364.397 223.600 C 364.685 222.830,365.146 221.660,365.421 221.000 C 367.431 216.190,371.215 204.089,372.114 199.600 C 374.431 188.025,374.643 186.667,375.398 178.494 C 376.918 162.057,375.362 143.238,371.172 127.400 C 370.707 125.640,370.184 123.660,370.010 123.000 C 368.260 116.340,368.625 116.434,360.400 120.523 M26.085 133.725 C 25.656 134.646,24.630 137.110,23.805 139.200 C 22.979 141.290,21.994 143.720,21.615 144.600 C 19.187 150.241,18.520 150.163,28.581 145.417 C 31.167 144.198,33.331 143.200,33.391 143.200 C 33.491 143.200,35.238 142.382,47.047 136.807 C 52.307 134.324,52.355 134.156,47.890 133.881 C 41.260 133.474,27.811 132.384,27.332 132.215 C 27.075 132.124,26.514 132.804,26.085 133.725 M123.046 136.100 C 124.093 137.888,157.032 188.338,157.520 188.902 C 158.448 189.974,158.213 191.444,160.000 173.400 C 160.196 171.420,160.645 167.010,160.997 163.600 C 162.306 150.936,162.420 149.460,162.113 149.173 C 161.941 149.011,160.990 148.603,160.000 148.266 C 159.010 147.930,154.780 146.461,150.600 145.002 C 146.420 143.544,141.200 141.742,139.000 140.998 C 136.800 140.254,132.396 138.735,129.214 137.623 C 122.955 135.435,122.605 135.348,123.046 136.100 M86.200 142.458 C 85.100 142.659,82.580 143.100,80.600 143.439 C 63.587 146.351,46.422 152.635,30.600 161.745 C 25.569 164.642,25.573 164.634,27.008 168.510 C 39.014 200.930,60.055 227.513,87.600 245.066 C 93.515 248.835,93.279 248.786,99.800 247.575 C 116.811 244.416,128.646 240.609,142.399 233.873 C 147.221 231.511,156.400 226.252,156.400 225.851 C 156.400 225.175,154.116 218.835,152.419 214.800 C 144.279 195.446,133.433 179.407,118.729 164.979 C 113.786 160.128,111.555 158.115,106.353 153.811 C 102.200 150.375,89.494 141.948,88.617 142.047 C 88.388 142.073,87.300 142.258,86.200 142.458 M107.000 174.236 C 109.663 174.518,110.191 174.917,113.651 179.273 C 122.109 189.921,128.946 203.917,126.451 205.475 C 116.021 211.989,102.673 216.091,88.823 217.039 C 85.340 217.277,85.096 217.247,85.694 216.649 C 86.051 216.292,86.459 216.000,86.601 216.000 C 87.248 216.000,92.983 211.320,94.611 209.465 C 102.455 200.522,104.907 187.510,100.790 176.678 C 99.475 173.218,99.027 173.394,107.000 174.236 M87.816 175.703 C 83.396 179.484,80.879 182.588,78.852 186.758 C 74.567 195.573,74.145 204.241,77.570 213.048 C 79.250 217.365,79.427 217.141,74.947 216.361 L 72.429 215.923 69.379 212.261 C 61.720 203.067,53.593 187.415,55.499 185.531 C 59.486 181.589,80.247 174.348,88.400 174.055 L 89.800 174.005 87.816 175.703 M50.556 238.500 C 33.484 256.399,19.680 282.336,13.992 307.200 C 11.860 316.522,10.130 329.498,10.846 330.800 C 11.064 331.197,11.180 331.229,11.188 330.896 C 11.242 328.636,22.348 307.287,28.694 297.242 C 39.954 279.419,56.138 262.246,59.761 264.274 C 60.142 264.488,62.047 268.307,63.993 272.762 C 65.940 277.217,67.789 281.163,68.103 281.531 C 68.416 281.899,69.342 283.321,70.160 284.691 C 72.070 287.891,71.574 287.755,77.059 286.586 C 79.666 286.031,83.150 285.292,84.800 284.946 C 86.450 284.599,88.430 284.174,89.200 284.000 C 89.970 283.826,92.040 283.379,93.800 283.006 C 95.560 282.633,97.720 282.163,98.600 281.961 C 99.480 281.759,100.785 281.482,101.500 281.345 C 103.311 280.997,103.227 280.774,99.337 275.600 C 87.926 260.423,73.223 246.623,61.400 239.994 C 52.872 235.213,53.596 235.313,50.556 238.500 M53.980 272.917 C 41.651 284.751,32.622 297.349,22.927 316.243 C 20.657 320.667,18.800 324.418,18.800 324.579 C 18.800 324.968,20.778 323.308,24.200 320.047 C 27.483 316.919,36.392 308.677,42.617 303.010 C 45.028 300.815,48.440 297.652,50.200 295.982 C 51.960 294.311,54.210 292.216,55.200 291.325 C 61.350 285.795,63.432 284.000,63.699 284.000 C 63.864 284.000,64.000 283.775,64.000 283.501 C 64.000 282.578,58.205 269.601,57.800 269.617 C 57.580 269.626,55.861 271.111,53.980 272.917 M369.800 271.663 C 359.659 272.178,361.002 271.664,346.905 280.430 C 340.032 284.704,334.408 288.380,334.406 288.600 C 334.404 288.820,337.777 290.332,341.901 291.961 C 346.026 293.589,349.940 295.149,350.600 295.428 C 351.260 295.706,352.438 296.152,353.219 296.418 L 354.638 296.902 371.385 285.013 C 380.596 278.474,388.373 273.032,388.666 272.919 C 391.608 271.790,381.091 271.090,369.800 271.663 M348.400 309.382 C 346.750 310.099,344.590 311.052,343.600 311.500 C 342.610 311.948,338.920 313.521,335.400 314.997 C 329.551 317.449,327.682 318.248,324.200 319.789 C 323.540 320.081,321.200 321.077,319.000 322.003 C 312.990 324.533,311.600 325.191,311.598 325.510 C 311.597 325.669,311.098 326.340,310.489 327.000 C 309.880 327.660,306.290 331.890,302.511 336.400 C 294.189 346.332,294.637 345.819,288.871 351.995 C 286.302 354.746,283.317 357.944,282.238 359.103 C 279.203 362.360,278.125 362.583,297.200 356.003 C 303.030 353.992,309.557 351.746,311.705 351.012 C 315.212 349.813,315.885 349.415,318.305 347.108 C 319.787 345.695,322.620 342.997,324.600 341.113 C 326.580 339.229,329.730 336.479,331.600 335.003 C 337.555 330.300,345.498 320.304,350.544 311.162 C 352.611 307.416,352.719 307.505,348.400 309.382 M58.803 312.443 C 58.801 312.797,64.362 327.557,71.161 345.243 L 83.521 377.400 94.061 381.675 C 106.294 386.638,105.281 386.466,109.844 384.353 C 113.997 382.430,117.400 380.868,120.200 379.600 C 121.300 379.102,123.280 378.202,124.600 377.600 C 125.920 376.998,127.900 376.098,129.000 375.600 C 130.100 375.102,132.080 374.202,133.400 373.600 C 134.720 372.998,136.700 372.098,137.800 371.600 C 143.884 368.844,144.800 368.375,144.800 368.012 C 144.800 367.794,144.305 367.508,143.700 367.377 C 123.812 363.064,99.284 350.805,82.600 336.839 C 75.338 330.761,62.614 317.546,59.503 312.852 C 59.030 312.139,58.804 312.007,58.803 312.443 M152.178 315.811 C 151.640 317.028,151.200 318.125,151.200 318.251 C 151.200 318.376,150.938 319.046,150.617 319.740 C 150.082 320.895,148.048 325.863,142.158 340.400 C 140.954 343.370,139.727 346.340,139.431 347.000 C 138.270 349.585,137.842 351.202,138.220 351.571 C 138.883 352.220,152.382 358.800,153.050 358.800 C 153.176 358.800,153.846 359.057,154.540 359.370 C 156.724 360.359,164.454 363.067,168.200 364.155 C 170.180 364.730,172.340 365.363,173.000 365.560 C 173.660 365.758,175.550 366.216,177.200 366.578 C 178.850 366.940,180.830 367.393,181.600 367.585 C 182.370 367.777,183.982 368.060,185.181 368.215 C 187.788 368.552,187.907 368.814,182.863 363.148 C 171.753 350.669,162.077 334.840,155.942 319.107 C 153.498 312.839,153.494 312.836,152.178 315.811 M276.013 330.845 C 267.985 334.800,261.570 338.280,257.213 341.046 C 253.576 343.355,244.390 349.190,236.800 354.013 C 229.210 358.835,218.634 365.530,213.298 368.891 C 207.157 372.758,203.872 375.045,204.349 375.121 C 205.033 375.232,213.290 373.324,216.200 372.384 C 224.202 369.797,226.985 368.805,231.588 366.900 C 253.159 357.971,273.525 343.240,288.562 325.689 C 289.916 324.109,288.552 324.670,276.013 330.845 "/>
</svg>
