<svg id="svg" version="1.1" xmlns="http://www.w3.org/2000/svg" xmlns:xlink="http://www.w3.org/1999/xlink" width="400" height="400" viewBox="0, 0, 400,400"><g id="svgg"><path id="path0" d="M157.467 33.467 C 155.813 35.121,158.418 40.470,163.646 46.157 C 166.196 48.930,166.800 49.924,166.800 51.345 C 166.800 55.339,150.166 71.198,145.975 71.200 C 142.373 71.202,141.919 78.483,145.255 82.754 C 147.907 86.150,145.013 91.710,138.242 96.227 C 136.946 97.092,135.506 98.387,135.042 99.105 C 134.462 100.004,133.702 100.544,132.600 100.839 C 124.011 103.137,109.482 113.509,105.147 120.436 C 104.186 121.971,102.438 124.707,101.262 126.514 C 100.086 128.321,98.708 130.610,98.199 131.600 C 97.229 133.488,95.811 134.965,93.800 136.179 C 93.140 136.577,92.103 137.366,91.496 137.931 C 90.488 138.868,90.277 138.916,89.067 138.479 C 83.713 136.543,72.117 145.813,66.906 156.195 C 63.418 163.146,51.778 172.800,46.887 172.800 C 45.606 172.800,39.678 166.378,38.025 163.201 C 34.880 157.157,33.448 157.408,33.288 164.031 L 33.176 168.663 35.763 172.631 C 37.186 174.814,38.695 177.050,39.117 177.600 C 44.356 184.430,47.196 201.725,44.373 209.600 C 44.097 210.370,43.472 212.170,42.983 213.600 C 42.495 215.030,41.801 217.024,41.441 218.031 C 41.081 219.038,39.484 221.798,37.893 224.164 C 32.833 231.686,33.186 230.777,33.300 236.000 C 33.441 242.485,34.966 242.827,37.885 237.031 C 39.354 234.113,43.667 229.206,45.680 228.161 C 49.615 226.118,62.494 235.057,66.197 242.400 C 72.015 253.941,83.450 263.552,88.981 261.552 C 90.960 260.837,96.327 264.756,98.084 268.200 C 99.621 271.212,107.942 283.398,109.472 284.877 C 110.974 286.329,112.221 287.296,115.400 289.473 C 116.280 290.076,117.823 291.296,118.828 292.184 C 119.833 293.073,121.606 294.340,122.768 295.000 C 123.930 295.660,125.897 296.780,127.140 297.489 C 128.383 298.198,129.850 298.784,130.400 298.793 C 131.925 298.816,135.490 300.625,135.774 301.519 C 135.913 301.955,137.235 303.127,138.713 304.124 C 144.840 308.258,147.736 314.065,145.257 317.246 C 141.928 321.517,142.435 328.798,146.062 328.800 C 148.377 328.802,151.992 331.448,158.532 337.929 C 168.287 347.594,168.695 348.878,163.587 353.800 C 159.607 357.635,157.040 362.203,157.272 365.038 L 157.400 366.600 160.800 366.724 C 163.964 366.839,164.408 366.752,167.200 365.465 C 175.359 361.706,177.462 360.800,178.028 360.800 C 178.366 360.800,179.263 360.158,180.022 359.374 C 180.780 358.589,182.030 357.566,182.800 357.101 C 183.570 356.636,184.862 355.670,185.672 354.954 C 187.442 353.389,189.354 352.805,192.716 352.802 C 194.465 352.801,195.725 352.548,196.850 351.974 C 198.878 350.940,201.058 350.892,202.831 351.842 C 203.777 352.349,205.469 352.651,208.308 352.821 C 211.972 353.039,212.533 353.175,213.508 354.081 C 214.109 354.639,215.140 355.423,215.800 355.821 C 216.460 356.220,217.499 357.000,218.108 357.556 C 219.903 359.191,223.736 361.249,231.200 364.586 C 235.439 366.481,237.037 366.870,240.000 366.726 L 242.600 366.600 242.721 364.725 C 242.863 362.526,241.925 360.415,240.001 358.600 C 239.301 357.940,238.455 356.877,238.121 356.237 C 237.788 355.598,236.749 354.248,235.813 353.237 C 232.857 350.045,232.406 348.080,234.239 346.370 C 234.810 345.836,235.605 344.770,236.005 344.000 C 236.777 342.514,247.180 332.000,247.878 332.000 C 248.105 332.000,248.970 331.460,249.801 330.799 C 250.632 330.139,252.052 329.389,252.956 329.132 C 258.001 327.701,258.796 322.425,254.746 317.246 C 252.298 314.115,255.068 308.515,261.000 304.601 C 262.760 303.440,264.912 301.750,265.781 300.845 C 266.651 299.940,267.555 299.200,267.791 299.200 C 268.026 299.200,270.280 298.210,272.800 297.000 C 275.320 295.790,277.672 294.800,278.029 294.800 C 278.385 294.800,279.019 294.418,279.438 293.952 C 279.857 293.486,281.100 292.493,282.200 291.746 C 286.022 289.149,287.016 288.344,289.934 285.480 C 292.714 282.752,293.807 281.226,301.180 269.784 C 305.182 263.573,307.585 261.779,311.729 261.906 C 318.033 262.100,327.948 253.907,332.716 244.565 C 333.155 243.704,333.913 242.640,334.400 242.200 C 334.887 241.760,335.609 240.770,336.005 240.000 C 336.754 238.542,343.207 232.000,343.896 232.000 C 344.113 232.000,344.970 231.460,345.801 230.799 C 346.632 230.139,348.052 229.385,348.956 229.124 C 349.860 228.862,351.029 228.323,351.554 227.924 C 353.048 226.790,353.484 226.991,357.033 230.456 C 359.500 232.864,360.787 234.515,361.975 236.799 C 365.121 242.847,366.552 242.593,366.712 235.958 L 366.824 231.316 363.375 226.158 C 359.012 219.633,359.120 219.852,356.777 212.866 L 354.809 207.000 354.820 200.000 L 354.830 193.000 356.359 188.600 C 359.208 180.401,359.868 179.007,363.349 173.842 L 366.824 168.684 366.712 164.042 C 366.552 157.407,365.121 157.153,361.975 163.201 C 360.278 166.464,354.381 172.800,353.042 172.800 C 348.704 172.800,336.630 163.189,333.695 157.400 C 330.504 151.108,322.010 141.641,317.510 139.362 C 314.634 137.906,313.542 137.745,311.225 138.440 C 308.976 139.114,303.744 135.382,301.916 131.800 C 299.963 127.972,291.910 116.431,290.030 114.765 C 286.963 112.049,285.198 110.657,283.989 110.000 C 283.381 109.670,282.100 108.705,281.142 107.856 C 278.168 105.221,273.602 102.663,269.600 101.391 C 268.320 100.985,266.731 100.077,265.800 99.221 C 264.920 98.412,263.480 97.261,262.600 96.663 C 253.677 90.602,252.554 88.013,255.857 81.124 L 257.716 77.247 257.135 75.124 L 256.554 73.000 252.192 70.710 C 245.477 67.186,233.200 54.804,233.200 51.557 C 233.200 50.358,235.510 47.011,238.001 44.600 C 240.815 41.877,242.883 37.787,242.721 35.269 L 242.600 33.400 239.800 33.275 C 237.309 33.163,236.669 33.301,234.000 34.529 C 232.350 35.289,230.010 36.228,228.800 36.616 C 224.887 37.873,221.275 39.862,217.937 42.600 C 216.317 43.929,213.529 45.931,212.237 46.694 C 211.750 46.982,209.960 47.191,207.954 47.194 C 205.018 47.199,204.343 47.330,203.393 48.077 C 201.974 49.193,199.155 49.241,197.200 48.182 C 196.223 47.653,194.591 47.350,191.800 47.177 C 187.433 46.908,185.796 46.164,182.306 42.863 C 176.842 37.694,159.717 31.216,157.467 33.467 M209.760 118.426 C 210.398 118.632,213.114 118.800,215.796 118.800 C 218.970 118.800,221.359 119.008,222.636 119.396 C 223.716 119.723,225.140 119.993,225.800 119.996 C 226.460 119.998,227.990 120.384,229.200 120.853 C 234.579 122.939,242.801 122.857,246.502 120.682 C 249.605 118.858,252.818 120.016,260.365 125.676 C 262.543 127.311,276.447 141.178,278.500 143.765 C 280.416 146.179,280.386 146.739,278.208 149.191 C 274.944 152.866,274.345 155.950,276.030 160.406 C 276.486 161.613,277.031 164.130,277.241 166.000 C 278.199 174.547,278.899 178.167,280.102 180.800 C 282.325 185.666,282.300 214.762,280.069 219.084 C 279.591 220.010,279.200 221.304,279.200 221.958 C 279.200 222.612,278.988 223.655,278.728 224.274 C 278.468 224.893,278.126 226.750,277.967 228.400 C 277.429 233.995,276.837 237.394,276.017 239.594 C 274.329 244.127,275.027 246.951,278.999 251.672 C 280.751 253.754,279.275 255.899,269.156 265.982 C 261.908 273.204,260.855 274.138,257.162 276.629 C 251.873 280.194,249.133 281.189,247.589 280.106 C 244.677 278.062,236.036 277.190,232.662 278.600 C 231.872 278.930,230.688 279.200,230.032 279.200 C 229.375 279.200,228.424 279.357,227.919 279.549 C 224.016 281.031,221.737 281.330,209.600 281.952 C 206.190 282.126,202.771 282.479,202.003 282.735 C 200.222 283.328,197.784 283.329,195.997 282.738 C 195.229 282.483,192.080 282.132,189.000 281.956 C 180.304 281.461,176.422 280.997,173.600 280.116 C 164.731 277.347,156.142 277.337,152.446 280.089 C 150.710 281.382,145.749 279.119,139.282 274.086 C 137.575 272.757,124.450 259.626,122.100 256.895 C 119.710 254.119,119.856 253.306,123.500 249.099 C 125.150 247.193,125.345 243.227,123.968 239.594 C 123.510 238.387,122.972 235.690,122.773 233.600 C 122.290 228.538,121.820 225.639,121.261 224.274 C 121.007 223.655,120.800 222.612,120.800 221.958 C 120.800 221.304,120.399 220.010,119.910 219.084 C 118.621 216.646,118.158 205.595,118.759 191.600 C 119.076 184.217,119.164 183.608,120.402 180.200 C 121.679 176.683,122.081 174.522,122.746 167.600 C 122.925 165.730,123.573 162.689,124.185 160.842 C 125.798 155.972,124.631 151.414,120.999 148.399 C 120.050 147.611,120.298 145.852,121.597 144.159 C 122.256 143.302,123.229 141.970,123.761 141.200 C 124.936 139.498,135.648 128.835,137.600 127.424 C 138.370 126.868,139.908 125.798,141.017 125.047 C 142.127 124.296,143.286 123.379,143.592 123.009 C 145.804 120.344,150.831 119.238,153.752 120.775 C 156.039 121.978,156.186 122.000,161.865 122.000 C 167.763 122.000,168.335 121.905,174.400 119.905 C 179.602 118.191,205.651 117.101,209.760 118.426 " stroke="none" fill="#848484" fill-rule="evenodd"></path><path id="path1" d="M128.200 11.200 C 128.064 11.420,127.164 11.600,126.200 11.600 C 125.236 11.600,124.336 11.780,124.200 12.000 C 124.064 12.220,122.444 12.400,120.600 12.400 C 118.756 12.400,117.143 12.568,117.017 12.773 C 116.890 12.978,115.754 13.344,114.493 13.587 C 113.232 13.829,111.887 14.201,111.505 14.414 C 111.123 14.626,110.459 14.800,110.029 14.800 C 109.599 14.800,109.136 14.980,109.000 15.200 C 108.864 15.420,108.324 15.600,107.800 15.600 C 107.276 15.600,106.736 15.780,106.600 16.000 C 106.464 16.220,105.835 16.400,105.202 16.400 C 104.570 16.400,103.545 16.595,102.926 16.834 C 102.307 17.072,100.763 17.436,99.495 17.643 C 98.228 17.850,96.557 18.375,95.783 18.809 C 95.009 19.244,93.942 19.600,93.411 19.600 C 92.881 19.600,92.336 19.780,92.200 20.000 C 92.064 20.220,91.164 20.400,90.200 20.400 C 89.236 20.400,88.336 20.580,88.200 20.800 C 88.064 21.020,87.601 21.200,87.171 21.200 C 86.741 21.200,86.077 21.359,85.695 21.553 C 85.313 21.748,84.550 22.089,84.000 22.311 C 80.645 23.669,78.137 25.080,76.320 26.631 C 75.180 27.604,74.098 28.400,73.915 28.400 C 73.540 28.400,69.200 32.652,69.200 33.019 C 69.200 33.149,68.660 34.041,68.000 35.000 C 66.294 37.480,66.294 40.520,68.000 43.000 C 68.660 43.959,69.200 44.851,69.200 44.983 C 69.200 45.361,72.741 48.800,73.130 48.800 C 73.323 48.800,74.705 49.880,76.200 51.200 C 77.695 52.520,79.128 53.600,79.385 53.600 C 79.641 53.600,80.368 54.140,81.000 54.800 C 82.386 56.247,84.102 56.379,86.200 55.200 C 86.983 54.760,88.033 54.400,88.532 54.400 C 89.031 54.400,89.611 54.242,89.820 54.049 C 90.528 53.396,94.186 52.473,96.972 52.244 C 98.496 52.119,99.927 51.833,100.152 51.608 C 100.681 51.079,122.089 51.050,122.620 51.578 C 122.829 51.785,124.350 52.130,126.000 52.344 C 131.469 53.053,132.179 53.481,132.320 56.148 C 132.415 57.929,132.263 58.668,131.620 59.572 C 131.169 60.205,130.800 60.884,130.800 61.081 C 130.800 61.277,130.080 62.141,129.200 63.000 C 128.320 63.859,127.600 64.752,127.600 64.983 C 127.600 66.096,93.999 98.800,92.856 98.800 C 92.641 98.800,91.480 99.700,90.276 100.800 C 89.073 101.900,87.908 102.800,87.687 102.800 C 87.467 102.800,85.628 104.420,83.600 106.400 C 81.572 108.380,79.725 110.000,79.495 110.000 C 79.064 110.000,75.064 113.640,66.858 121.500 C 64.274 123.975,61.899 126.007,61.580 126.016 C 61.261 126.025,60.377 126.565,59.615 127.216 C 58.360 128.289,57.962 128.400,55.362 128.400 L 52.493 128.400 52.333 124.406 C 52.236 122.011,51.978 120.218,51.686 119.926 C 51.112 119.352,50.973 95.788,51.541 95.436 C 51.729 95.320,52.115 93.864,52.400 92.200 C 52.685 90.536,53.071 89.080,53.259 88.964 C 53.446 88.848,53.600 87.874,53.600 86.800 C 53.600 85.726,53.780 84.736,54.000 84.600 C 54.220 84.464,54.400 83.474,54.400 82.400 C 54.400 81.326,54.220 80.336,54.000 80.200 C 53.780 80.064,53.600 79.469,53.600 78.879 C 53.600 78.288,52.433 75.463,51.008 72.601 C 46.389 63.328,40.759 58.867,37.324 61.757 C 36.642 62.331,35.910 62.800,35.696 62.800 C 35.085 62.800,31.089 66.811,29.720 68.800 C 29.038 69.790,27.922 71.129,27.240 71.775 C 26.558 72.421,26.000 73.145,26.000 73.384 C 26.000 73.622,25.501 74.444,24.892 75.209 C 23.838 76.532,23.370 77.396,22.353 79.900 C 22.108 80.505,21.748 81.313,21.553 81.695 C 21.359 82.077,21.200 82.741,21.200 83.171 C 21.200 83.601,21.020 84.064,20.800 84.200 C 20.580 84.336,20.400 84.971,20.400 85.611 C 20.400 86.252,20.040 87.417,19.600 88.200 C 19.160 88.983,18.800 90.161,18.800 90.818 C 18.800 91.474,18.626 92.323,18.413 92.705 C 17.846 93.723,16.703 98.319,16.499 100.400 C 16.402 101.390,16.160 102.371,15.961 102.580 C 15.763 102.789,15.600 103.363,15.600 103.856 C 15.600 104.349,15.420 104.864,15.200 105.000 C 14.980 105.136,14.800 105.689,14.800 106.229 C 14.800 106.769,14.620 107.568,14.400 108.005 C 14.180 108.442,13.820 109.158,13.600 109.595 C 13.380 110.032,13.200 110.741,13.200 111.171 C 13.200 111.601,13.020 112.064,12.800 112.200 C 12.580 112.336,12.400 113.236,12.400 114.200 C 12.400 115.164,12.220 116.064,12.000 116.200 C 11.780 116.336,11.600 117.866,11.600 119.600 C 11.600 121.334,11.420 122.864,11.200 123.000 C 10.651 123.340,10.651 162.660,11.200 163.000 C 11.423 163.138,11.600 164.996,11.600 167.200 C 11.600 169.404,11.777 171.262,12.000 171.400 C 12.220 171.536,12.400 172.322,12.400 173.146 C 12.400 174.655,13.806 179.473,14.452 180.180 C 14.644 180.389,14.800 180.969,14.800 181.468 C 14.800 181.967,15.160 183.017,15.600 183.800 C 16.119 184.723,16.400 185.966,16.400 187.332 C 16.400 188.491,16.625 189.665,16.900 189.940 C 17.734 190.773,17.846 203.099,17.041 205.462 C 16.634 206.656,16.400 208.699,16.400 211.059 C 16.400 214.034,16.240 215.060,15.600 216.200 C 15.160 216.983,14.800 217.981,14.800 218.418 C 14.800 218.854,14.592 219.613,14.338 220.105 C 13.344 222.026,13.200 222.416,13.200 223.171 C 13.200 223.601,13.020 224.064,12.800 224.200 C 12.580 224.336,12.400 225.506,12.400 226.800 C 12.400 228.094,12.220 229.264,12.000 229.400 C 11.780 229.536,11.600 231.246,11.600 233.200 C 11.600 235.154,11.420 236.864,11.200 237.000 C 10.942 237.159,10.800 244.263,10.800 257.000 C 10.800 269.737,10.942 276.841,11.200 277.000 C 11.420 277.136,11.600 278.846,11.600 280.800 C 11.600 282.754,11.780 284.464,12.000 284.600 C 12.220 284.736,12.400 285.252,12.400 285.746 C 12.400 286.790,13.941 291.621,14.452 292.180 C 14.644 292.389,14.800 293.053,14.800 293.656 C 14.800 294.259,14.980 294.864,15.200 295.000 C 15.420 295.136,15.600 295.946,15.600 296.800 C 15.600 297.654,15.780 298.464,16.000 298.600 C 16.220 298.736,16.400 299.456,16.400 300.200 C 16.400 300.944,16.546 301.643,16.724 301.753 C 16.902 301.863,17.296 303.144,17.600 304.600 C 17.904 306.056,18.298 307.337,18.476 307.447 C 18.654 307.557,18.800 308.076,18.800 308.600 C 18.800 309.124,18.980 309.664,19.200 309.800 C 19.420 309.936,19.600 310.566,19.600 311.200 C 19.600 311.834,19.760 312.452,19.956 312.573 C 20.151 312.694,20.398 313.379,20.504 314.096 C 20.934 316.999,22.166 321.049,22.854 321.818 C 23.257 322.268,24.002 323.458,24.510 324.462 C 26.067 327.537,35.097 337.491,37.349 338.615 C 40.805 340.339,46.940 336.010,49.982 329.701 C 50.698 328.216,51.478 326.640,51.716 326.200 C 53.008 323.804,53.328 322.937,53.508 321.339 C 53.617 320.373,53.862 319.485,54.053 319.367 C 54.535 319.069,54.490 315.703,54.000 315.400 C 53.780 315.264,53.600 314.475,53.600 313.648 C 53.600 312.820,53.343 311.345,53.030 310.371 C 52.716 309.397,52.346 307.749,52.207 306.709 C 52.068 305.669,51.784 304.714,51.577 304.586 C 50.892 304.163,51.097 281.088,51.798 279.746 C 52.201 278.972,52.396 277.400,52.398 274.900 L 52.400 271.200 54.739 271.200 C 57.450 271.200,58.866 271.805,60.782 273.781 C 61.538 274.561,62.390 275.200,62.676 275.200 C 62.961 275.200,65.185 277.180,67.618 279.600 C 70.051 282.020,72.260 284.000,72.528 284.000 C 72.796 284.000,74.808 285.800,77.000 288.000 C 79.192 290.200,81.263 292.000,81.602 292.000 C 81.941 292.000,83.650 293.440,85.400 295.200 C 87.150 296.960,88.777 298.400,89.016 298.400 C 89.255 298.400,89.968 298.940,90.600 299.600 C 91.232 300.260,91.948 300.800,92.191 300.800 C 92.433 300.800,93.428 301.520,94.400 302.400 C 95.372 303.280,96.361 304.000,96.597 304.000 C 97.199 304.000,125.200 332.138,125.200 332.743 C 125.200 333.016,126.460 334.481,128.000 336.000 C 129.540 337.519,130.800 339.012,130.800 339.319 C 130.800 339.625,131.160 340.202,131.600 340.600 C 133.489 342.309,132.428 346.754,130.124 346.787 C 129.642 346.794,129.136 346.980,129.000 347.200 C 128.864 347.420,127.784 347.600,126.600 347.600 C 125.416 347.600,124.336 347.780,124.200 348.000 C 123.863 348.545,99.737 348.545,99.400 348.000 C 99.264 347.780,97.644 347.600,95.800 347.600 C 93.956 347.600,92.336 347.420,92.200 347.200 C 92.064 346.980,91.511 346.800,90.971 346.800 C 90.431 346.800,89.677 346.643,89.295 346.450 C 86.127 344.854,85.003 344.400,84.222 344.400 C 82.669 344.400,80.643 345.296,79.540 346.471 C 78.956 347.092,78.296 347.600,78.072 347.600 C 77.848 347.600,76.680 348.500,75.476 349.600 C 74.273 350.700,73.123 351.600,72.922 351.600 C 72.459 351.600,70.000 354.119,70.000 354.593 C 70.000 354.789,69.658 355.320,69.239 355.774 C 66.199 359.073,65.971 362.511,68.568 365.896 C 71.330 369.496,77.621 375.200,78.830 375.200 C 79.092 375.200,79.597 375.533,79.953 375.939 C 80.309 376.346,81.320 376.907,82.200 377.187 C 83.080 377.468,83.971 377.855,84.180 378.048 C 84.389 378.242,85.053 378.400,85.656 378.400 C 86.259 378.400,86.864 378.580,87.000 378.800 C 87.136 379.020,88.049 379.200,89.029 379.200 C 90.009 379.200,91.123 379.367,91.505 379.571 C 93.535 380.656,95.952 381.600,96.703 381.600 C 97.170 381.600,97.664 381.780,97.800 382.000 C 97.936 382.220,98.656 382.400,99.400 382.400 C 100.144 382.400,100.864 382.580,101.000 382.800 C 101.136 383.020,102.216 383.200,103.400 383.200 C 104.584 383.200,105.664 383.380,105.800 383.600 C 105.936 383.820,106.369 384.000,106.762 384.000 C 107.155 384.000,108.068 384.295,108.790 384.655 C 109.512 385.015,110.894 385.399,111.861 385.508 C 112.827 385.617,113.715 385.862,113.833 386.053 C 113.951 386.244,114.476 386.400,115.000 386.400 C 115.524 386.400,116.064 386.580,116.200 386.800 C 116.336 387.020,117.301 387.200,118.344 387.200 C 119.387 387.200,120.421 387.381,120.641 387.601 C 120.862 387.822,122.563 388.193,124.421 388.425 C 126.280 388.657,127.971 389.016,128.180 389.223 C 128.828 389.865,170.378 389.712,172.250 389.061 C 173.102 388.764,174.962 388.403,176.382 388.258 C 177.803 388.113,179.144 387.816,179.362 387.598 C 179.581 387.379,180.433 387.200,181.256 387.200 C 182.079 387.200,182.864 387.020,183.000 386.800 C 183.136 386.580,183.766 386.400,184.400 386.400 C 185.034 386.400,185.664 386.220,185.800 386.000 C 185.936 385.780,186.656 385.600,187.400 385.600 C 188.144 385.600,188.857 385.432,188.983 385.227 C 189.110 385.022,190.246 384.656,191.507 384.413 C 192.768 384.171,194.113 383.799,194.495 383.586 C 195.364 383.103,204.964 383.075,205.905 383.553 C 207.175 384.199,212.241 385.600,213.305 385.600 C 213.881 385.600,214.464 385.780,214.600 386.000 C 214.736 386.220,215.276 386.400,215.800 386.400 C 216.324 386.400,216.864 386.580,217.000 386.800 C 217.136 387.020,217.946 387.200,218.800 387.200 C 219.654 387.200,220.458 387.370,220.586 387.577 C 220.714 387.784,221.669 388.068,222.709 388.207 C 223.749 388.346,225.397 388.716,226.371 389.030 C 228.660 389.767,269.238 389.880,271.074 389.155 C 271.693 388.910,273.722 388.549,275.583 388.352 C 277.443 388.156,279.144 387.816,279.363 387.597 C 279.581 387.379,280.703 387.200,281.856 387.200 C 283.009 387.200,284.064 387.020,284.200 386.800 C 284.336 386.580,284.876 386.400,285.400 386.400 C 285.924 386.400,286.464 386.220,286.600 386.000 C 286.736 385.780,287.456 385.600,288.200 385.600 C 288.944 385.600,289.664 385.420,289.800 385.200 C 289.936 384.980,290.476 384.800,291.000 384.800 C 291.524 384.800,292.064 384.620,292.200 384.400 C 292.336 384.180,292.876 384.000,293.400 384.000 C 293.924 384.000,294.464 383.820,294.600 383.600 C 294.736 383.380,295.726 383.200,296.800 383.200 C 297.874 383.200,298.864 383.020,299.000 382.800 C 299.136 382.580,299.946 382.400,300.800 382.400 C 301.654 382.400,302.464 382.220,302.600 382.000 C 302.736 381.780,303.349 381.600,303.962 381.600 C 305.217 381.600,307.267 380.684,308.007 379.792 C 308.328 379.405,309.236 379.200,310.625 379.200 C 311.795 379.200,312.864 379.020,313.000 378.800 C 313.136 378.580,313.856 378.400,314.600 378.400 C 315.344 378.400,316.064 378.220,316.200 378.000 C 316.336 377.780,316.758 377.600,317.139 377.600 C 317.519 377.600,318.453 377.067,319.215 376.416 C 319.977 375.765,320.748 375.225,320.928 375.216 C 321.108 375.207,322.041 374.660,323.000 374.000 C 323.959 373.340,324.850 372.800,324.979 372.800 C 325.400 372.800,330.398 367.629,331.109 366.459 C 331.489 365.833,332.160 364.806,332.600 364.178 C 333.145 363.399,333.400 362.388,333.400 361.000 C 333.400 359.612,333.145 358.601,332.600 357.822 C 332.160 357.194,331.472 356.136,331.070 355.472 C 330.240 354.099,326.867 350.800,326.292 350.800 C 326.083 350.800,324.927 349.900,323.724 348.800 C 322.520 347.700,321.302 346.800,321.017 346.800 C 320.731 346.800,320.271 346.527,319.994 346.193 C 318.303 344.156,315.442 344.010,311.890 345.780 C 310.764 346.341,309.259 346.800,308.545 346.800 C 307.831 346.800,307.136 346.980,307.000 347.200 C 306.864 347.420,305.334 347.600,303.600 347.600 C 301.866 347.600,300.336 347.780,300.200 348.000 C 299.863 348.545,275.737 348.545,275.400 348.000 C 275.264 347.780,274.077 347.600,272.762 347.600 C 267.968 347.600,265.609 343.700,268.416 340.415 C 269.067 339.653,269.600 338.838,269.600 338.603 C 269.600 338.367,270.680 337.106,272.000 335.800 C 273.320 334.494,274.400 333.236,274.400 333.005 C 274.400 332.053,305.698 301.600,306.676 301.600 C 306.873 301.600,308.099 300.700,309.400 299.600 C 310.701 298.500,311.907 297.600,312.080 297.600 C 312.253 297.600,313.669 296.340,315.228 294.800 C 316.786 293.260,318.255 292.000,318.492 292.000 C 318.949 292.000,323.170 288.151,331.542 280.100 C 334.345 277.405,336.829 275.200,337.063 275.200 C 337.296 275.200,338.305 274.480,339.305 273.600 C 340.305 272.720,341.400 272.000,341.738 272.000 C 342.076 272.000,342.464 271.820,342.600 271.600 C 342.736 271.380,343.917 271.200,345.224 271.200 L 347.600 271.200 347.600 274.376 C 347.600 276.123,347.780 277.664,348.000 277.800 C 348.547 278.138,348.547 306.262,348.000 306.600 C 347.780 306.736,347.600 307.456,347.600 308.200 C 347.600 308.944,347.420 309.664,347.200 309.800 C 346.980 309.936,346.800 311.016,346.800 312.200 C 346.800 313.384,346.641 314.451,346.446 314.571 C 345.705 315.030,345.527 318.371,346.174 319.669 C 346.518 320.359,346.800 321.500,346.800 322.206 C 346.800 323.357,349.460 329.214,350.422 330.180 C 350.630 330.389,350.800 330.843,350.800 331.188 C 350.800 331.533,352.468 333.477,354.508 335.508 L 358.215 339.200 360.494 339.200 L 362.772 339.200 366.986 334.986 C 369.304 332.668,371.200 330.579,371.200 330.342 C 371.200 330.106,372.100 328.927,373.200 327.724 C 374.300 326.520,375.200 325.337,375.200 325.094 C 375.200 324.850,375.542 324.280,375.961 323.826 C 377.297 322.376,378.400 320.018,378.400 318.611 C 378.400 317.861,378.580 317.136,378.800 317.000 C 379.020 316.864,379.200 316.131,379.200 315.371 C 379.200 314.611,379.357 313.677,379.550 313.295 C 381.108 310.202,381.600 309.024,381.600 308.386 C 381.600 307.980,381.780 307.536,382.000 307.400 C 382.220 307.264,382.400 306.724,382.400 306.200 C 382.400 305.676,382.580 305.136,382.800 305.000 C 383.020 304.864,383.200 303.604,383.200 302.200 C 383.200 300.796,383.346 299.557,383.524 299.447 C 383.702 299.337,384.096 298.056,384.400 296.600 C 384.704 295.144,385.098 293.863,385.276 293.753 C 385.454 293.643,385.600 293.124,385.600 292.600 C 385.600 292.076,385.780 291.536,386.000 291.400 C 386.220 291.264,386.400 290.724,386.400 290.200 C 386.400 289.676,386.580 289.136,386.800 289.000 C 387.020 288.864,387.200 288.079,387.200 287.256 C 387.200 286.433,387.407 285.553,387.661 285.299 C 387.914 285.046,388.248 282.895,388.402 280.519 C 388.557 278.144,388.890 275.693,389.142 275.074 C 389.734 273.618,389.795 237.555,389.206 236.966 C 388.989 236.749,388.637 234.885,388.423 232.823 C 388.210 230.762,387.848 228.888,387.618 228.658 C 387.388 228.428,387.200 227.117,387.200 225.744 C 387.200 224.371,387.020 223.136,386.800 223.000 C 386.580 222.864,386.400 222.234,386.400 221.600 C 386.400 220.966,386.220 220.336,386.000 220.200 C 385.780 220.064,385.600 219.622,385.600 219.217 C 385.600 218.812,385.060 217.455,384.400 216.200 C 383.345 214.194,383.200 213.516,383.200 210.583 C 383.200 208.748,383.020 207.136,382.800 207.000 C 382.579 206.864,382.400 205.070,382.400 203.000 C 382.400 200.930,382.579 199.136,382.800 199.000 C 383.040 198.852,383.200 196.194,383.200 192.371 C 383.200 188.861,383.357 185.677,383.550 185.295 C 385.108 182.202,385.600 181.024,385.600 180.386 C 385.600 179.980,385.780 179.536,386.000 179.400 C 386.220 179.264,386.400 178.724,386.400 178.200 C 386.400 177.676,386.580 177.136,386.800 177.000 C 387.020 176.864,387.200 175.809,387.200 174.656 C 387.200 173.503,387.414 172.346,387.675 172.085 C 387.949 171.811,388.271 169.644,388.435 166.965 C 388.591 164.411,388.917 162.123,389.160 161.880 C 389.780 161.260,389.776 124.497,389.155 122.926 C 388.910 122.307,388.549 120.278,388.352 118.417 C 388.156 116.557,387.816 114.856,387.597 114.637 C 387.379 114.419,387.200 113.567,387.200 112.744 C 387.200 111.921,387.020 111.136,386.800 111.000 C 386.580 110.864,386.400 110.139,386.400 109.389 C 386.400 108.638,386.069 107.434,385.664 106.712 C 385.259 105.990,384.697 104.680,384.415 103.800 C 384.134 102.920,383.745 102.029,383.552 101.820 C 383.358 101.611,383.200 100.497,383.200 99.344 C 383.200 98.191,383.020 97.136,382.800 97.000 C 382.580 96.864,382.400 96.131,382.400 95.371 C 382.400 94.611,382.230 93.677,382.022 93.295 C 381.814 92.913,381.543 91.970,381.420 91.200 C 381.298 90.430,380.748 88.914,380.199 87.832 C 379.649 86.750,379.200 85.276,379.200 84.556 C 379.200 83.836,379.020 83.136,378.800 83.000 C 378.580 82.864,378.400 82.150,378.400 81.414 C 378.400 79.976,377.041 77.008,375.900 75.953 C 375.515 75.597,375.200 75.049,375.200 74.734 C 375.200 74.420,374.480 73.459,373.600 72.600 C 372.720 71.741,372.000 70.846,372.000 70.612 C 372.000 69.861,363.855 62.145,362.340 61.460 C 359.289 60.081,354.214 63.043,351.983 67.504 C 351.681 68.107,351.183 68.905,350.875 69.278 C 349.981 70.362,347.600 75.287,347.600 76.053 C 347.600 76.438,347.420 76.864,347.200 77.000 C 346.980 77.136,346.800 77.741,346.800 78.344 C 346.800 78.947,346.581 79.659,346.314 79.926 C 346.047 80.193,345.829 81.396,345.829 82.600 C 345.829 83.804,346.047 85.007,346.314 85.274 C 346.581 85.541,346.800 86.433,346.800 87.256 C 346.800 88.079,346.980 88.864,347.200 89.000 C 347.420 89.136,347.600 90.396,347.600 91.800 C 347.600 93.204,347.780 94.464,348.000 94.600 C 348.547 94.938,348.547 122.262,348.000 122.600 C 347.780 122.736,347.600 124.097,347.600 125.624 L 347.600 128.400 345.061 128.400 C 342.304 128.400,340.705 127.802,339.210 126.210 C 338.688 125.655,338.036 125.200,337.762 125.200 C 337.487 125.200,334.894 122.860,332.000 120.000 C 329.106 117.140,326.544 114.800,326.308 114.800 C 326.072 114.800,324.204 113.180,322.157 111.200 C 320.110 109.220,318.198 107.600,317.907 107.600 C 317.616 107.600,316.128 106.340,314.600 104.800 C 313.072 103.260,311.628 102.000,311.392 102.000 C 311.156 102.000,310.259 101.280,309.400 100.400 C 308.541 99.520,307.605 98.800,307.321 98.800 C 307.037 98.800,305.885 97.900,304.761 96.800 C 303.638 95.700,302.511 94.800,302.257 94.800 C 301.650 94.800,275.200 68.336,275.200 67.728 C 275.200 67.471,273.918 65.964,272.351 64.378 C 267.297 59.264,265.509 53.600,268.948 53.600 C 269.281 53.600,269.648 53.446,269.764 53.259 C 269.880 53.071,271.336 52.685,273.000 52.400 C 274.664 52.115,276.120 51.729,276.236 51.541 C 276.538 51.054,298.945 51.105,299.434 51.594 C 299.651 51.811,301.615 52.173,303.800 52.400 C 305.985 52.627,307.949 52.989,308.166 53.206 C 308.383 53.423,308.963 53.600,309.456 53.600 C 309.949 53.600,310.464 53.780,310.600 54.000 C 310.736 54.220,311.191 54.400,311.611 54.400 C 312.032 54.400,313.017 54.760,313.800 55.200 C 316.049 56.463,317.549 56.256,319.600 54.400 C 320.572 53.520,321.567 52.800,321.809 52.800 C 322.052 52.800,322.768 52.260,323.400 51.600 C 324.032 50.940,324.746 50.400,324.985 50.400 C 326.706 50.400,332.577 42.520,333.423 39.074 C 333.942 36.964,326.269 26.800,324.157 26.800 C 323.904 26.800,323.482 26.540,323.219 26.223 C 321.943 24.686,311.253 20.400,308.695 20.400 C 308.119 20.400,307.536 20.220,307.400 20.000 C 307.264 19.780,306.724 19.600,306.200 19.600 C 305.676 19.600,305.136 19.420,305.000 19.200 C 304.864 18.980,304.401 18.800,303.971 18.800 C 303.541 18.800,302.877 18.626,302.495 18.414 C 302.113 18.201,300.768 17.829,299.507 17.587 C 298.246 17.344,297.110 16.978,296.983 16.773 C 296.857 16.568,296.144 16.400,295.400 16.400 C 294.656 16.400,293.936 16.220,293.800 16.000 C 293.664 15.780,292.764 15.600,291.800 15.600 C 290.836 15.600,289.936 15.420,289.800 15.200 C 289.664 14.980,289.124 14.800,288.600 14.800 C 288.076 14.800,287.557 14.654,287.447 14.476 C 287.337 14.298,286.056 13.904,284.600 13.600 C 283.144 13.296,281.863 12.902,281.753 12.724 C 281.643 12.546,280.764 12.400,279.800 12.400 C 278.836 12.400,277.936 12.220,277.800 12.000 C 277.664 11.780,276.134 11.600,274.400 11.600 C 272.666 11.600,271.136 11.420,271.000 11.200 C 270.660 10.650,227.340 10.650,227.000 11.200 C 226.864 11.420,225.771 11.600,224.571 11.600 C 223.371 11.600,222.077 11.761,221.695 11.958 C 221.313 12.155,219.560 12.714,217.800 13.200 C 216.040 13.686,214.287 14.245,213.905 14.442 C 213.523 14.639,212.769 14.800,212.229 14.800 C 211.689 14.800,211.136 14.980,211.000 15.200 C 210.864 15.420,210.054 15.600,209.200 15.600 C 208.346 15.600,207.536 15.780,207.400 16.000 C 207.067 16.539,192.533 16.539,192.200 16.000 C 192.064 15.780,191.344 15.600,190.600 15.600 C 189.856 15.600,189.136 15.420,189.000 15.200 C 188.864 14.980,188.401 14.800,187.971 14.800 C 187.541 14.800,186.877 14.626,186.495 14.414 C 186.113 14.201,184.768 13.829,183.507 13.587 C 182.246 13.344,181.110 12.978,180.983 12.773 C 180.857 12.568,180.144 12.400,179.400 12.400 C 178.656 12.400,177.936 12.220,177.800 12.000 C 177.664 11.780,176.404 11.600,175.000 11.600 C 173.596 11.600,172.336 11.420,172.200 11.200 C 172.040 10.941,164.270 10.800,150.200 10.800 C 136.130 10.800,128.360 10.941,128.200 11.200 M164.800 33.765 C 166.481 34.285,170.909 36.223,174.600 38.055 C 178.174 39.829,180.892 41.525,182.306 42.863 C 185.796 46.164,187.433 46.908,191.800 47.177 C 194.591 47.350,196.223 47.653,197.200 48.182 C 199.155 49.241,201.974 49.193,203.393 48.077 C 204.343 47.330,205.018 47.199,207.954 47.194 C 209.960 47.191,211.750 46.982,212.237 46.694 C 213.529 45.931,216.317 43.929,217.937 42.600 C 221.275 39.862,224.887 37.873,228.800 36.616 C 230.010 36.228,232.350 35.289,234.000 34.529 C 236.669 33.301,237.309 33.163,239.800 33.275 L 242.600 33.400 242.721 35.269 C 242.883 37.787,240.815 41.877,238.001 44.600 C 235.510 47.011,233.200 50.358,233.200 51.557 C 233.200 54.804,245.477 67.186,252.192 70.710 L 256.554 73.000 257.135 75.124 L 257.716 77.247 255.857 81.124 C 252.554 88.013,253.677 90.602,262.600 96.663 C 263.480 97.261,264.920 98.412,265.800 99.221 C 266.731 100.077,268.320 100.985,269.600 101.391 C 273.602 102.663,278.168 105.221,281.142 107.856 C 282.100 108.705,283.381 109.670,283.989 110.000 C 285.198 110.657,286.963 112.049,290.030 114.765 C 291.910 116.431,299.963 127.972,301.916 131.800 C 303.744 135.382,308.976 139.114,311.225 138.440 C 313.542 137.745,314.634 137.906,317.510 139.362 C 322.010 141.641,330.504 151.108,333.695 157.400 C 336.630 163.189,348.704 172.800,353.042 172.800 C 354.381 172.800,360.278 166.464,361.975 163.201 C 365.121 157.153,366.552 157.407,366.712 164.042 L 366.824 168.684 363.349 173.842 C 359.868 179.007,359.208 180.401,356.359 188.600 L 354.830 193.000 354.820 200.000 L 354.809 207.000 356.777 212.866 C 359.120 219.852,359.012 219.633,363.375 226.158 L 366.824 231.316 366.712 235.958 C 366.552 242.593,365.121 242.847,361.975 236.799 C 360.787 234.515,359.500 232.864,357.033 230.456 C 353.484 226.991,353.048 226.790,351.554 227.924 C 351.029 228.323,349.860 228.862,348.956 229.124 C 348.052 229.385,346.632 230.139,345.801 230.799 C 344.970 231.460,344.113 232.000,343.896 232.000 C 343.207 232.000,336.754 238.542,336.005 240.000 C 335.609 240.770,334.887 241.760,334.400 242.200 C 333.913 242.640,333.155 243.704,332.716 244.565 C 327.948 253.907,318.033 262.100,311.729 261.906 C 307.585 261.779,305.182 263.573,301.180 269.784 C 293.807 281.226,292.714 282.752,289.934 285.480 C 287.016 288.344,286.022 289.149,282.200 291.746 C 281.100 292.493,279.857 293.486,279.438 293.952 C 279.019 294.418,278.385 294.800,278.029 294.800 C 277.672 294.800,275.320 295.790,272.800 297.000 C 270.280 298.210,268.026 299.200,267.791 299.200 C 267.555 299.200,266.651 299.940,265.781 300.845 C 264.912 301.750,262.760 303.440,261.000 304.601 C 255.068 308.515,252.298 314.115,254.746 317.246 C 258.796 322.425,258.001 327.701,252.956 329.132 C 252.052 329.389,250.632 330.139,249.801 330.799 C 248.970 331.460,248.105 332.000,247.878 332.000 C 247.180 332.000,236.777 342.514,236.005 344.000 C 235.605 344.770,234.810 345.836,234.239 346.370 C 232.406 348.080,232.857 350.045,235.813 353.237 C 236.749 354.248,237.788 355.598,238.121 356.237 C 238.455 356.877,239.301 357.940,240.001 358.600 C 241.925 360.415,242.863 362.526,242.721 364.725 L 242.600 366.600 240.000 366.726 C 237.037 366.870,235.439 366.481,231.200 364.586 C 223.736 361.249,219.903 359.191,218.108 357.556 C 217.499 357.000,216.460 356.220,215.800 355.821 C 215.140 355.423,214.109 354.639,213.508 354.081 C 212.533 353.175,211.972 353.039,208.308 352.821 C 205.469 352.651,203.777 352.349,202.831 351.842 C 201.058 350.892,198.878 350.940,196.850 351.974 C 195.725 352.548,194.465 352.801,192.716 352.802 C 189.354 352.805,187.442 353.389,185.672 354.954 C 184.862 355.670,183.570 356.636,182.800 357.101 C 182.030 357.566,180.780 358.589,180.022 359.374 C 179.263 360.158,178.366 360.800,178.028 360.800 C 177.462 360.800,175.359 361.706,167.200 365.465 C 164.408 366.752,163.964 366.839,160.800 366.724 L 157.400 366.600 157.272 365.038 C 157.040 362.203,159.607 357.635,163.587 353.800 C 168.695 348.878,168.287 347.594,158.532 337.929 C 151.992 331.448,148.377 328.802,146.062 328.800 C 142.435 328.798,141.928 321.517,145.257 317.246 C 147.736 314.065,144.840 308.258,138.713 304.124 C 137.235 303.127,135.913 301.955,135.774 301.519 C 135.490 300.625,131.925 298.816,130.400 298.793 C 129.850 298.784,128.383 298.198,127.140 297.489 C 125.897 296.780,123.930 295.660,122.768 295.000 C 121.606 294.340,119.833 293.073,118.828 292.184 C 117.823 291.296,116.280 290.076,115.400 289.473 C 112.221 287.296,110.974 286.329,109.472 284.877 C 107.942 283.398,99.621 271.212,98.084 268.200 C 96.327 264.756,90.960 260.837,88.981 261.552 C 83.450 263.552,72.015 253.941,66.197 242.400 C 62.494 235.057,49.615 226.118,45.680 228.161 C 43.667 229.206,39.354 234.113,37.885 237.031 C 34.966 242.827,33.441 242.485,33.300 236.000 C 33.186 230.777,32.833 231.686,37.893 224.164 C 39.484 221.798,41.081 219.038,41.441 218.031 C 41.801 217.024,42.495 215.030,42.983 213.600 C 43.472 212.170,44.097 210.370,44.373 209.600 C 47.196 201.725,44.356 184.430,39.117 177.600 C 38.695 177.050,37.186 174.814,35.763 172.631 L 33.176 168.663 33.288 164.031 C 33.448 157.408,34.880 157.157,38.025 163.201 C 39.678 166.378,45.606 172.800,46.887 172.800 C 51.778 172.800,63.418 163.146,66.906 156.195 C 72.117 145.813,83.713 136.543,89.067 138.479 C 90.277 138.916,90.488 138.868,91.496 137.931 C 92.103 137.366,93.140 136.577,93.800 136.179 C 95.811 134.965,97.229 133.488,98.199 131.600 C 98.708 130.610,100.086 128.321,101.262 126.514 C 102.438 124.707,104.186 121.971,105.147 120.436 C 109.482 113.509,124.011 103.137,132.600 100.839 C 133.702 100.544,134.462 100.004,135.042 99.105 C 135.506 98.387,136.946 97.092,138.242 96.227 C 145.013 91.710,147.907 86.150,145.255 82.754 C 141.919 78.483,142.373 71.202,145.975 71.200 C 150.166 71.198,166.800 55.339,166.800 51.345 C 166.800 49.924,166.196 48.930,163.646 46.157 C 161.419 43.734,159.828 41.634,158.107 38.847 C 157.242 37.446,156.843 34.091,157.467 33.467 C 157.943 32.990,162.952 33.194,164.800 33.765 M190.000 118.084 C 180.295 118.682,176.913 119.077,174.400 119.905 C 168.335 121.905,167.763 122.000,161.865 122.000 C 156.186 122.000,156.039 121.978,153.752 120.775 C 150.831 119.238,145.804 120.344,143.592 123.009 C 143.286 123.379,142.127 124.296,141.017 125.047 C 139.908 125.798,138.370 126.868,137.600 127.424 C 135.648 128.835,124.936 139.498,123.761 141.200 C 123.229 141.970,122.256 143.302,121.597 144.159 C 120.298 145.852,120.050 147.611,120.999 148.399 C 124.631 151.414,125.798 155.972,124.185 160.842 C 123.573 162.689,122.925 165.730,122.746 167.600 C 122.081 174.522,121.679 176.683,120.402 180.200 C 119.164 183.608,119.076 184.217,118.759 191.600 C 118.158 205.595,118.621 216.646,119.910 219.084 C 120.399 220.010,120.800 221.304,120.800 221.958 C 120.800 222.612,121.007 223.655,121.261 224.274 C 121.820 225.639,122.290 228.538,122.773 233.600 C 122.972 235.690,123.510 238.387,123.968 239.594 C 125.345 243.227,125.150 247.193,123.500 249.099 C 119.856 253.306,119.710 254.119,122.100 256.895 C 124.450 259.626,137.575 272.757,139.282 274.086 C 145.749 279.119,150.710 281.382,152.446 280.089 C 156.142 277.337,164.731 277.347,173.600 280.116 C 176.422 280.997,180.304 281.461,189.000 281.956 C 192.080 282.132,195.229 282.483,195.997 282.738 C 197.784 283.329,200.222 283.328,202.003 282.735 C 202.771 282.479,206.190 282.126,209.600 281.952 C 221.737 281.330,224.016 281.031,227.919 279.549 C 228.424 279.357,229.375 279.200,230.032 279.200 C 230.688 279.200,231.872 278.930,232.662 278.600 C 236.036 277.190,244.677 278.062,247.589 280.106 C 249.133 281.189,251.873 280.194,257.162 276.629 C 260.855 274.138,261.908 273.204,269.156 265.982 C 279.275 255.899,280.751 253.754,278.999 251.672 C 275.027 246.951,274.329 244.127,276.017 239.594 C 276.837 237.394,277.429 233.995,277.967 228.400 C 278.126 226.750,278.468 224.893,278.728 224.274 C 278.988 223.655,279.200 222.612,279.200 221.958 C 279.200 221.304,279.591 220.010,280.069 219.084 C 282.300 214.762,282.325 185.666,280.102 180.800 C 278.899 178.167,278.199 174.547,277.241 166.000 C 277.031 164.130,276.486 161.613,276.030 160.406 C 274.345 155.950,274.944 152.866,278.208 149.191 C 280.386 146.739,280.416 146.179,278.500 143.765 C 276.447 141.178,262.543 127.311,260.365 125.676 C 252.818 120.016,249.605 118.858,246.502 120.682 C 242.801 122.857,234.579 122.939,229.200 120.853 C 227.990 120.384,226.460 119.998,225.800 119.996 C 225.140 119.993,223.716 119.723,222.636 119.396 C 221.359 119.008,218.970 118.800,215.796 118.800 C 213.114 118.800,210.398 118.632,209.760 118.426 C 208.243 117.937,195.862 117.722,190.000 118.084 M215.000 142.800 C 215.136 143.020,216.666 143.200,218.400 143.200 C 220.134 143.200,221.664 143.380,221.800 143.600 C 221.936 143.820,222.369 144.000,222.762 144.000 C 223.155 144.000,224.086 144.304,224.829 144.675 C 225.573 145.046,227.134 145.428,228.298 145.525 C 229.462 145.621,230.512 145.858,230.631 146.050 C 230.750 146.243,231.996 146.400,233.400 146.400 C 234.804 146.400,236.064 146.580,236.200 146.800 C 236.336 147.020,237.243 147.200,238.216 147.200 C 241.065 147.200,246.000 151.747,246.000 154.372 C 246.000 154.801,246.180 155.264,246.400 155.400 C 246.620 155.536,246.800 156.346,246.800 157.200 C 246.800 158.054,246.980 158.864,247.200 159.000 C 247.420 159.136,247.600 159.946,247.600 160.800 C 247.600 161.654,247.780 162.464,248.000 162.600 C 248.220 162.736,248.400 163.456,248.400 164.200 C 248.400 164.944,248.546 165.643,248.724 165.753 C 248.902 165.863,249.296 167.144,249.600 168.600 C 249.904 170.056,250.298 171.337,250.476 171.447 C 250.654 171.557,250.800 172.346,250.800 173.200 C 250.800 174.054,250.980 174.864,251.200 175.000 C 251.420 175.136,251.600 175.946,251.600 176.800 C 251.600 177.654,251.780 178.464,252.000 178.600 C 252.220 178.736,252.400 180.331,252.400 182.144 C 252.400 184.248,252.581 185.621,252.900 185.939 C 253.735 186.773,253.847 203.896,253.033 206.284 C 252.549 207.705,252.400 209.815,252.400 215.248 C 252.400 219.553,252.242 222.450,252.000 222.600 C 251.780 222.736,251.600 223.276,251.600 223.800 C 251.600 224.324,251.420 224.864,251.200 225.000 C 250.980 225.136,250.800 226.191,250.800 227.344 C 250.800 228.497,250.644 229.611,250.452 229.820 C 249.806 230.527,248.400 235.345,248.400 236.854 C 248.400 237.678,248.220 238.464,248.000 238.600 C 247.780 238.736,247.600 239.276,247.600 239.800 C 247.600 240.324,247.420 240.864,247.200 241.000 C 246.980 241.136,246.800 241.946,246.800 242.800 C 246.800 243.654,246.643 244.450,246.452 244.568 C 246.260 244.686,245.993 245.335,245.858 246.010 C 245.723 246.685,245.160 247.831,244.606 248.556 C 244.053 249.282,243.600 250.006,243.600 250.166 C 243.600 251.451,239.723 252.852,234.000 253.635 C 232.350 253.860,230.829 254.215,230.620 254.422 C 230.411 254.630,229.117 254.800,227.744 254.800 C 226.371 254.800,225.136 254.980,225.000 255.200 C 224.864 255.420,224.324 255.600,223.800 255.600 C 223.276 255.600,222.736 255.780,222.600 256.000 C 222.464 256.220,221.304 256.400,220.022 256.400 C 218.733 256.400,217.180 256.667,216.546 256.998 C 214.846 257.884,186.112 257.886,183.600 257.000 C 182.665 256.670,181.033 256.400,179.973 256.400 C 178.914 256.400,177.936 256.220,177.800 256.000 C 177.664 255.780,176.764 255.600,175.800 255.600 C 174.836 255.600,173.936 255.420,173.800 255.200 C 173.664 254.980,172.699 254.800,171.656 254.800 C 170.613 254.800,169.563 254.603,169.323 254.363 C 169.083 254.123,167.237 253.789,165.222 253.622 C 163.208 253.456,161.352 253.112,161.100 252.860 C 160.847 252.607,160.393 252.400,160.092 252.400 C 159.269 252.400,156.000 250.038,156.000 249.443 C 156.000 249.157,155.640 248.598,155.200 248.200 C 154.760 247.802,154.400 247.065,154.400 246.562 C 154.400 246.059,154.220 245.536,154.000 245.400 C 153.780 245.264,153.600 244.274,153.600 243.200 C 153.600 242.126,153.445 241.151,153.255 241.034 C 153.065 240.917,152.679 239.961,152.396 238.910 C 152.113 237.860,151.729 236.829,151.541 236.620 C 151.353 236.411,151.200 235.567,151.200 234.744 C 151.200 233.921,151.020 233.136,150.800 233.000 C 150.580 232.864,150.400 232.054,150.400 231.200 C 150.400 230.346,150.220 229.536,150.000 229.400 C 149.780 229.264,149.600 228.748,149.600 228.254 C 149.600 227.210,148.059 222.379,147.548 221.820 C 147.356 221.611,147.200 219.417,147.200 216.944 C 147.200 214.377,147.028 212.341,146.800 212.200 C 146.557 212.050,146.400 209.070,146.400 204.600 C 146.400 200.130,146.557 197.150,146.800 197.000 C 147.046 196.848,147.200 193.470,147.200 188.200 C 147.200 182.930,147.354 179.552,147.600 179.400 C 147.820 179.264,148.000 178.831,148.000 178.438 C 148.000 178.045,148.304 177.114,148.675 176.371 C 149.046 175.627,149.428 174.066,149.525 172.902 C 149.621 171.738,149.858 170.688,150.050 170.569 C 150.243 170.450,150.400 169.654,150.400 168.800 C 150.400 167.946,150.580 167.136,150.800 167.000 C 151.020 166.864,151.200 166.054,151.200 165.200 C 151.200 164.346,151.380 163.536,151.600 163.400 C 151.820 163.264,152.000 162.831,152.000 162.438 C 152.000 162.045,152.304 161.114,152.675 160.371 C 153.046 159.627,153.428 158.066,153.525 156.902 C 153.621 155.738,153.858 154.688,154.050 154.569 C 154.243 154.450,154.400 153.973,154.400 153.508 C 154.400 153.043,154.699 152.333,155.064 151.929 C 155.430 151.525,155.927 150.798,156.168 150.313 C 156.705 149.238,160.198 147.286,161.676 147.236 C 162.268 147.216,162.864 147.020,163.000 146.800 C 163.136 146.580,164.306 146.400,165.600 146.400 C 166.894 146.400,168.064 146.220,168.200 146.000 C 168.336 145.780,169.596 145.600,171.000 145.600 C 172.404 145.600,173.643 145.454,173.753 145.276 C 173.863 145.098,175.144 144.704,176.600 144.400 C 178.056 144.096,179.337 143.702,179.447 143.524 C 179.557 143.346,180.796 143.200,182.200 143.200 C 183.604 143.200,184.864 143.020,185.000 142.800 C 185.158 142.545,190.596 142.400,200.000 142.400 C 209.404 142.400,214.842 142.545,215.000 142.800 " stroke="none" fill="#640404" fill-rule="evenodd"></path></g></svg>
